<svg width="48" height="48" viewBox="0 0 48 48" fill="none" xmlns="http://www.w3.org/2000/svg">
<path fill-rule="evenodd" clip-rule="evenodd" d="M14.0358 3H34.9642C36.5899 2.99999 37.9011 2.99997 38.9629 3.08673C40.0562 3.17605 41.0165 3.36477 41.9049 3.81745C43.3161 4.5365 44.4635 5.68386 45.1825 7.09507C45.6352 7.98351 45.8239 8.94379 45.9133 10.0371C46 11.0989 46 12.4101 46 14.0358V24.0642C46 25.6899 46 27.0011 45.9133 28.0629C45.8239 29.1562 45.6352 30.1165 45.1825 31.0049C44.4635 32.4161 43.3161 33.5635 41.9049 34.2825C41.0165 34.7352 40.0562 34.924 38.9629 35.0133C37.9011 35.1 36.5899 35.1 34.9642 35.1H26H23H14.0358C12.4101 35.1 11.0989 35.1 10.0371 35.0133C8.94379 34.924 7.98351 34.7352 7.09507 34.2825C5.68386 33.5635 4.5365 32.4161 3.81745 31.0049C3.36477 30.1165 3.17605 29.1562 3.08673 28.0629C2.99997 27.0011 2.99999 25.6899 3 24.0642V14.0358C2.99999 12.4101 2.99997 11.0989 3.08673 10.0371C3.17605 8.94379 3.36477 7.98351 3.81745 7.09507C4.5365 5.68386 5.68386 4.5365 7.09507 3.81745C7.98351 3.36477 8.94379 3.17605 10.0371 3.08673C11.0989 2.99997 12.4101 2.99999 14.0358 3ZM10.2814 6.07676C9.37361 6.15093 8.85208 6.28919 8.45704 6.49047C7.61031 6.9219 6.9219 7.61031 6.49047 8.45704C6.28919 8.85208 6.15093 9.37361 6.07676 10.2814C6.00117 11.2066 6 12.3951 6 14.1V24C6 25.7049 6.00117 26.8934 6.07676 27.8186C6.15093 28.7264 6.28919 29.2479 6.49047 29.643C6.9219 30.4897 7.61031 31.1781 8.45704 31.6095C8.85208 31.8108 9.37361 31.9491 10.2814 32.0232C11.2066 32.0988 12.3951 32.1 14.1 32.1H34.9C36.6049 32.1 37.7934 32.0988 38.7186 32.0232C39.6264 31.9491 40.1479 31.8108 40.543 31.6095C41.3897 31.1781 42.0781 30.4897 42.5095 29.643C42.7108 29.2479 42.8491 28.7264 42.9232 27.8186C42.9988 26.8934 43 25.7049 43 24V14.1C43 12.3951 42.9988 11.2066 42.9232 10.2814C42.8491 9.37361 42.7108 8.85208 42.5095 8.45704C42.0781 7.61031 41.3897 6.9219 40.543 6.49047C40.1479 6.28919 39.6264 6.15093 38.7186 6.07676C37.7934 6.00117 36.6049 6 34.9 6H14.1C12.3951 6 11.2066 6.00117 10.2814 6.07676Z" fill="url(#paint0_linear_1457_8568)"/>
<path d="M23 35.1V40H19.5C18.6716 40 18 40.6716 18 41.5C18 42.3284 18.6716 43 19.5 43H29.5C30.3284 43 31 42.3284 31 41.5C31 40.6716 30.3284 40 29.5 40H26V35.1H23Z" fill="url(#paint1_linear_1457_8568)"/>
<defs>
<linearGradient id="paint0_linear_1457_8568" x1="46" y1="3.00001" x2="-0.890751" y2="8.2501" gradientUnits="userSpaceOnUse">
<stop stop-color="#5771FF"/>
<stop offset="1" stop-color="#465BCC"/>
</linearGradient>
<linearGradient id="paint1_linear_1457_8568" x1="46" y1="3.00001" x2="-0.890751" y2="8.2501" gradientUnits="userSpaceOnUse">
<stop stop-color="#5771FF"/>
<stop offset="1" stop-color="#465BCC"/>
</linearGradient>
</defs>
</svg>
