<svg xmlns="http://www.w3.org/2000/svg" width="72" height="72" viewBox="0 0 72 72">
  <defs>
    <style>
      .cls-1 {
        fill-rule: evenodd;
      }
    </style>
  </defs>
  <path id="card" class="cls-1" d="M24.12,19.992h22.2a13.6,13.6,0,0,1,2.5.1,9.539,9.539,0,0,1,3.264,1.248,8.589,8.589,0,0,1,3.312,3.984c0.816,1.983.624,5.11,0.624,7.92v7.584a21.708,21.708,0,0,1-.144,4.224,8.364,8.364,0,0,1-2.64,4.728,9.813,9.813,0,0,1-3.912,2.04c-1.721.434-4.431,0.192-6.48,0.192H30.288c-3.047,0-6.736.3-8.928-.6a8.772,8.772,0,0,1-4.248-3.7c-1.148-1.931-1.128-4.275-1.128-7.392V31.656a24.339,24.339,0,0,1,.144-4.7,9.209,9.209,0,0,1,1.128-2.9,8.741,8.741,0,0,1,4.3-3.528,9.919,9.919,0,0,1,1.632-.432ZM20.016,30H51.984c0.027-3.082-.429-4.374-2.376-5.5C48.362,23.786,46,24,44.064,24H26.5a14.19,14.19,0,0,0-3.072.12,4.916,4.916,0,0,0-1.824.912C20.227,26.108,20.007,27.527,20.016,30Zm0,4.008v6.96a16.855,16.855,0,0,0,.1,3.576,5.223,5.223,0,0,0,1.08,2.04C22.554,48.275,25.252,48,28.272,48H43.3c2.974,0,5.4.306,7.1-1.032a4.5,4.5,0,0,0,1.488-2.424,16.882,16.882,0,0,0,.1-3.576v-6.96H20.016Zm25.9,5.976a2.018,2.018,0,1,1-1.824,1.368,2.1,2.1,0,0,1,1.152-1.224Z"/>
</svg>
