<svg width="48" height="48" viewBox="0 0 48 48" fill="none" xmlns="http://www.w3.org/2000/svg">
<path d="M24.0026 13C17.5601 13 11.7034 15.5109 7.33438 19.6192C6.53344 20.3723 5.27893 20.3279 4.53234 19.5199C3.78576 18.7119 3.82982 17.4464 4.63075 16.6932C9.70467 11.922 16.5176 9 24.0026 9C31.4849 9 38.2955 11.9199 43.3689 16.688C44.17 17.441 44.2144 18.7065 43.468 19.5147C42.7216 20.3229 41.4671 20.3677 40.666 19.6147C36.2975 15.509 30.4427 13 24.0026 13Z" fill="url(#paint0_linear_1447_489)"/>
<path d="M12.9157 25.3099C15.8486 22.63 19.7346 21 24.0026 21C28.2676 21 32.1512 22.6278 35.0835 25.3044C35.8954 26.0455 37.1491 25.9823 37.8837 25.1633C38.6184 24.3442 38.5558 23.0795 37.7439 22.3383C34.111 19.0222 29.2886 17 24.0026 17C18.7129 17 13.8875 19.025 10.2538 22.3452C9.44227 23.0867 9.38027 24.3515 10.1153 25.1701C10.8504 25.9888 12.1041 26.0514 12.9157 25.3099Z" fill="url(#paint1_linear_1447_489)"/>
<path d="M18.4968 31.0134C19.9885 29.7554 21.9055 29 24.0026 29C26.1031 29 28.023 29.7579 29.5158 31.0197C30.3551 31.7291 31.6056 31.6178 32.3088 30.7711C33.0119 29.9244 32.9016 28.663 32.0623 27.9536C29.8823 26.1111 27.0685 25 24.0026 25C20.9418 25 18.1322 26.1074 15.9537 27.9444C15.1136 28.6528 15.0019 29.9142 15.7041 30.7616C16.4064 31.6091 17.6567 31.7218 18.4968 31.0134Z" fill="url(#paint2_linear_1447_489)"/>
<path d="M26.646 36.3333C26.646 37.8061 25.4625 39 24.0026 39C22.5427 39 21.3592 37.8061 21.3592 36.3333C21.3592 34.8606 22.5427 33.6667 24.0026 33.6667C25.4625 33.6667 26.646 34.8606 26.646 36.3333Z" fill="url(#paint3_linear_1447_489)"/>
<defs>
<linearGradient id="paint0_linear_1447_489" x1="44" y1="9.00001" x2="0.669514" y2="15.0173" gradientUnits="userSpaceOnUse">
<stop stop-color="#5771FF"/>
<stop offset="1" stop-color="#465BCC"/>
</linearGradient>
<linearGradient id="paint1_linear_1447_489" x1="44" y1="9.00001" x2="0.669514" y2="15.0173" gradientUnits="userSpaceOnUse">
<stop stop-color="#5771FF"/>
<stop offset="1" stop-color="#465BCC"/>
</linearGradient>
<linearGradient id="paint2_linear_1447_489" x1="44" y1="9.00001" x2="0.669514" y2="15.0173" gradientUnits="userSpaceOnUse">
<stop stop-color="#5771FF"/>
<stop offset="1" stop-color="#465BCC"/>
</linearGradient>
<linearGradient id="paint3_linear_1447_489" x1="44" y1="9.00001" x2="0.669514" y2="15.0173" gradientUnits="userSpaceOnUse">
<stop stop-color="#5771FF"/>
<stop offset="1" stop-color="#465BCC"/>
</linearGradient>
</defs>
</svg>
