<svg width="44" height="44" viewBox="0 0 44 44" fill="none" xmlns="http://www.w3.org/2000/svg">
<path d="M31.7674 43H12.2326C10.2903 42.9979 8.42824 42.1962 7.05488 40.7709C5.68152 39.3456 4.90905 37.4131 4.90698 35.3975V13.6643C4.90698 13.2611 5.06134 12.8743 5.3361 12.5892C5.61087 12.304 5.98353 12.1438 6.3721 12.1438C6.76067 12.1438 7.13333 12.304 7.40809 12.5892C7.68285 12.8743 7.83721 13.2611 7.83721 13.6643V35.3975C7.83825 36.6069 8.30166 37.7665 9.12572 38.6218C9.94979 39.477 11.0672 39.9579 12.2326 39.959H31.7674C32.9328 39.9579 34.0502 39.477 34.8743 38.6218C35.6983 37.7665 36.1618 36.6069 36.1628 35.3975V13.6643C36.1628 13.2611 36.3172 12.8743 36.5919 12.5892C36.8667 12.304 37.2393 12.1438 37.6279 12.1438C38.0165 12.1438 38.3891 12.304 38.6639 12.5892C38.9387 12.8743 39.093 13.2611 39.093 13.6643V35.3975C39.091 37.4131 38.3185 39.3456 36.9451 40.7709C35.5718 42.1962 33.7097 42.9979 31.7674 43Z" fill="#5771FF"/>
<path d="M41.5349 18.2259C41.2179 18.226 40.9094 18.1193 40.6558 17.9218L23.4651 4.5413C23.0416 4.21448 22.5278 4.03799 22 4.03799C21.4722 4.03799 20.9584 4.21448 20.5349 4.5413L3.34419 17.9218C3.03333 18.1637 2.64259 18.2676 2.25792 18.2106C1.87326 18.1536 1.52617 17.9403 1.29303 17.6177C1.05989 17.2951 0.959779 16.8895 1.01473 16.4903C1.06968 16.0911 1.27519 15.7309 1.58605 15.489L18.7767 2.10849C19.7083 1.38874 20.8387 1 22 1C23.1614 1 24.2917 1.38874 25.2233 2.10849L42.414 15.489C42.66 15.6804 42.8417 15.9474 42.9334 16.252C43.025 16.5566 43.0221 16.8834 42.9248 17.1862C42.8276 17.4889 42.641 17.7523 42.3916 17.9389C42.1421 18.1255 41.8424 18.2259 41.5349 18.2259Z" fill="#5771FF"/>
<path d="M22 34.4446C21.0662 34.4446 16.2079 34.0675 12.2169 26.6272C11.2813 25.1774 10.8581 23.4362 11.019 21.6993C11.18 19.9624 11.9152 18.3369 13.0999 17.0987C13.7875 16.3904 14.6302 15.8655 15.5559 15.5689C16.4816 15.2723 17.4627 15.2129 18.4154 15.3957C19.8128 15.6897 21.0706 16.4727 21.9785 17.6136C22.8105 16.4935 23.9794 15.6942 25.2994 15.343C26.1905 15.1348 27.116 15.1444 28.0028 15.3709C28.8897 15.5975 29.7137 16.0349 30.4098 16.6486C31.7941 17.8365 32.7015 19.5177 32.9544 21.3632C33.2073 23.2088 32.7875 25.0859 31.7772 26.6272C27.796 34.0675 22.9357 34.4446 22 34.4446ZM17.3214 18.3272C16.5066 18.3356 15.7271 18.6739 15.1491 19.27C14.4473 20.0573 14.0275 21.0711 13.9599 22.1414C13.8923 23.2117 14.1811 24.2736 14.778 25.1492C17.4249 30.0858 20.5642 31.4036 22 31.4036C23.4358 31.4036 26.577 30.0858 29.2279 25.1472C29.8634 24.2193 30.148 23.0814 30.0277 21.9499C29.9074 20.8184 29.3905 19.7722 28.5754 19.0105C28.2273 18.694 27.8136 18.4652 27.3663 18.3417C26.9191 18.2183 26.4504 18.2036 25.9968 18.2989C25.3756 18.5277 24.8134 18.9018 24.3537 19.3922C23.894 19.8826 23.5492 20.4762 23.346 21.127C23.2145 21.377 23.0206 21.5857 22.7847 21.7311C22.5487 21.8764 22.2793 21.9532 22.0049 21.9532C21.7305 21.9532 21.4611 21.8764 21.2251 21.7311C20.9891 21.5857 20.7952 21.377 20.6638 21.127C20.451 20.4653 20.0839 19.8685 19.5951 19.3896C19.1064 18.9107 18.5112 18.5646 17.8625 18.382C17.6841 18.3467 17.503 18.3284 17.3214 18.3272Z" fill="#5771FF"/>
<path d="M31.7674 43H12.2326C10.2903 42.9979 8.42824 42.1962 7.05488 40.7709C5.68152 39.3456 4.90905 37.4131 4.90698 35.3975V13.6643C4.90698 13.2611 5.06134 12.8743 5.3361 12.5892C5.61087 12.304 5.98353 12.1438 6.3721 12.1438C6.76067 12.1438 7.13333 12.304 7.40809 12.5892C7.68285 12.8743 7.83721 13.2611 7.83721 13.6643V35.3975C7.83825 36.6069 8.30166 37.7665 9.12572 38.6218C9.94979 39.477 11.0672 39.9579 12.2326 39.959H31.7674C32.9328 39.9579 34.0502 39.477 34.8743 38.6218C35.6983 37.7665 36.1618 36.6069 36.1628 35.3975V13.6643C36.1628 13.2611 36.3172 12.8743 36.5919 12.5892C36.8667 12.304 37.2393 12.1438 37.6279 12.1438C38.0165 12.1438 38.3891 12.304 38.6639 12.5892C38.9387 12.8743 39.093 13.2611 39.093 13.6643V35.3975C39.091 37.4131 38.3185 39.3456 36.9451 40.7709C35.5718 42.1962 33.7097 42.9979 31.7674 43Z" stroke="#5771FF" stroke-width="0.5"/>
<path d="M41.5349 18.2259C41.2179 18.226 40.9094 18.1193 40.6558 17.9218L23.4651 4.5413C23.0416 4.21448 22.5278 4.03799 22 4.03799C21.4722 4.03799 20.9584 4.21448 20.5349 4.5413L3.34419 17.9218C3.03333 18.1637 2.64259 18.2676 2.25792 18.2106C1.87326 18.1536 1.52617 17.9403 1.29303 17.6177C1.05989 17.2951 0.959779 16.8895 1.01473 16.4903C1.06968 16.0911 1.27519 15.7309 1.58605 15.489L18.7767 2.10849C19.7083 1.38874 20.8387 1 22 1C23.1614 1 24.2917 1.38874 25.2233 2.10849L42.414 15.489C42.66 15.6804 42.8417 15.9474 42.9334 16.252C43.025 16.5566 43.0221 16.8834 42.9248 17.1862C42.8276 17.4889 42.641 17.7523 42.3916 17.9389C42.1421 18.1255 41.8424 18.2259 41.5349 18.2259Z" stroke="#5771FF" stroke-width="0.5"/>
<path d="M22 34.4446C21.0662 34.4446 16.2079 34.0675 12.2169 26.6272C11.2813 25.1774 10.8581 23.4362 11.019 21.6993C11.18 19.9624 11.9152 18.3369 13.0999 17.0987C13.7875 16.3904 14.6302 15.8655 15.5559 15.5689C16.4816 15.2723 17.4627 15.2129 18.4154 15.3957C19.8128 15.6897 21.0706 16.4727 21.9785 17.6136C22.8105 16.4935 23.9794 15.6942 25.2994 15.343C26.1905 15.1348 27.116 15.1444 28.0028 15.3709C28.8897 15.5975 29.7137 16.0349 30.4098 16.6486C31.7941 17.8365 32.7015 19.5177 32.9544 21.3632C33.2073 23.2088 32.7875 25.0859 31.7772 26.6272C27.796 34.0675 22.9357 34.4446 22 34.4446ZM17.3214 18.3272C16.5066 18.3356 15.7271 18.6739 15.1491 19.27C14.4473 20.0573 14.0275 21.0711 13.9599 22.1414C13.8923 23.2117 14.1811 24.2736 14.778 25.1492C17.4249 30.0858 20.5642 31.4036 22 31.4036C23.4358 31.4036 26.577 30.0858 29.2279 25.1472C29.8634 24.2193 30.148 23.0814 30.0277 21.9499C29.9074 20.8184 29.3905 19.7722 28.5754 19.0105C28.2273 18.694 27.8136 18.4652 27.3663 18.3417C26.9191 18.2183 26.4504 18.2036 25.9968 18.2989C25.3756 18.5277 24.8134 18.9018 24.3537 19.3922C23.894 19.8826 23.5492 20.4762 23.346 21.127C23.2145 21.377 23.0206 21.5857 22.7847 21.7311C22.5487 21.8764 22.2793 21.9532 22.0049 21.9532C21.7305 21.9532 21.4611 21.8764 21.2251 21.7311C20.9891 21.5857 20.7952 21.377 20.6638 21.127C20.451 20.4653 20.0839 19.8685 19.5951 19.3896C19.1064 18.9107 18.5112 18.5646 17.8625 18.382C17.6841 18.3467 17.503 18.3284 17.3214 18.3272Z" stroke="#5771FF" stroke-width="0.5"/>
</svg>
