<svg width="48" height="48" viewBox="0 0 48 48" fill="none" xmlns="http://www.w3.org/2000/svg">
<path fill-rule="evenodd" clip-rule="evenodd" d="M34.0605 17.8929H13.9395C13.4454 17.8929 13.0308 18.2644 12.9782 18.7544L10.9064 38.0401C10.8452 38.6101 11.293 39.1071 11.8677 39.1071H36.1323C36.707 39.1071 37.1548 38.6101 37.0936 38.0401L35.0218 18.7544C34.9692 18.2644 34.5546 17.8929 34.0605 17.8929ZM13.9395 15C11.9631 15 10.3048 16.4863 10.0942 18.4462L8.02244 37.7319C7.77753 40.0117 9.56884 42 11.8677 42H36.1323C38.4312 42 40.2225 40.0118 39.9776 37.7319L37.9058 18.4462C37.6952 16.4863 36.0369 15 34.0605 15H13.9395Z" fill="url(#paint0_linear_1447_484)"/>
<path fill-rule="evenodd" clip-rule="evenodd" d="M24 8.8125C21.0399 8.8125 19.8 10.9954 19.8 12.0938V19.5938C19.8 20.3704 19.1732 21 18.4 21C17.6268 21 17 20.3704 17 19.5938V12.0938C17 9.4421 19.4935 6 24 6C28.5065 6 31 9.4421 31 12.0938V19.5938C31 20.3704 30.3732 21 29.6 21C28.8268 21 28.2 20.3704 28.2 19.5938V12.0938C28.2 10.9954 26.9601 8.8125 24 8.8125Z" fill="url(#paint1_linear_1447_484)"/>
<defs>
<linearGradient id="paint0_linear_1447_484" x1="40" y1="15" x2="5.19741" y2="19.2961" gradientUnits="userSpaceOnUse">
<stop stop-color="#5771FF"/>
<stop offset="1" stop-color="#465BCC"/>
</linearGradient>
<linearGradient id="paint1_linear_1447_484" x1="31" y1="6" x2="15.6866" y2="7.48861" gradientUnits="userSpaceOnUse">
<stop stop-color="#5771FF"/>
<stop offset="1" stop-color="#465BCC"/>
</linearGradient>
</defs>
</svg>
