<svg width="20" height="17" viewBox="0 0 20 17" fill="none" xmlns="http://www.w3.org/2000/svg">
<path d="M19.9766 2.02491C19.948 1.98964 19.9007 1.97767 19.8603 1.99691C19.2624 2.27372 18.6333 2.47273 17.9854 2.59029C18.6733 2.05035 19.1858 1.30263 19.4486 0.445253C19.4613 0.404212 19.4482 0.359323 19.416 0.332604C19.3836 0.305885 19.3388 0.302464 19.3033 0.324481C18.5286 0.803936 17.6896 1.14188 16.8084 1.32935C16.0275 0.483729 14.9372 0 13.8087 0C11.5137 0 9.64678 1.94817 9.64678 4.34288C9.64678 4.63252 9.67362 4.91938 9.72688 5.1979C6.54817 4.99312 3.57595 3.40064 1.555 0.813982C1.53431 0.787476 1.50297 0.772727 1.4702 0.776147C1.43763 0.778712 1.40854 0.79795 1.39215 0.827235C1.02344 1.48731 0.828641 2.24251 0.828641 3.01075C0.828641 4.34224 1.40834 5.58715 2.39546 6.40861C1.88725 6.34491 1.39093 6.17797 0.943351 5.91868C0.91324 5.90094 0.875754 5.90116 0.845642 5.91933C0.815531 5.93728 0.796481 5.97063 0.795662 6.00697L0.795252 6.06254C0.795252 7.9748 2.00278 9.65385 3.72077 10.2113C3.26828 10.2874 2.79879 10.2823 2.33729 10.1904C2.30328 10.1838 2.26764 10.1959 2.24429 10.2233C2.22114 10.2507 2.21336 10.2889 2.22401 10.3236C2.73918 12.0015 4.1706 13.1783 5.83677 13.3249C4.44693 14.3875 2.80411 14.9473 1.0683 14.9473C0.748549 14.9473 0.426541 14.9274 0.111087 14.8887C0.0660227 14.8834 0.0213676 14.9114 0.00579979 14.9565C-0.00976803 15.002 0.00682399 15.0529 0.0457435 15.0788C1.92412 16.3359 4.09604 17 6.32695 17C13.6244 17 17.985 10.8143 17.985 4.8343C17.985 4.66779 17.9819 4.50212 17.9756 4.33689C18.7628 3.73602 19.4385 3.00049 19.9834 2.1491C20.0078 2.11105 20.0051 2.06039 19.9766 2.02491Z" fill="white"/>
</svg>
