<svg xmlns="http://www.w3.org/2000/svg" width="200" height="200" viewBox="0 0 200 200">
  <defs>
    <style>
      .cls-1 {
        fill-rule: evenodd;
      }
    </style>
  </defs>
  <path id="_1" data-name="1" class="cls-1" d="M106,41.6h21.5c5.066,0,10.232-.236,14.5.7,21.162,4.643,35.011,17.64,40.2,38.2,2.371,9.394,1.2,23.783,1.2,35.1v26.1c0,5.778.247,11.778-1.1,16.2a29.561,29.561,0,0,1-17,19.1,36.341,36.341,0,0,1-7.4,2c-16.274,3.084-26.521-10.021-33.7-17.2-2.941-2.941-5.31-6.736-10.3-7.6H93.5c-3.3,0-7.479-.4-9.9.6-3.089,1.278-5.358,4.658-7.6,6.9-7.761,7.762-18.588,21.331-36.2,16.9a32.427,32.427,0,0,1-8.7-3.4,30.644,30.644,0,0,1-9.2-8.5,31.336,31.336,0,0,1-4.8-11.3c-0.806-3.619-.5-8.31-0.5-12.6v-45c0-5.159-.254-10.453.7-14.8,4.768-21.734,18.164-35.457,39.6-40.5,4.58-1.078,10.13-.9,15.7-0.9H94c-0.115-11.692,3.208-18.128,11.3-21.4,3.508-1.418,8.611-1.2,13.6-1.2h23.2c2.135,0,7.744.51,9.1-.3,1.446-.864,1.123-3.881,2-5.3,2.3-3.725,8.816-3.285,10.6.6,2.349,5.116-2,11.576-4.6,13.6a15.509,15.509,0,0,1-6,3.1c-2.73.675-6.6,0.3-9.8,0.3H123.1c-4.826,0-12.077-.878-14.9,1.3C105.881,34.089,105.967,37.4,106,41.6ZM65.1,54.2l-6.3.8a40.925,40.925,0,0,0-11.9,4.8A37.685,37.685,0,0,0,30.2,82.9c-1.24,4.844-1,11.127-1,17.2v43.6c0,3.3-.29,7.063.4,9.8a17.054,17.054,0,0,0,5.4,9c5.214,4.156,13.5,5.739,20.1,1.6a34.289,34.289,0,0,0,5.7-5.2l7.9-7.8c2.994-2.994,5.7-6.092,9.9-7.9a30.134,30.134,0,0,1,7-1.6H97c10.2,0,21.1-.775,27.3,3.1,2.525,1.578,4.445,3.845,6.5,5.9l8.8,8.7a30.447,30.447,0,0,0,5.8,5.1c3.48,2.061,9.854,2.991,14.4,1.2a20.6,20.6,0,0,0,5.2-3.1,17.066,17.066,0,0,0,5.4-9c0.93-3.68.4-8.98,0.4-13.3V96.7c0-3.672.235-7.521-.4-10.7a41.319,41.319,0,0,0-5.2-14.1,37.684,37.684,0,0,0-23.1-16.7c-7.376-1.888-18.01-1-26.9-1H65.1ZM68.5,94c6.952-.1,17.993-1.34,16.7,6.5-1.164,7.053-8.74,5.6-16.7,5.5,0.1,6.952,1.34,17.993-6.5,16.7-7.05-1.163-5.6-8.743-5.5-16.7-6.952.1-17.993,1.34-16.7-6.5,1.163-7.05,8.743-5.6,16.7-5.5-0.1-6.95-1.338-17.993,6.5-16.7C70.053,78.464,68.6,86.041,68.5,94Zm68.3-14.9c8.706-.219,9.154,11.18,1.7,12.6a6.286,6.286,0,0,1-7.1-8.1C132.272,80.734,134.116,80.219,136.8,79.1ZM122.1,93.7c8.908-.235,9.3,11.166,1.7,12.6-4.625.873-8.3-3.669-7-8.1C117.62,95.4,119.5,94.787,122.1,93.7Zm29.1,0c9.005-.237,9.4,11.221,1.7,12.6a6.284,6.284,0,0,1-6.9-8.2C146.857,95.374,148.685,94.82,151.2,93.7Zm-14.7,14.6c9.2-.243,9.538,11.215,1.7,12.6-4.446.785-8.136-3.725-6.8-8.1C132.24,110.051,133.985,109.421,136.5,108.3Z"/>
</svg>
