<svg width="48" height="48" viewBox="0 0 48 48" fill="none" xmlns="http://www.w3.org/2000/svg">
<path d="M14 28C14 29.1046 13.1046 30 12 30C10.8954 30 10 29.1046 10 28C10 26.8954 10.8954 26 12 26C13.1046 26 14 26.8954 14 28Z" fill="url(#paint0_linear_1447_449)"/>
<path d="M36 30C37.1046 30 38 29.1046 38 28C38 26.8954 37.1046 26 36 26C34.8954 26 34 26.8954 34 28C34 29.1046 34.8954 30 36 30Z" fill="url(#paint1_linear_1447_449)"/>
<path fill-rule="evenodd" clip-rule="evenodd" d="M40.9999 19L36.1054 9.21114C35.4279 7.85601 34.0428 7 32.5277 7H15.472C13.9569 7 12.5719 7.85601 11.8943 9.21115L6.99987 19L5.96146 20.5577C4.78714 21.2546 4 22.5354 4 24V31C4 31.3453 4.04375 31.6804 4.12602 32H4L4.18606 32.2093C4.45473 33.0574 4.99847 33.7832 5.71253 34.2818C5.8055 34.5136 5.87674 34.7541 5.92504 35C5.97459 35.2523 6 35.5103 6 35.7708V37C6 39.2091 7.79086 41 10 41H12C14.2091 41 16 39.2091 16 37V35.7708C16 35.5103 16.0254 35.2523 16.075 35H31.925C31.9746 35.2523 32 35.5103 32 35.7708V37C32 39.2091 33.7909 41 36 41H38C40.2091 41 42 39.2091 42 37V35.7708C42 35.5103 42.0254 35.2523 42.075 35C42.1693 34.5198 42.5166 34.1474 42.8589 33.7976C43.2916 33.3555 43.6226 32.8135 43.8139 32.2093L43.874 32C43.9562 31.6804 44 31.3453 44 31V24C44 23.2075 43.7695 22.4688 43.3719 21.8473C42.7078 20.8093 41.6834 20.0253 40.9999 19ZM40 32C40.5523 32 41 31.5523 41 31V24C41 23.4477 40.5523 23 40 23H8C7.44771 23 7 23.4477 7 24V31C7 31.5523 7.44772 32 8 32H40ZM34.9575 35C34.9857 35.2549 35 35.5121 35 35.7708V37C35 37.5523 35.4477 38 36 38H38C38.5523 38 39 37.5523 39 37V35.7708C39 35.5121 39.0143 35.2549 39.0425 35H34.9575ZM8.95745 35H13.0426C13.0143 35.2549 13 35.5121 13 35.7708V37C13 37.5523 12.5523 38 12 38H10C9.44772 38 9 37.5523 9 37V35.7708C9 35.5121 8.98568 35.2549 8.95745 35ZM9.85397 20L14.5776 10.5528C14.747 10.214 15.0932 10 15.472 10H32.5277C32.9065 10 33.2528 10.214 33.4222 10.5528L38.1458 20H9.85397Z" fill="url(#paint2_linear_1447_449)"/>
<path fill-rule="evenodd" clip-rule="evenodd" d="M14 28C14 29.1046 13.1046 30 12 30C10.8954 30 10 29.1046 10 28C10 26.8954 10.8954 26 12 26C13.1046 26 14 26.8954 14 28ZM36 30C37.1046 30 38 29.1046 38 28C38 26.8954 37.1046 26 36 26C34.8954 26 34 26.8954 34 28C34 29.1046 34.8954 30 36 30Z" fill="url(#paint3_linear_1447_449)"/>
<path d="M34 28C34 29.1046 34.8954 30 36 30C37.1046 30 38 29.1046 38 28C38 26.8954 37.1046 26 36 26C34.8954 26 34 26.8954 34 28Z" fill="url(#paint4_linear_1447_449)"/>
<path d="M12 30C10.8954 30 10 29.1046 10 28C10 26.8954 10.8954 26 12 26C13.1046 26 14 26.8954 14 28C14 29.1046 13.1046 30 12 30Z" fill="url(#paint5_linear_1447_449)"/>
<path fill-rule="evenodd" clip-rule="evenodd" d="M6.99987 19L11.8943 9.21115C12.5719 7.85601 13.9569 7 15.472 7H32.5277C34.0428 7 35.4279 7.85601 36.1054 9.21114L40.9999 19L42.0385 20.5577C43.2129 21.2546 44 22.5354 44 24V31C44 31.3453 43.9562 31.6804 43.874 32H44L43.8139 32.2093C43.5453 33.0574 43.0015 33.7832 42.2875 34.2818C42.1945 34.5136 42.1233 34.7541 42.075 35C42.0254 35.2523 42 35.5103 42 35.7708V37C42 39.2091 40.2091 41 38 41H36C33.7909 41 32 39.2091 32 37V35.7708C32 35.5103 31.9746 35.2523 31.925 35H16.075C16.0254 35.2523 16 35.5103 16 35.7708V37C16 39.2091 14.2091 41 12 41H10C7.79086 41 6 39.2091 6 37V35.7708C6 35.5103 5.97459 35.2523 5.92504 35C5.83073 34.5198 5.4834 34.1474 5.14109 33.7976C4.70841 33.3555 4.37745 32.8135 4.18606 32.2093L4.12602 32C4.04375 31.6804 4 31.3453 4 31V24C4 23.2075 4.23048 22.4688 4.62808 21.8473C5.29216 20.8093 6.31629 20.0253 6.99987 19ZM8 32C7.44772 32 7 31.5523 7 31V24C7 23.4477 7.44771 23 8 23H40C40.5523 23 41 23.4477 41 24V31C41 31.5523 40.5523 32 40 32H8ZM13.0426 35C13.0143 35.2549 13 35.5121 13 35.7708V37C13 37.5523 12.5523 38 12 38H10C9.44772 38 9 37.5523 9 37V35.7708C9 35.5121 8.98568 35.2549 8.95745 35H13.0426ZM39.0425 35H34.9575C34.9857 35.2549 35 35.5121 35 35.7708V37C35 37.5523 35.4477 38 36 38H38C38.5523 38 39 37.5523 39 37V35.7708C39 35.5121 39.0143 35.2549 39.0425 35ZM38.1458 20L33.4222 10.5528C33.2528 10.214 32.9065 10 32.5277 10H15.472C15.0932 10 14.747 10.214 14.5776 10.5528L9.85397 20H38.1458Z" fill="url(#paint6_linear_1447_449)"/>
<path fill-rule="evenodd" clip-rule="evenodd" d="M34 28C34 29.1046 34.8954 30 36 30C37.1046 30 38 29.1046 38 28C38 26.8954 37.1046 26 36 26C34.8954 26 34 26.8954 34 28ZM12 30C10.8954 30 10 29.1046 10 28C10 26.8954 10.8954 26 12 26C13.1046 26 14 26.8954 14 28C14 29.1046 13.1046 30 12 30Z" fill="url(#paint7_linear_1447_449)"/>
<defs>
<linearGradient id="paint0_linear_1447_449" x1="44" y1="7.00001" x2="0.487198" y2="12.3318" gradientUnits="userSpaceOnUse">
<stop stop-color="#5771FF"/>
<stop offset="1" stop-color="#465BCC"/>
</linearGradient>
<linearGradient id="paint1_linear_1447_449" x1="44" y1="7.00001" x2="0.487198" y2="12.3318" gradientUnits="userSpaceOnUse">
<stop stop-color="#5771FF"/>
<stop offset="1" stop-color="#465BCC"/>
</linearGradient>
<linearGradient id="paint2_linear_1447_449" x1="44" y1="7.00001" x2="0.487198" y2="12.3318" gradientUnits="userSpaceOnUse">
<stop stop-color="#5771FF"/>
<stop offset="1" stop-color="#465BCC"/>
</linearGradient>
<linearGradient id="paint3_linear_1447_449" x1="44" y1="7.00001" x2="0.487198" y2="12.3318" gradientUnits="userSpaceOnUse">
<stop stop-color="#5771FF"/>
<stop offset="1" stop-color="#465BCC"/>
</linearGradient>
<linearGradient id="paint4_linear_1447_449" x1="44" y1="7.00001" x2="0.487198" y2="12.3318" gradientUnits="userSpaceOnUse">
<stop stop-color="#5771FF"/>
<stop offset="1" stop-color="#465BCC"/>
</linearGradient>
<linearGradient id="paint5_linear_1447_449" x1="44" y1="7.00001" x2="0.487198" y2="12.3318" gradientUnits="userSpaceOnUse">
<stop stop-color="#5771FF"/>
<stop offset="1" stop-color="#465BCC"/>
</linearGradient>
<linearGradient id="paint6_linear_1447_449" x1="44" y1="7.00001" x2="0.487198" y2="12.3318" gradientUnits="userSpaceOnUse">
<stop stop-color="#5771FF"/>
<stop offset="1" stop-color="#465BCC"/>
</linearGradient>
<linearGradient id="paint7_linear_1447_449" x1="44" y1="7.00001" x2="0.487198" y2="12.3318" gradientUnits="userSpaceOnUse">
<stop stop-color="#5771FF"/>
<stop offset="1" stop-color="#465BCC"/>
</linearGradient>
</defs>
</svg>
