<svg xmlns="http://www.w3.org/2000/svg" width="72" height="72" viewBox="0 0 72 72">
  <defs>
    <style>
      .cls-1 {
        fill-rule: evenodd;
      }
    </style>
  </defs>
  <path id="crue" class="cls-1" d="M30.744,14.688c3.958-.053,6.648.931,8.088,3.384,0.706,1.2.737,2.417,1.008,4.1a12.148,12.148,0,0,1,.048,3.12,21.689,21.689,0,0,1-.36,2.568c-1.143,3.815-3.484,6.532-7.752,7.248a6.825,6.825,0,0,1-4.56-1.3c-2.812-1.874-4.56-4.855-4.56-9.552l0.048-2.3a15.023,15.023,0,0,1,.576-2.928A6.471,6.471,0,0,1,28.128,15l1.728-.264Zm10.272,0.048a6.335,6.335,0,0,1,6.264,3.936,15.9,15.9,0,0,1,.5,3.312l0.024,1.44a9.244,9.244,0,0,1-2.952,7.248,8.842,8.842,0,0,1-3.192,1.872,1.749,1.749,0,0,1-.888.144,1.636,1.636,0,0,1-.936-2.5c0.509-.81,1.619-1.164,2.352-1.752,1.259-1.009,1.669-2.527,1.992-4.512L44.16,22.68c-0.012-1.872-.147-3.467-1.344-4.152-0.84-.481-2.249-0.3-2.832-1.032a1.789,1.789,0,0,1,.264-2.5A4.018,4.018,0,0,1,41.016,14.736Zm-9.96,3.648-1.368.1c-1.293.236-2.242,0.6-2.688,1.68a11.359,11.359,0,0,0-.408,2.616c-0.474,3.24.6,6.2,2.232,7.512a3.392,3.392,0,0,0,2.712,1.128c2.939-.489,5.038-4.255,4.44-8.232-0.221-1.472-.034-2.6-0.72-3.576C34.533,18.581,32.8,18.377,31.056,18.384ZM43.632,33.36c6.266-.113,11.034,3.235,13.032,7.392,0.705,1.467,1.467,4.087.816,6.168A6.211,6.211,0,0,1,55.1,50.112a8.643,8.643,0,0,1-3.72,1.344c-1.321.223-2.662-.466-2.4-1.824,0.328-1.7,1.8-1.063,3.144-1.632,2.027-.855,2.385-3.03,1.464-5.376a9.634,9.634,0,0,0-6.456-5.616,17.831,17.831,0,0,0-2.376-.432,4.178,4.178,0,0,1-1.512-.192,2.892,2.892,0,0,1-.24-2.616A1.416,1.416,0,0,1,43.632,33.36ZM27.768,36.528h5.4a19.9,19.9,0,0,1,4.032.216,13.422,13.422,0,0,1,9.624,7.3c0.867,1.7,1.931,4.942,1.272,7.56a7.769,7.769,0,0,1-1.56,3.048A6.862,6.862,0,0,1,42.408,56.9a10.854,10.854,0,0,1-1.968.072h-15c-3.484,0-6.112.236-8.184-1.224-2.743-1.932-3.66-5.591-2.352-9.744A13.48,13.48,0,0,1,25.656,36.7l1.32-.144ZM27.48,40.392l-0.936.072a11.31,11.31,0,0,0-2.064.5A9.623,9.623,0,0,0,18.7,46.92c-0.816,2.3-.841,4.741,1.08,5.856,1.064,0.618,3.967.336,5.616,0.336H38.256c2.537,0,4.49.269,5.568-1.248,1.189-1.674.276-4.873-.552-6.288a9.837,9.837,0,0,0-5.952-4.848,16.723,16.723,0,0,0-4.464-.336H27.48Z"/>
</svg>
