<svg width="18" height="10" viewBox="0 0 18 10" fill="none" xmlns="http://www.w3.org/2000/svg">
<path d="M17.8856 4.69483C17.7248 4.50309 13.8934 0 8.99992 0C4.10647 0 0.274852 4.50309 0.114223 4.69465C-0.0380743 4.87655 -0.0380743 5.12327 0.114223 5.30517C0.274852 5.49691 4.10647 10 8.99992 10C13.8934 10 17.7248 5.49688 17.8856 5.30532C18.0381 5.12345 18.0381 4.87655 17.8856 4.69483ZM8.99992 8.96552C5.39538 8.96552 2.27346 5.97673 1.3493 4.99965C2.27226 4.02171 5.38764 1.03448 8.99992 1.03448C12.6043 1.03448 15.726 4.02275 16.6505 5.00035C15.7276 5.97826 12.6122 8.96552 8.99992 8.96552Z" fill="white"/>
<path d="M8.99992 1.89655C7.03672 1.89655 5.43946 3.2888 5.43946 5.00002C5.43946 6.71123 7.03672 8.10348 8.99992 8.10348C10.9631 8.10348 12.5604 6.71123 12.5604 5.00002C12.5604 3.2888 10.9631 1.89655 8.99992 1.89655ZM8.99992 7.06897C7.69105 7.06897 6.62631 6.14086 6.62631 5.00002C6.62631 3.85917 7.69109 2.93106 8.99992 2.93106C10.3088 2.93106 11.3735 3.85917 11.3735 5.00002C11.3735 6.14086 10.3088 7.06897 8.99992 7.06897Z" fill="white"/>
</svg>