<svg xmlns="http://www.w3.org/2000/svg" width="72" height="72" viewBox="0 0 72 72">
  <defs>
    <style>
      .cls-1 {
        fill-rule: evenodd;
      }
    </style>
  </defs>
  <path id="dist" class="cls-1" d="M20.448,32.712c-2,.019-4.387.481-4.7-1.272a1.448,1.448,0,0,1,.312-1.056l2.64-2.472L27.984,19.1,31.2,16.032a1.538,1.538,0,0,1,1.272-.24,1.436,1.436,0,0,1,1.008,1.68L31.9,22.248l-0.552,1.608,4.2,4.176a1.737,1.737,0,0,1,.168,1.56,4.878,4.878,0,0,1-1.008,1.08l-2.952,2.976,3.768,3.768a1.755,1.755,0,0,1,.264,1.416,4.043,4.043,0,0,1-1.152,1.32l-2.88,2.9,3.72,3.72a2.786,2.786,0,0,1,.384.84,1.547,1.547,0,0,1-.432,1.2l-1.536,2.3-2.352,3.528a3.47,3.47,0,0,1-1.272,1.512,5.177,5.177,0,0,1-1.632.1H24.864c-1.011,0-3.082.2-3.72-.192A1.549,1.549,0,0,1,20.5,55.2a6.357,6.357,0,0,1-.048-1.536V32.712Zm31.1,0V53.664a3.6,3.6,0,0,1-.312,2.064c-0.559.721-2.092,0.528-3.36,0.528H39.6c-1.25,0-2.631.167-3.168-.552-0.64-.857.02-1.782,0.432-2.4l3.576-5.352-3.312-3.336a1.962,1.962,0,0,1-.984-1.7,3.08,3.08,0,0,1,1.2-1.632l2.9-2.928L37.08,35.16a1.907,1.907,0,0,1-.936-1.656,3.058,3.058,0,0,1,1.2-1.632l2.9-2.928-2.976-3a4.017,4.017,0,0,1-1.032-1.176,3.481,3.481,0,0,1,.408-2.3l1.608-4.752c0.328-.934.436-1.78,1.512-1.968a1.8,1.8,0,0,1,1.584.84l2.808,2.664,9.48,8.976c0.63,0.625,2.884,2.139,2.592,3.36C55.855,33.157,53.449,32.728,51.552,32.712ZM48.7,53.4V35.952c0-1.361-.237-4.86.312-5.568,0.426-.549,1.237-0.512,2.232-0.5V29.856l-10.68-10.1-1.368,4.1,4.2,4.176a1.737,1.737,0,0,1,.168,1.56,4.878,4.878,0,0,1-1.008,1.08L39.6,33.648l3.768,3.768a1.712,1.712,0,0,1,.264,1.416,4.308,4.308,0,0,1-1.176,1.344L39.6,43.056l3.72,3.72a1.7,1.7,0,0,1,.336,1.392A6.966,6.966,0,0,1,42.6,49.824l-2.352,3.552V53.4H48.7ZM23.3,53.4h4.008a5.524,5.524,0,0,0,1.7-.048l3.576-5.4L29.28,44.616a1.96,1.96,0,0,1-.984-1.7,3.08,3.08,0,0,1,1.2-1.632l2.9-2.928L29.232,35.16a1.9,1.9,0,0,1-.936-1.68A3.019,3.019,0,0,1,29.472,31.9L32.4,28.944l-2.9-2.928a3.109,3.109,0,0,1-1.2-1.632,6.414,6.414,0,0,1,.624-2.256l-8.16,7.728V29.88c0.994-.011,1.808-0.044,2.232.5,0.549,0.71.312,4.205,0.312,5.568V53.4Z"/>
</svg>
