<svg xmlns="http://www.w3.org/2000/svg" width="72" height="72" viewBox="0 0 72 72">
  <defs>
    <style>
      .cls-1 {
        fill-rule: evenodd;
      }
    </style>
  </defs>
  <path id="menu" class="cls-1" d="M16.368,22.344h37.44a5.056,5.056,0,0,1,2.88.432,2.1,2.1,0,0,1,.84,1.776c-0.275,2.365-2.107,2.112-4.68,2.112h-5.4L16.3,26.64a2.2,2.2,0,0,1-1.56-3.192A2.676,2.676,0,0,1,16.368,22.344Zm0.072,11.5H53.808c1.19,0,2.249-.051,2.9.456a2.118,2.118,0,0,1,.816,1.776c-0.3,2.355-2.1,2.088-4.68,2.088h-5.4l-31.2-.024a2.2,2.2,0,0,1-1.464-3.264A2.53,2.53,0,0,1,16.44,33.84Zm0.12,11.5H53.712c1.276,0,2.351-.039,3.048.5a2.1,2.1,0,0,1,.768,1.728c-0.273,2.35-2.076,2.088-4.632,2.088H47.472L16.2,49.632A2.205,2.205,0,0,1,14.832,46.3a2.278,2.278,0,0,1,1.152-.864Z"/>
</svg>
