<svg width="72" height="72" viewBox="0 0 72 72" fill="none" xmlns="http://www.w3.org/2000/svg">
<rect width="72" height="72" rx="10" fill="url(#paint0_linear_770_2801)" fill-opacity="0.1"/>
<path d="M57 16.3085C57 15.9615 56.8627 15.6286 56.6182 15.3832C56.3738 15.1378 56.0422 15 55.6965 15L52.2206 15.0001C51.5007 15.0001 50.9171 15.586 50.9172 16.3087C50.9172 17.0314 51.5008 17.6172 52.2207 17.6172L52.5496 17.6172L39.4758 30.7418L33.4457 24.6886C32.9367 24.1776 32.1114 24.1776 31.6024 24.6886L15.3818 40.9722C14.8727 41.4832 14.8727 42.3117 15.3818 42.8228C15.8908 43.3338 16.7161 43.3338 17.2251 42.8228L32.5241 27.4644L38.5542 33.5176C39.0632 34.0286 39.8885 34.0286 40.3975 33.5176L54.3931 19.4676L54.3931 19.798C54.3931 20.5206 54.9767 21.1065 55.6965 21.1065C56.4164 21.1065 57 20.5206 57 19.798V16.3085Z" fill="url(#paint1_linear_770_2801)"/>
<path d="M54.6827 27.9392C54.6827 27.2165 54.0991 26.6307 53.3792 26.6307C52.6593 26.6307 52.0758 27.2165 52.0758 27.9392V54.6915C52.0758 55.4142 52.6593 56 53.3792 56C54.0991 56 54.6827 55.4142 54.6827 54.6915V27.9392Z" fill="url(#paint2_linear_770_2801)"/>
<path d="M33.8273 34.9181C33.8273 34.1954 33.2437 33.6095 32.5239 33.6095C31.804 33.6095 31.2204 34.1954 31.2204 34.9181V54.6915C31.2204 55.4142 31.804 56 32.5239 56C33.2437 56 33.8273 55.4142 33.8273 54.6915V34.9181Z" fill="url(#paint3_linear_770_2801)"/>
<path d="M47.7309 34.9181C47.7309 34.1954 47.1473 33.6095 46.4274 33.6095C45.7076 33.6095 45.124 34.1954 45.124 34.9181V54.6915C45.124 55.4142 45.7076 56 46.4274 56C47.1473 56 47.7309 55.4142 47.7309 54.6915V34.9181Z" fill="url(#paint4_linear_770_2801)"/>
<path d="M40.7791 39.5706C40.7791 38.848 40.1955 38.2621 39.4756 38.2621C38.7558 38.2621 38.1722 38.848 38.1722 39.5706V54.6915C38.1722 55.4142 38.7558 56 39.4756 56C40.1955 56 40.7791 55.4142 40.7791 54.6915V39.5706Z" fill="url(#paint5_linear_770_2801)"/>
<path d="M26.8755 40.7338C26.8755 40.0111 26.292 39.4252 25.5721 39.4252C24.8522 39.4252 24.2686 40.0111 24.2686 40.7338V54.6915C24.2686 55.4142 24.8522 56 25.5721 56C26.292 56 26.8755 55.4142 26.8755 54.6915V40.7338Z" fill="url(#paint6_linear_770_2801)"/>
<path d="M19.9243 47.7126C19.9243 46.9899 19.3407 46.4041 18.6209 46.4041C17.901 46.4041 17.3174 46.9899 17.3174 47.7126V54.6915C17.3174 55.4142 17.901 56 18.6209 56C19.3407 56 19.9243 55.4142 19.9243 54.6915V47.7126Z" fill="url(#paint7_linear_770_2801)"/>
<path d="M57 16.3085C57 15.9615 56.8627 15.6286 56.6182 15.3832C56.3738 15.1378 56.0422 15 55.6965 15L52.2206 15.0001C51.5007 15.0001 50.9171 15.586 50.9172 16.3087C50.9172 17.0314 51.5008 17.6172 52.2207 17.6172L52.5496 17.6172L39.4758 30.7418L33.4457 24.6886C32.9367 24.1776 32.1114 24.1776 31.6024 24.6886L15.3818 40.9722C14.8727 41.4832 14.8727 42.3117 15.3818 42.8228C15.8908 43.3338 16.7161 43.3338 17.2251 42.8228L32.5241 27.4644L38.5542 33.5176C39.0632 34.0286 39.8885 34.0286 40.3975 33.5176L54.3931 19.4676L54.3931 19.798C54.3931 20.5206 54.9767 21.1065 55.6965 21.1065C56.4164 21.1065 57 20.5206 57 19.798V16.3085Z" stroke="url(#paint8_linear_770_2801)" stroke-linecap="round" stroke-linejoin="round"/>
<path d="M54.6827 27.9392C54.6827 27.2165 54.0991 26.6307 53.3792 26.6307C52.6593 26.6307 52.0758 27.2165 52.0758 27.9392V54.6915C52.0758 55.4142 52.6593 56 53.3792 56C54.0991 56 54.6827 55.4142 54.6827 54.6915V27.9392Z" stroke="url(#paint9_linear_770_2801)" stroke-linecap="round" stroke-linejoin="round"/>
<path d="M33.8273 34.9181C33.8273 34.1954 33.2437 33.6095 32.5239 33.6095C31.804 33.6095 31.2204 34.1954 31.2204 34.9181V54.6915C31.2204 55.4142 31.804 56 32.5239 56C33.2437 56 33.8273 55.4142 33.8273 54.6915V34.9181Z" stroke="url(#paint10_linear_770_2801)" stroke-linecap="round" stroke-linejoin="round"/>
<path d="M47.7309 34.9181C47.7309 34.1954 47.1473 33.6095 46.4274 33.6095C45.7076 33.6095 45.124 34.1954 45.124 34.9181V54.6915C45.124 55.4142 45.7076 56 46.4274 56C47.1473 56 47.7309 55.4142 47.7309 54.6915V34.9181Z" stroke="url(#paint11_linear_770_2801)" stroke-linecap="round" stroke-linejoin="round"/>
<path d="M40.7791 39.5706C40.7791 38.848 40.1955 38.2621 39.4756 38.2621C38.7558 38.2621 38.1722 38.848 38.1722 39.5706V54.6915C38.1722 55.4142 38.7558 56 39.4756 56C40.1955 56 40.7791 55.4142 40.7791 54.6915V39.5706Z" stroke="url(#paint12_linear_770_2801)" stroke-linecap="round" stroke-linejoin="round"/>
<path d="M26.8755 40.7338C26.8755 40.0111 26.292 39.4252 25.5721 39.4252C24.8522 39.4252 24.2686 40.0111 24.2686 40.7338V54.6915C24.2686 55.4142 24.8522 56 25.5721 56C26.292 56 26.8755 55.4142 26.8755 54.6915V40.7338Z" stroke="url(#paint13_linear_770_2801)" stroke-linecap="round" stroke-linejoin="round"/>
<path d="M19.9243 47.7126C19.9243 46.9899 19.3407 46.4041 18.6209 46.4041C17.901 46.4041 17.3174 46.9899 17.3174 47.7126V54.6915C17.3174 55.4142 17.901 56 18.6209 56C19.3407 56 19.9243 55.4142 19.9243 54.6915V47.7126Z" stroke="url(#paint14_linear_770_2801)" stroke-linecap="round" stroke-linejoin="round"/>
<defs>
<linearGradient id="paint0_linear_770_2801" x1="72" y1="2.06021e-05" x2="-6.64587" y2="8.19122" gradientUnits="userSpaceOnUse">
<stop stop-color="#5771FF"/>
<stop offset="1" stop-color="#465BCC"/>
</linearGradient>
<linearGradient id="paint1_linear_770_2801" x1="57" y1="15" x2="11.1475" y2="19.8922" gradientUnits="userSpaceOnUse">
<stop stop-color="#5771FF"/>
<stop offset="1" stop-color="#465BCC"/>
</linearGradient>
<linearGradient id="paint2_linear_770_2801" x1="57" y1="15" x2="11.1475" y2="19.8922" gradientUnits="userSpaceOnUse">
<stop stop-color="#5771FF"/>
<stop offset="1" stop-color="#465BCC"/>
</linearGradient>
<linearGradient id="paint3_linear_770_2801" x1="57" y1="15" x2="11.1475" y2="19.8922" gradientUnits="userSpaceOnUse">
<stop stop-color="#5771FF"/>
<stop offset="1" stop-color="#465BCC"/>
</linearGradient>
<linearGradient id="paint4_linear_770_2801" x1="57" y1="15" x2="11.1475" y2="19.8922" gradientUnits="userSpaceOnUse">
<stop stop-color="#5771FF"/>
<stop offset="1" stop-color="#465BCC"/>
</linearGradient>
<linearGradient id="paint5_linear_770_2801" x1="57" y1="15" x2="11.1475" y2="19.8922" gradientUnits="userSpaceOnUse">
<stop stop-color="#5771FF"/>
<stop offset="1" stop-color="#465BCC"/>
</linearGradient>
<linearGradient id="paint6_linear_770_2801" x1="57" y1="15" x2="11.1475" y2="19.8922" gradientUnits="userSpaceOnUse">
<stop stop-color="#5771FF"/>
<stop offset="1" stop-color="#465BCC"/>
</linearGradient>
<linearGradient id="paint7_linear_770_2801" x1="57" y1="15" x2="11.1475" y2="19.8922" gradientUnits="userSpaceOnUse">
<stop stop-color="#5771FF"/>
<stop offset="1" stop-color="#465BCC"/>
</linearGradient>
<linearGradient id="paint8_linear_770_2801" x1="57" y1="15" x2="11.1475" y2="19.8922" gradientUnits="userSpaceOnUse">
<stop stop-color="#5771FF"/>
<stop offset="1" stop-color="#465BCC"/>
</linearGradient>
<linearGradient id="paint9_linear_770_2801" x1="57" y1="15" x2="11.1475" y2="19.8922" gradientUnits="userSpaceOnUse">
<stop stop-color="#5771FF"/>
<stop offset="1" stop-color="#465BCC"/>
</linearGradient>
<linearGradient id="paint10_linear_770_2801" x1="57" y1="15" x2="11.1475" y2="19.8922" gradientUnits="userSpaceOnUse">
<stop stop-color="#5771FF"/>
<stop offset="1" stop-color="#465BCC"/>
</linearGradient>
<linearGradient id="paint11_linear_770_2801" x1="57" y1="15" x2="11.1475" y2="19.8922" gradientUnits="userSpaceOnUse">
<stop stop-color="#5771FF"/>
<stop offset="1" stop-color="#465BCC"/>
</linearGradient>
<linearGradient id="paint12_linear_770_2801" x1="57" y1="15" x2="11.1475" y2="19.8922" gradientUnits="userSpaceOnUse">
<stop stop-color="#5771FF"/>
<stop offset="1" stop-color="#465BCC"/>
</linearGradient>
<linearGradient id="paint13_linear_770_2801" x1="57" y1="15" x2="11.1475" y2="19.8922" gradientUnits="userSpaceOnUse">
<stop stop-color="#5771FF"/>
<stop offset="1" stop-color="#465BCC"/>
</linearGradient>
<linearGradient id="paint14_linear_770_2801" x1="57" y1="15" x2="11.1475" y2="19.8922" gradientUnits="userSpaceOnUse">
<stop stop-color="#5771FF"/>
<stop offset="1" stop-color="#465BCC"/>
</linearGradient>
</defs>
</svg>
