<svg xmlns="http://www.w3.org/2000/svg" width="72" height="72" viewBox="0 0 72 72">
  <defs>
    <style>
      .cls-1 {
        fill-rule: evenodd;
      }
    </style>
  </defs>
  <path id="priv" class="cls-1" d="M34.968,14.76c10.723-.174,17.479,5.691,20.64,13.08a22.035,22.035,0,0,1,.912,13.728,23.513,23.513,0,0,1-2.616,5.9,21,21,0,0,1-12.744,9.12,18.617,18.617,0,0,1-7.056.576,25,25,0,0,1-4.968-1.056A9.524,9.524,0,0,0,26.184,55.1a4.926,4.926,0,0,0-1.752.48l-2.448.792c-1.3.5-3.125,1.261-4.752,0.576a3.872,3.872,0,0,1-1.56-1.2c-1.369-1.767-.924-3.238-0.216-5.256l0.84-2.568a4.686,4.686,0,0,0,.576-2.544,14.225,14.225,0,0,0-.888-2.232,24.764,24.764,0,0,1-1.1-4.7A20.19,20.19,0,0,1,15.7,29.76,20.885,20.885,0,0,1,27.864,16.344a23.919,23.919,0,0,1,4.488-1.3ZM35.376,18.5l-2.04.192a21.231,21.231,0,0,0-3.624.96A17.213,17.213,0,0,0,19.3,30.816a16.915,16.915,0,0,0-.648,7.608,19.491,19.491,0,0,0,.816,3.384,16.471,16.471,0,0,1,1.152,3.5,6.428,6.428,0,0,1-.648,3.384L19.1,51.336a7.111,7.111,0,0,0-.6,1.992l0.168,0.192a4.362,4.362,0,0,0,1.488-.456l3.648-1.2a5.668,5.668,0,0,1,2.88-.48,16.73,16.73,0,0,1,3.624,1.2,18.66,18.66,0,0,0,3,.744,16.144,16.144,0,0,0,6.384-.216,17.492,17.492,0,0,0,10.128-6.336,18.5,18.5,0,0,0,2.928-5.64A18.4,18.4,0,0,0,52.2,29.424C49.586,23.271,44.156,18.487,35.376,18.5Zm0.36,7.032a5.465,5.465,0,0,1,2.688.96,36.966,36.966,0,0,0,4.224,1.512c1.1,0.331,2.161.351,2.592,1.344a5.8,5.8,0,0,1,.168,2.016l-0.024,3.744a23.5,23.5,0,0,1-.432,2.928A11.845,11.845,0,0,1,38.4,45.7a9.9,9.9,0,0,1-2.208.792c-1.118.2-3.562-1.262-4.224-1.7-3.317-2.213-5.376-5.478-5.376-11.04a19.127,19.127,0,0,1,.1-4.128c0.449-1.179,1.816-1.268,3.048-1.656A53.808,53.808,0,0,0,35.736,25.536Zm0.24,3.936-1.392.624a30.7,30.7,0,0,1-4.272,1.56,23.03,23.03,0,0,0,.072,4.176,8.468,8.468,0,0,0,3.144,5.424c0.325,0.249,2.031,1.461,2.52,1.368a6.549,6.549,0,0,0,2.5-1.44,8.455,8.455,0,0,0,3.072-5.472,25.814,25.814,0,0,0,.048-4.152C39.609,31.267,37.753,30.052,35.976,29.472Z"/>
</svg>
