<svg xmlns="http://www.w3.org/2000/svg" width="200" height="200" viewBox="0 0 200 200">
  <defs>
    <style>
      .cls-1 {
        fill-rule: evenodd;
      }
    </style>
  </defs>
  <path id="_1" data-name="1" class="cls-1" d="M49.7,29.2a34.469,34.469,0,0,1,8.6.6c13.573,3.433,26.256,18.932,19,36.6C73.414,75.862,66,81.342,54.5,83.3c-4.513.768-9.349-.651-12.4-1.9-10.584-4.332-21.02-17.06-16-33.1a27.055,27.055,0,0,1,15.2-17l5.5-1.7Zm103.4,8.3c6.177-.1,11.467,4.87,8.9,11.4-0.824,2.1-2.512,3.207-3.8,4.8l-10,11L76.9,141.5,63.2,156.3l-8.3,8.9a9.361,9.361,0,0,1-10.2-.3,9.008,9.008,0,0,1-1.8-11.1l21-22.9,60-64.6,15-16.2,6.3-6.8a20.153,20.153,0,0,1,4.8-4.8ZM50.7,45.9l-2.6.7a10.66,10.66,0,0,0-6,6.6c-2.156,7.081,3.987,14.717,11.4,13.4C66.041,64.371,65.454,45.7,50.7,45.9Zm100,74.9c18.979-.3,34.738,18.018,26.5,37.5-4.048,9.573-11.413,14.722-23.2,16.7-5.046.847-9.859-1.022-13-2.4-10.579-4.643-20.434-18.787-14.3-34.4A27.539,27.539,0,0,1,143,122.3l5.5-1.3Zm0.6,16.7-2.5.5a10.88,10.88,0,0,0-6.4,6c-2.885,7.053,3.246,15.581,10.8,14.3C166,156.13,165.333,137.332,151.3,137.5Z"/>
</svg>
