<svg xmlns="http://www.w3.org/2000/svg" width="72" height="72" viewBox="0 0 72 72">
  <defs>
    <style>
      .cls-1 {
        fill-rule: evenodd;
      }
    </style>
  </defs>
  <path id="union" class="cls-1" d="M37.488,23.832V25.44c5.82,0.135,12.2,2.679,14.832,5.952a11.665,11.665,0,0,1,2.232,3.864c0.531,1.684-.3,2.712-2.088,2.688a4.692,4.692,0,0,1,.12,1.584V53.28c1.228-.02,2.271.013,2.784,0.7,0.754,1.005-.093,1.959-0.984,2.232a11.565,11.565,0,0,1-2.856.1H20.5c-1.173,0-2.347.073-3.024-.408a1.381,1.381,0,0,1-.216-2.04,3.745,3.745,0,0,1,2.664-.576V39.552a4.687,4.687,0,0,1,.12-1.584V37.944a4.274,4.274,0,0,1-2.136-.288,2.021,2.021,0,0,1-.6-2.568,12.552,12.552,0,0,1,2.376-3.912,9.5,9.5,0,0,1,1.8-1.56A22.618,22.618,0,0,1,34.32,25.44v-5.4a11.019,11.019,0,0,1,.1-2.712,2.7,2.7,0,0,1,.864-1.272c0.995-.771,3.031-0.576,4.8-0.576a6.9,6.9,0,0,1,3.216.384,2.766,2.766,0,0,1,1.1,1.368,16.218,16.218,0,0,1,.072,4.608,2.931,2.931,0,0,1-.528,1.056C42.909,24.224,39.825,23.845,37.488,23.832Zm0-5.208v2.088h3.864V18.624H37.488ZM35.16,28.536l-1.7.1-2.832.408c-4.171.982-7.779,2.554-9.72,5.76H50.88V34.776C48.6,30.526,41.86,28.534,35.16,28.536ZM23.088,53.28l4.224-.024V43.128a30.1,30.1,0,0,1,.1-5.184h-4.44a4.692,4.692,0,0,1,.12,1.584V53.28Zm7.368,0H34.68V39.528a4.679,4.679,0,0,1,.12-1.584H30.336c0.323,0.693.12,3.468,0.12,4.512V53.28Zm7.392,0h4.2V39.552a4.676,4.676,0,0,1,.12-1.584V37.944h-4.44v0.024a5.289,5.289,0,0,1,.12,1.656V53.28Zm7.368,0h4.2V39.624a5.271,5.271,0,0,1,.12-1.656V37.944l-4.44.024a4.692,4.692,0,0,1,.12,1.584V53.28Z"/>
</svg>
