<svg width="48" height="48" viewBox="0 0 48 48" fill="none" xmlns="http://www.w3.org/2000/svg">
<path fill-rule="evenodd" clip-rule="evenodd" d="M11.6258 8.00217C11.1702 8.23 10.521 8.73757 9.52074 9.73779C7.6415 11.617 5.16978 19.5959 16.287 30.713C27.4041 41.8302 35.383 39.3585 37.2622 37.4793C38.2624 36.479 38.77 35.8298 38.9978 35.3742C39.1769 35.016 39.1389 34.8841 39.0813 34.7441C38.9652 34.4623 38.661 34.0571 37.9473 33.3434C37.6424 33.0385 37.2954 32.7078 36.8944 32.3256C36.8483 32.2817 36.8014 32.237 36.7538 32.1916C36.2979 31.7569 35.7864 31.2671 35.2323 30.713C34.6851 30.1658 33.7205 29.4887 32.6852 29.2299C31.7348 28.9923 30.7574 29.0984 29.8194 30.0364C29.0238 30.832 28.157 31.4023 27.1786 31.6179C26.176 31.8388 25.2383 31.6477 24.3915 31.2525C23.5727 30.8704 22.7963 30.2786 22.0517 29.6229C21.3091 28.969 20.5211 28.1809 19.693 27.3529L19.6471 27.307C18.8191 26.4789 18.031 25.6909 17.3771 24.9483C16.7214 24.2037 16.1296 23.4273 15.7475 22.6085C15.3523 21.7617 15.1612 20.824 15.3821 19.8214C15.5977 18.843 16.168 17.9762 16.9636 17.1806C17.9016 16.2426 18.0077 15.2652 17.7701 14.3148C17.5113 13.2795 16.8342 12.3149 16.287 11.7677C15.7329 11.2136 15.2431 10.7021 14.8083 10.2462C14.763 10.1986 14.7183 10.1517 14.6743 10.1056C14.2922 9.70463 13.9615 9.35762 13.6566 9.05271C12.9429 8.33903 12.5377 8.03478 12.2559 7.91872C12.1158 7.86107 11.984 7.82311 11.6258 8.00217ZM16.886 8.26522C17.3181 8.71847 17.7883 9.20925 18.3168 9.73779C19.1228 10.5438 20.1373 11.9473 20.5551 13.6186C20.9941 15.3746 20.7619 17.442 18.9934 19.2105C18.4358 19.7682 18.2448 20.17 18.1856 20.4391C18.1316 20.6841 18.152 20.9727 18.3488 21.3946C18.5588 21.8444 18.9396 22.379 19.5315 23.0511C20.119 23.7183 20.8448 24.445 21.6999 25.3001C22.555 26.1552 23.2817 26.881 23.9489 27.4685C24.621 28.0604 25.1556 28.4412 25.6054 28.6512C26.0273 28.848 26.3159 28.8684 26.5609 28.8144C26.83 28.7551 27.2318 28.5642 27.7895 28.0066C29.558 26.2381 31.6254 26.0059 33.3814 26.4449C35.0527 26.8627 36.4562 27.8772 37.2622 28.6832C37.7908 29.2117 38.2815 29.6819 38.7348 30.114C38.7825 30.1596 38.83 30.2048 38.8772 30.2497C39.2726 30.6265 39.6462 30.9825 39.9772 31.3135C40.6844 32.0208 41.3781 32.7827 41.7357 33.6511C42.1517 34.6614 42.063 35.6628 41.5654 36.658C41.1166 37.5555 40.3217 38.4795 39.2921 39.5091C35.7583 43.0428 25.8744 44.3602 14.2571 32.7429C2.63981 21.1256 3.95716 11.2417 7.49088 7.70793C8.52052 6.67829 9.44446 5.88336 10.342 5.43457C11.3372 4.93701 12.3386 4.8483 13.3489 5.26429C14.2173 5.62186 14.9792 6.31563 15.6865 7.02285C16.0175 7.35387 16.3735 7.7275 16.7504 8.12295C16.7953 8.17008 16.8405 8.21751 16.886 8.26522Z" fill="url(#paint0_linear_1447_480)"/>
<defs>
<linearGradient id="paint0_linear_1447_480" x1="42" y1="5.00001" x2="1.58476" y2="9.20937" gradientUnits="userSpaceOnUse">
<stop stop-color="#5771FF"/>
<stop offset="1" stop-color="#465BCC"/>
</linearGradient>
</defs>
</svg>
