<svg width="72" height="72" viewBox="0 0 72 72" fill="none" xmlns="http://www.w3.org/2000/svg">
<rect width="72" height="72" rx="10" fill="url(#paint0_linear_770_2782)" fill-opacity="0.1"/>
<path fill-rule="evenodd" clip-rule="evenodd" d="M45.4195 33.2723C46.2681 30.9344 46.7059 28.923 46.7059 27.4953C46.7059 21.4395 41.9127 16.5304 36 16.5304C30.0873 16.5304 25.2941 21.4395 25.2941 27.4953C25.2941 28.923 25.7319 30.9344 26.5805 33.2723C27.414 35.5687 28.5802 38.0076 29.8839 40.2356C31.1938 42.4742 32.5936 44.4164 33.8642 45.7621C34.5011 46.4366 35.0511 46.903 35.4888 47.1851C35.7674 47.3647 35.9338 47.4269 36 47.4477C36.0662 47.4269 36.2326 47.3647 36.5112 47.1851C36.9489 46.903 37.4989 46.4366 38.1358 45.7621C39.4064 44.4164 40.8062 42.4742 42.1161 40.2356C43.4198 38.0076 44.586 35.5687 45.4195 33.2723ZM36 49.9874C40.3922 49.9874 49.1765 34.9485 49.1765 27.4953C49.1765 20.042 43.2772 14 36 14C28.7228 14 22.8235 20.042 22.8235 27.4953C22.8235 34.9485 31.6078 49.9874 36 49.9874Z" fill="url(#paint1_linear_770_2782)"/>
<path fill-rule="evenodd" clip-rule="evenodd" d="M35.9997 29.4633C37.6674 29.4633 39.0193 28.0787 39.0193 26.3707C39.0193 24.6626 37.6674 23.278 35.9997 23.278C34.332 23.278 32.9801 24.6626 32.9801 26.3707C32.9801 28.0787 34.332 29.4633 35.9997 29.4633ZM35.9997 31.9937C39.0319 31.9937 41.4899 29.4762 41.4899 26.3707C41.4899 23.2652 39.0319 20.7476 35.9997 20.7476C32.9676 20.7476 30.5095 23.2652 30.5095 26.3707C30.5095 29.4762 32.9676 31.9937 35.9997 31.9937Z" fill="url(#paint2_linear_770_2782)"/>
<path fill-rule="evenodd" clip-rule="evenodd" d="M21.2238 40.3029C21.5945 40.8895 21.4307 41.6728 20.8579 42.0525C18.5352 43.5921 17.4706 45.3003 17.4706 46.8945C17.4706 48.8557 19.1056 50.9928 22.5643 52.7148C25.9389 54.3949 30.6876 55.4696 36 55.4696C41.3124 55.4696 46.0611 54.3949 49.4357 52.7148C52.8944 50.9928 54.5294 48.8557 54.5294 46.8945C54.5294 45.3003 53.4648 43.5921 51.1421 42.0525C50.5693 41.6728 50.4055 40.8895 50.7762 40.3029C51.1468 39.7163 51.9116 39.5485 52.4844 39.9282C55.1241 41.6778 57 44.0582 57 46.8945C57 50.368 54.2105 53.151 50.5158 54.9905C46.737 56.8719 41.6033 58 36 58C30.3967 58 25.263 56.8719 21.4842 54.9905C17.7895 53.151 15 50.368 15 46.8945C15 44.0582 16.876 41.6778 19.5156 39.9282C20.0884 39.5485 20.8532 39.7163 21.2238 40.3029Z" fill="url(#paint3_linear_770_2782)"/>
<path fill-rule="evenodd" clip-rule="evenodd" d="M45.4195 33.2723C46.2681 30.9344 46.7059 28.923 46.7059 27.4953C46.7059 21.4395 41.9127 16.5304 36 16.5304C30.0873 16.5304 25.2941 21.4395 25.2941 27.4953C25.2941 28.923 25.7319 30.9344 26.5805 33.2723C27.414 35.5687 28.5802 38.0076 29.8839 40.2356C31.1938 42.4742 32.5936 44.4164 33.8642 45.7621C34.5011 46.4366 35.0511 46.903 35.4888 47.1851C35.7674 47.3647 35.9338 47.4269 36 47.4477C36.0662 47.4269 36.2326 47.3647 36.5112 47.1851C36.9489 46.903 37.4989 46.4366 38.1358 45.7621C39.4064 44.4164 40.8062 42.4742 42.1161 40.2356C43.4198 38.0076 44.586 35.5687 45.4195 33.2723ZM36 49.9874C40.3922 49.9874 49.1765 34.9485 49.1765 27.4953C49.1765 20.042 43.2772 14 36 14C28.7228 14 22.8235 20.042 22.8235 27.4953C22.8235 34.9485 31.6078 49.9874 36 49.9874Z" stroke="url(#paint4_linear_770_2782)" stroke-width="1.5" stroke-linecap="round"/>
<path fill-rule="evenodd" clip-rule="evenodd" d="M35.9997 29.4633C37.6674 29.4633 39.0193 28.0787 39.0193 26.3707C39.0193 24.6626 37.6674 23.278 35.9997 23.278C34.332 23.278 32.9801 24.6626 32.9801 26.3707C32.9801 28.0787 34.332 29.4633 35.9997 29.4633ZM35.9997 31.9937C39.0319 31.9937 41.4899 29.4762 41.4899 26.3707C41.4899 23.2652 39.0319 20.7476 35.9997 20.7476C32.9676 20.7476 30.5095 23.2652 30.5095 26.3707C30.5095 29.4762 32.9676 31.9937 35.9997 31.9937Z" stroke="url(#paint5_linear_770_2782)" stroke-width="1.5" stroke-linecap="round"/>
<path fill-rule="evenodd" clip-rule="evenodd" d="M21.2238 40.3029C21.5945 40.8895 21.4307 41.6728 20.8579 42.0525C18.5352 43.5921 17.4706 45.3003 17.4706 46.8945C17.4706 48.8557 19.1056 50.9928 22.5643 52.7148C25.9389 54.3949 30.6876 55.4696 36 55.4696C41.3124 55.4696 46.0611 54.3949 49.4357 52.7148C52.8944 50.9928 54.5294 48.8557 54.5294 46.8945C54.5294 45.3003 53.4648 43.5921 51.1421 42.0525C50.5693 41.6728 50.4055 40.8895 50.7762 40.3029C51.1468 39.7163 51.9116 39.5485 52.4844 39.9282C55.1241 41.6778 57 44.0582 57 46.8945C57 50.368 54.2105 53.151 50.5158 54.9905C46.737 56.8719 41.6033 58 36 58C30.3967 58 25.263 56.8719 21.4842 54.9905C17.7895 53.151 15 50.368 15 46.8945C15 44.0582 16.876 41.6778 19.5156 39.9282C20.0884 39.5485 20.8532 39.7163 21.2238 40.3029Z" stroke="url(#paint6_linear_770_2782)" stroke-width="1.5" stroke-linecap="round"/>
<defs>
<linearGradient id="paint0_linear_770_2782" x1="72" y1="2.06021e-05" x2="-6.64587" y2="8.19122" gradientUnits="userSpaceOnUse">
<stop stop-color="#5771FF"/>
<stop offset="1" stop-color="#465BCC"/>
</linearGradient>
<linearGradient id="paint1_linear_770_2782" x1="57" y1="14" x2="11.0795" y2="18.5654" gradientUnits="userSpaceOnUse">
<stop stop-color="#5771FF"/>
<stop offset="1" stop-color="#465BCC"/>
</linearGradient>
<linearGradient id="paint2_linear_770_2782" x1="57" y1="14" x2="11.0795" y2="18.5654" gradientUnits="userSpaceOnUse">
<stop stop-color="#5771FF"/>
<stop offset="1" stop-color="#465BCC"/>
</linearGradient>
<linearGradient id="paint3_linear_770_2782" x1="57" y1="14" x2="11.0795" y2="18.5654" gradientUnits="userSpaceOnUse">
<stop stop-color="#5771FF"/>
<stop offset="1" stop-color="#465BCC"/>
</linearGradient>
<linearGradient id="paint4_linear_770_2782" x1="57" y1="14" x2="11.0795" y2="18.5654" gradientUnits="userSpaceOnUse">
<stop stop-color="#5771FF"/>
<stop offset="1" stop-color="#465BCC"/>
</linearGradient>
<linearGradient id="paint5_linear_770_2782" x1="57" y1="14" x2="11.0795" y2="18.5654" gradientUnits="userSpaceOnUse">
<stop stop-color="#5771FF"/>
<stop offset="1" stop-color="#465BCC"/>
</linearGradient>
<linearGradient id="paint6_linear_770_2782" x1="57" y1="14" x2="11.0795" y2="18.5654" gradientUnits="userSpaceOnUse">
<stop stop-color="#5771FF"/>
<stop offset="1" stop-color="#465BCC"/>
</linearGradient>
</defs>
</svg>
