<svg xmlns="http://www.w3.org/2000/svg" width="72" height="72" viewBox="0 0 72 72">
  <defs>
    <style>
      .cls-1 {
        fill-rule: evenodd;
      }
    </style>
  </defs>
  <path id="hand" class="cls-1" d="M37.848,17.76c3.751-.056,5.993,1.595,7.1,4.176a7.755,7.755,0,0,1,.528,4.44,9.587,9.587,0,0,1-.552,1.776,6.867,6.867,0,0,1-4.56,3.792l-1.68.264a6.648,6.648,0,0,1-3.24-.624,7.208,7.208,0,0,1-3.936-8.808,6.881,6.881,0,0,1,4.2-4.536l1.416-.384Zm0.072,2.9-1.032.216A4.518,4.518,0,0,0,34.3,23.448a4.371,4.371,0,1,0,8.136-.192A4.489,4.489,0,0,0,37.92,20.664ZM49.3,33.072a6.194,6.194,0,0,1,4.512,1.44,1.941,1.941,0,0,1,.216,2.088,4.662,4.662,0,0,1-1.152,1.056L50.712,39.5l-4.128,3.528c-1.433,1.139-2.507,2.333-4.608,2.856a12.179,12.179,0,0,1-2.76.168H35.472c-1.107,0-2.274-.089-2.784.5a1.905,1.905,0,0,1,.384.744,3.063,3.063,0,0,1-.36,1.608l-0.96,3.12a5.906,5.906,0,0,1-.552,1.632,1.509,1.509,0,0,1-1.464.576,16.939,16.939,0,0,1-2.88-1.32l-6.264-2.9c-0.988-.436-2.6-0.8-2.832-1.992a2.074,2.074,0,0,1,.648-1.656l1.9-2.928a5.411,5.411,0,0,1,.936-1.392,1.813,1.813,0,0,1,.816-0.336,4.638,4.638,0,0,0,.672.048l0.384-1.032a10.617,10.617,0,0,1,1.032-1.872,10.8,10.8,0,0,1,7.272-4.56,23.623,23.623,0,0,1,3.984-.072c3.007,0,6.575-.477,7.32,1.8,1.455-.739,2.752-1.772,4.272-2.424a8.086,8.086,0,0,1,1.488-.432Zm0.216,2.9c-0.49.186-.993,0.13-1.416,0.312l-4.872,2.784c-1.12.67-1.678,1.53-3.24,1.8H37.968c-1.855,0-5.332.544-4.92-1.656a1.47,1.47,0,0,1,.84-1.152,4.448,4.448,0,0,1,1.44-.1h3.024a4.1,4.1,0,0,0,1.752-.144,0.535,0.535,0,0,0-.024-0.552,2.13,2.13,0,0,0-1.3-.144h-3.72a18.194,18.194,0,0,0-3.84.144,8.017,8.017,0,0,0-5.856,5.784l4.608,2.112A3.245,3.245,0,0,1,31.1,44.112a6.072,6.072,0,0,1,2.592-.96h5.4a10.506,10.506,0,0,0,2.352-.12A7.384,7.384,0,0,0,44.3,41.16l6-5.088-0.024-.048ZM22.728,45.024a13.852,13.852,0,0,0-1.368,2.184l7.752,3.576,0.744-2.472Z"/>
</svg>
