<svg width="15" height="16" viewBox="0 0 15 16" fill="none" xmlns="http://www.w3.org/2000/svg">
<path fill-rule="evenodd" clip-rule="evenodd" d="M7.86027 0C7.31814 0 6.87866 0.435262 6.87866 0.972185V3.6943C6.87866 3.69928 6.87872 3.70425 6.87884 3.7092C3.62287 3.8749 0.992652 5.40871 0.487619 7.58934C0.390656 8.00801 0.751561 8.36079 1.18526 8.36079H1.58456C1.55387 8.41934 1.53687 8.48387 1.53687 8.55168V14.0741H1.15792C0.716091 14.0741 0.400024 14.3261 0.400024 14.637C0.400024 14.948 0.716091 15.2 1.15792 15.2H14.0421C14.484 15.2 14.8 14.948 14.8 14.637C14.8 14.3261 14.484 14.0741 14.0421 14.0741H13.6632V8.55168C13.6632 8.48387 13.6462 8.41934 13.6155 8.36079H13.7499C14.1836 8.36079 14.5445 8.00801 14.4475 7.58934C13.9425 5.40873 11.3123 3.87493 8.0564 3.7092C8.05652 3.70425 8.05659 3.69928 8.05659 3.6943V3.11099H9.69097C10.2331 3.11099 10.6726 2.67573 10.6726 2.13881V0.972185C10.6726 0.435262 10.2331 0 9.69097 0H7.86027ZM9.49465 1.94437H8.05659V1.16662H9.49465V1.94437ZM1.89875 7.19417H13.0364C12.7409 6.68354 12.2353 6.19868 11.5036 5.79375C10.4682 5.22072 9.06101 4.86092 7.46757 4.86092C5.87414 4.86092 4.46699 5.22072 3.43154 5.79375C2.69983 6.19868 2.19424 6.68354 1.89875 7.19417ZM10.8773 8.36079H12.5374C12.5067 8.41934 12.4897 8.48387 12.4897 8.55168V14.0741H10.925V8.55168C10.925 8.48387 10.908 8.41934 10.8773 8.36079ZM8.13908 8.36079H9.79917C9.76847 8.41934 9.75147 8.48387 9.75147 8.55168V14.0741H8.18678V8.55168C8.18678 8.48387 8.16978 8.41934 8.13908 8.36079ZM5.40088 8.36079H7.06097C7.03027 8.41934 7.01327 8.48387 7.01327 8.55168V14.0741H5.44858V8.55168C5.44858 8.48387 5.43158 8.41934 5.40088 8.36079ZM2.66268 8.36079H4.32276C4.29207 8.41934 4.27507 8.48387 4.27507 8.55168V14.0741H2.71038V8.55168C2.71038 8.48387 2.69338 8.41934 2.66268 8.36079Z" fill="url(#paint0_linear_1302_554)"/>
<defs>
<linearGradient id="paint0_linear_1302_554" x1="14.8" y1="4.34933e-06" x2="-0.946469" y2="1.55373" gradientUnits="userSpaceOnUse">
<stop stop-color="#5771FF"/>
<stop offset="1" stop-color="#465BCC"/>
</linearGradient>
</defs>
</svg>
