<svg width="32" height="32" viewBox="0 0 32 32" fill="none" xmlns="http://www.w3.org/2000/svg">
<rect width="32" height="32" rx="16" fill="url(#paint0_linear_881_21559)"/>
<path d="M26.9766 10.0249C26.948 9.98964 26.9007 9.97767 26.8603 9.99691C26.2624 10.2737 25.6333 10.4727 24.9854 10.5903C25.6733 10.0503 26.1858 9.30263 26.4486 8.44525C26.4613 8.40421 26.4482 8.35932 26.416 8.3326C26.3836 8.30588 26.3388 8.30246 26.3033 8.32448C25.5286 8.80394 24.6896 9.14188 23.8084 9.32935C23.0275 8.48373 21.9372 8 20.8087 8C18.5137 8 16.6468 9.94817 16.6468 12.3429C16.6468 12.6325 16.6736 12.9194 16.7269 13.1979C13.5482 12.9931 10.576 11.4006 8.555 8.81398C8.53431 8.78748 8.50297 8.77273 8.4702 8.77615C8.43763 8.77871 8.40854 8.79795 8.39215 8.82723C8.02344 9.48731 7.82864 10.2425 7.82864 11.0108C7.82864 12.3422 8.40834 13.5871 9.39546 14.4086C8.88725 14.3449 8.39093 14.178 7.94335 13.9187C7.91324 13.9009 7.87575 13.9012 7.84564 13.9193C7.81553 13.9373 7.79648 13.9706 7.79566 14.007L7.79525 14.0625C7.79525 15.9748 9.00278 17.6539 10.7208 18.2113C10.2683 18.2874 9.79879 18.2823 9.33729 18.1904C9.30328 18.1838 9.26764 18.1959 9.24429 18.2233C9.22114 18.2507 9.21336 18.2889 9.22401 18.3236C9.73918 20.0015 11.1706 21.1783 12.8368 21.3249C11.4469 22.3875 9.80411 22.9473 8.0683 22.9473C7.74855 22.9473 7.42654 22.9274 7.11109 22.8887C7.06602 22.8834 7.02137 22.9114 7.0058 22.9565C6.99023 23.002 7.00682 23.0529 7.04574 23.0788C8.92412 24.3359 11.096 25 13.3269 25C20.6244 25 24.985 18.8143 24.985 12.8343C24.985 12.6678 24.9819 12.5021 24.9756 12.3369C25.7628 11.736 26.4385 11.0005 26.9834 10.1491C27.0078 10.1111 27.0051 10.0604 26.9766 10.0249Z" fill="white"/>
<defs>
<linearGradient id="paint0_linear_881_21559" x1="32" y1="9.15648e-06" x2="-2.95372" y2="3.64054" gradientUnits="userSpaceOnUse">
<stop stop-color="#5771FF"/>
<stop offset="1" stop-color="#465BCC"/>
</linearGradient>
</defs>
</svg>
