<svg xmlns="http://www.w3.org/2000/svg" width="72" height="72" viewBox="0 0 72 72">
  <defs>
    <style>
      .cls-1 {
        fill-rule: evenodd;
      }
    </style>
  </defs>
  <path id="rotate" class="cls-1" d="M51.288,23.472h-5.64c0.515,0.668,1.314,1.133,1.848,1.8A17.131,17.131,0,0,1,50.64,30.96a25.551,25.551,0,0,1,.648,7.272,36.485,36.485,0,0,1-.24,7.008C49.635,51.656,45.6,55.927,39.36,57.5a31.733,31.733,0,0,1-7.008.36H20.712a6.346,6.346,0,0,1-.072,1.728,2.042,2.042,0,0,1-2.64,1.3,11.566,11.566,0,0,1-2.352-1.7l-5.016-3.768c-0.89-.654-2.066-1.168-2.3-2.472-0.268-1.469,1.39-2.285,2.136-2.832l5.112-3.84a13.305,13.305,0,0,1,2.352-1.728,2.043,2.043,0,0,1,2.712,1.272,6.645,6.645,0,0,1,.072,1.728h5.664l-0.072-.1a10.586,10.586,0,0,1-2.448-2.568,16.879,16.879,0,0,1-2.928-6.648,28.778,28.778,0,0,1-.216-5.616l0.024-5.184a17.706,17.706,0,0,1,1.8-6.192,15.811,15.811,0,0,1,9.648-7.632c2-.6,4.707-0.48,7.3-0.48H51.288a6.6,6.6,0,0,1,.048-1.632,2.046,2.046,0,0,1,2.712-1.368,12.547,12.547,0,0,1,2.328,1.7L61.392,15.6c0.881,0.647,2.044,1.159,2.28,2.448,0.268,1.463-1.348,2.265-2.088,2.808L56.472,24.7A13.7,13.7,0,0,1,54.1,26.448a2.048,2.048,0,0,1-2.76-1.344A6.81,6.81,0,0,1,51.288,23.472ZM54.7,16.584H36.984a14.907,14.907,0,0,0-3.048.168,11.907,11.907,0,0,0-7.8,5.184,8.918,8.918,0,0,0-1.512,3.216c0.566-.467,1-1.1,1.584-1.56a17.01,17.01,0,0,1,5.856-3.072c2.257-.677,5.436-0.5,8.352-0.5H54.7v1.728l4.584-3.432-0.048-.072L54.7,14.856v1.728ZM35.328,23.472l-1.152.12a13.9,13.9,0,0,0-2.352.624,12.082,12.082,0,0,0-.48,22.344,11.032,11.032,0,0,0,5.448.96,20.173,20.173,0,0,0,2.64-.48,11.941,11.941,0,0,0,7.56-6.912,12.859,12.859,0,0,0-.024-9.24C45.175,26.6,41.451,23.455,35.328,23.472Zm0.48,5.568c1.614-.011,2.562,1.578,3.408,2.424L40.824,33.1a4.225,4.225,0,0,1,1.56,2.064,2.045,2.045,0,0,1-.648,1.848l-3.48,3.5a3.712,3.712,0,0,1-1.992,1.44,2.133,2.133,0,0,1-1.992-.912l-4.224-4.248a2.129,2.129,0,0,1-.408-1.752A4.783,4.783,0,0,1,31.272,33l2.472-2.5a5.047,5.047,0,0,1,1.32-1.248Zm0.024,4.752a1.9,1.9,0,0,0-1.488,1.248A1.717,1.717,0,1,0,35.832,33.792ZM17.3,50.976V49.248L12.72,52.7v0.024l4.56,3.408H17.3l0.024-1.728H31.176c2.492,0,5.452.236,7.512-.288,4.007-1.02,7.739-4.24,8.688-8.256-0.647.481-1.132,1.2-1.776,1.7a16.769,16.769,0,0,1-5.64,2.9c-2.251.676-5.436,0.5-8.352,0.5H17.3Z"/>
</svg>
