<svg xmlns="http://www.w3.org/2000/svg" width="72" height="72" viewBox="0 0 72 72">
  <defs>
    <style>
      .cls-1 {
        fill-rule: evenodd;
      }
    </style>
  </defs>
  <path id="mob" class="cls-1" d="M28.248,16.008h11.04c1.717,0,4.138-.227,5.52.192a5.969,5.969,0,0,1,3.528,2.832c0.722,1.239.672,3.09,0.672,5.088V48.96a12.125,12.125,0,0,1-.072,2.232,5.771,5.771,0,0,1-3.384,4.344c-1.833.788-5.457,0.456-8.016,0.456h-6.48a17.932,17.932,0,0,1-3.336-.072,6.33,6.33,0,0,1-1.968-.744,5.877,5.877,0,0,1-2.568-3.432,19.43,19.43,0,0,1-.192-4.7V25.776c0-2.334-.15-4.906.552-6.5a5.7,5.7,0,0,1,3.144-2.9C27.158,16.185,27.736,16.215,28.248,16.008Zm0.192,3.5c-0.907.392-1.419,0.492-1.8,1.416-0.346.838-.144,3.315-0.144,4.488V46.752c0,1.414-.23,3.762.312,4.656,0.775,1.279,2.15,1.08,4.152,1.08H40.1c1.141,0,3.156.208,4.008-.144a2.337,2.337,0,0,0,1.32-1.488,7.819,7.819,0,0,0,.072-1.848V23.04a5.144,5.144,0,0,0-.312-2.448c-0.837-1.381-2.625-1.08-4.776-1.08H28.44ZM35.9,45.984a2.019,2.019,0,0,1,.192,4.032A2.039,2.039,0,0,1,34.1,47.3a2.1,2.1,0,0,1,1.2-1.2Z"/>
</svg>
