<svg xmlns="http://www.w3.org/2000/svg" width="72" height="72" viewBox="0 0 72 72">
  <defs>
    <style>
      .cls-1 {
        fill-rule: evenodd;
      }
    </style>
  </defs>
  <path id="delv" class="cls-1" d="M44.784,22.752h4.68a6.828,6.828,0,0,1,2.256.144c0.961,0.422,1.709,2.571,2.208,3.552l3.144,6.216,2.16,2.76a4.584,4.584,0,0,1,.96,1.392,10.982,10.982,0,0,1,.072,2.688v6.024c0,1.3.051,2.345-.672,2.9-0.829.641-3.826,0.367-5.3,0.36a6.32,6.32,0,0,1-7.8,4.224,6.14,6.14,0,0,1-4.272-4.224l-8.616.024c-0.438,2.578-4.074,5.161-7.512,4.272-1.979-.512-4.17-2.23-4.536-4.3h-2.52c-1.736,0-2.746-.106-3-1.56a1.535,1.535,0,0,1,.168-0.888c0.66-1.485,3.235-1.074,5.328-1.056,0.489-2.891,4.558-5.595,8.208-4.176a6.536,6.536,0,0,1,3.912,4.176h8.544a6.317,6.317,0,0,1,7.848-4.3,6.162,6.162,0,0,1,4.272,4.3h2.4V37.872l-2.04-2.616H45.288c-1.4,0-3,.186-3.624-0.6C41.1,33.94,41.232,32.49,41.232,31.2V23.256H18.768a4.957,4.957,0,0,1-1.632-.12,1.739,1.739,0,0,1-.96-0.984,1.541,1.541,0,0,1-.144-0.84,1.828,1.828,0,0,1,1.08-1.44,6.409,6.409,0,0,1,2.016-.12H38.256c1.444,0,4.988-.248,5.784.312C44.773,20.58,44.794,21.474,44.784,22.752ZM15.792,25.9H27.048c1.655,0,2.714-.175,3.36.888a1.629,1.629,0,0,1,.24,1.128c-0.3,1.624-1.812,1.488-3.744,1.488H18.888c-1.077,0-2.93.185-3.7-.168a1.823,1.823,0,0,1-.744-2.472A2.292,2.292,0,0,1,15.792,25.9Zm28.992,0.36v5.5h7.9l-2.808-5.5H44.784ZM13.3,31.8h11.28c1.637,0,2.85-.114,3.408.96a1.677,1.677,0,0,1,.192,1.056c-0.3,1.621-1.816,1.488-3.744,1.488H16.464a13.669,13.669,0,0,1-3.624-.12,1.819,1.819,0,0,1-.864-2.52A2.273,2.273,0,0,1,13.3,31.8Zm2.448,5.9h5.64a5.149,5.149,0,0,1,2.592.312,1.768,1.768,0,0,1,.7,1.824,1.811,1.811,0,0,1-.96,1.2,6.02,6.02,0,0,1-2.088.168H17.976c-1.045,0-2.332.123-2.976-.288a1.844,1.844,0,0,1-.12-2.856A4,4,0,0,1,15.744,37.7Zm11.52,6.552-0.7.168A2.831,2.831,0,0,0,24.912,46.2,2.762,2.762,0,1,0,27.264,44.256Zm20.688,0L47.3,44.4a2.845,2.845,0,0,0-1.728,1.824,2.783,2.783,0,0,0,2.9,3.528,2.849,2.849,0,0,0,2.352-1.7C51.73,45.941,49.965,44.232,47.952,44.256Z"/>
</svg>
