<svg xmlns="http://www.w3.org/2000/svg" width="72" height="72" viewBox="0 0 72 72">
  <defs>
    <style>
      .cls-1 {
        fill-rule: evenodd;
      }
    </style>
  </defs>
  <path id="wallet" class="cls-1" d="M52.416,24.768a4.6,4.6,0,0,1,4.656,4.08l0.024,4.56v13.44a12.127,12.127,0,0,1-.1,2.568,4.69,4.69,0,0,1-3.7,3.6,11.16,11.16,0,0,1-2.136.072H21.24a12.328,12.328,0,0,1-2.616-.1,4.766,4.766,0,0,1-2.76-1.8,5.3,5.3,0,0,1-.84-1.92,16.249,16.249,0,0,1-.072-3.192V25.9L15,24.024a4.689,4.689,0,0,1,3.576-3.864,13.362,13.362,0,0,1,2.88-.12h25.08a10.339,10.339,0,0,1,2.16.1A4.6,4.6,0,0,1,52.416,24.768ZM19.464,23.592a1.268,1.268,0,0,0-1.008,1.32,107.377,107.377,0,0,1,10.92-.144H48.912V24.7a1.3,1.3,0,0,0-.744-1.032,6.558,6.558,0,0,0-1.968-.072H19.464ZM19.416,28.32a1.619,1.619,0,0,0-.792.552c-0.344.566-.168,3.292-0.168,4.272v14.28a4.44,4.44,0,0,0,.072,1.368c0.328,0.824,1.2.744,2.352,0.744H51.288c1.023,0,1.784.061,2.16-.576a6.677,6.677,0,0,0,.144-2.52V31.7c0-1.1.2-2.655-.432-3.144-0.5-.382-1.712-0.24-2.568-0.24H19.416ZM47.736,36a2.291,2.291,0,1,1-1.968,1.7,2.36,2.36,0,0,1,1.32-1.536Z"/>
</svg>
