<svg xmlns="http://www.w3.org/2000/svg" width="72" height="72" viewBox="0 0 72 72">
  <defs>
    <style>
      .cls-1 {
        fill-rule: evenodd;
      }
    </style>
  </defs>
  <path id="percent" class="cls-1" d="M25.3,20.952c4.243-.063,7.682,3.771,5.832,8.064-0.9,2.086-2.61,3.1-5.184,3.528A4.537,4.537,0,0,1,23.28,31.9a5.759,5.759,0,0,1,.192-10.488l1.152-.36ZM47.28,22.728c1.347-.009,2.545,1.055,1.92,2.5a4.818,4.818,0,0,1-.864,1.008L46.152,28.68,30.912,45.048l-4.536,4.92a2.2,2.2,0,0,1-2.16-.072,2.025,2.025,0,0,1-.384-2.4l4.44-4.848L40.152,29.9,43.8,25.968l1.8-1.944a4.722,4.722,0,0,1,.96-1.032Zm-21.84,1.8-0.528.144a2.3,2.3,0,0,0-1.248,1.368c-0.452,1.418.792,3.175,2.256,2.928A2.234,2.234,0,1,0,25.44,24.528Zm21.144,15.96c4.514-.072,7.685,3.92,5.736,8.3-0.877,1.974-2.7,2.873-5.16,3.288a4.4,4.4,0,0,1-2.472-.6,5.775,5.775,0,0,1-3.12-7.008A5.929,5.929,0,0,1,44.88,40.9C45.4,40.677,46.026,40.708,46.584,40.488Zm0.288,3.552-0.552.12a2.341,2.341,0,0,0-1.368,1.464c-0.416,1.373.835,3.091,2.184,2.88a2.356,2.356,0,0,0,1.992-1.416A2.2,2.2,0,0,0,46.872,44.04Z"/>
</svg>
