<svg xmlns="http://www.w3.org/2000/svg" width="72" height="72" viewBox="0 0 72 72">
  <defs>
    <style>
      .cls-1 {
        fill-rule: evenodd;
      }
    </style>
  </defs>
  <path id="bomb" class="cls-1" d="M38.208,23.28c1.62-.018,2.626.117,2.88,1.44l0.024,1.848A14.645,14.645,0,0,1,46.3,28.9a17.338,17.338,0,0,1,7.44,10.536,15.846,15.846,0,0,1,.408,6.216,24.525,24.525,0,0,1-.528,2.688A17.774,17.774,0,0,1,45.24,58.944a18.662,18.662,0,0,1-6.36,2.136,10.763,10.763,0,0,1-3.144.168,32.506,32.506,0,0,1-4.32-.72,17.669,17.669,0,0,1-11.544-10.7,21.152,21.152,0,0,1-.936-3.576A16.461,16.461,0,0,1,19.2,39.7,17.447,17.447,0,0,1,26.664,28.92a17.784,17.784,0,0,1,4.056-1.992l1.176-.36c-0.035-2.748.111-3.322,2.9-3.288a11.056,11.056,0,0,1,.072-2.3,4.319,4.319,0,0,1,3.36-3.384c0.792-.184,1.924.12,2.76-0.1L41.4,16.56a22.4,22.4,0,0,1,1.632-2.88,5.933,5.933,0,0,1,1.056-1.536,1.86,1.86,0,0,1,1.608-.336,3.178,3.178,0,0,1,1.536,1.656,14.621,14.621,0,0,1,2.568,5.5,3.717,3.717,0,0,1-.456,2.184A4.6,4.6,0,0,1,43.8,23.568a4.694,4.694,0,0,1-2.4-1.776l-0.5-.912C38.342,20.841,38.168,20.673,38.208,23.28Zm6.984-6.672a9.561,9.561,0,0,0-1.2,2.52A1.184,1.184,0,0,0,45.36,20.4c1.664-.332.868-1.971,0.336-2.88ZM35.3,26.664a4.449,4.449,0,0,1-.264,2.16c-0.464.716-1.285,0.686-2.208,0.96l-1.92.648a14.342,14.342,0,0,0-4.536,3.024,15.275,15.275,0,0,0-3.432,5.376,16.18,16.18,0,0,0-.672,2.736,13.43,13.43,0,0,0,.408,5.88,14.4,14.4,0,0,0,6.984,8.688,14.974,14.974,0,0,0,5.64,1.68l1.368,0.072,1.512-.1a17.315,17.315,0,0,0,3.192-.744,14.218,14.218,0,0,0,8.88-9.384,13.561,13.561,0,0,0,.48-6.024,16.365,16.365,0,0,0-.672-2.784,17.682,17.682,0,0,0-2.88-4.824,13.5,13.5,0,0,0-5.208-3.648c-0.952-.4-3.4-0.73-3.912-1.416a3.968,3.968,0,0,1-.36-2.3H35.3Z"/>
</svg>
