<svg width="46" height="46" viewBox="0 0 46 46" fill="none" xmlns="http://www.w3.org/2000/svg">
<path fill-rule="evenodd" clip-rule="evenodd" d="M23 4.06272C12.5451 4.06272 4.06977 12.5186 4.06977 22.9495C4.06977 25.0276 4.40562 27.0251 5.0255 28.8924L9.77967 26.1539C10.1322 25.9508 10.5512 25.8958 10.9444 26.0009C11.3376 26.106 11.6728 26.3627 11.8764 26.7144L19.0391 39.0922C19.463 39.8246 19.2115 40.7612 18.4773 41.1841L13.1603 44.2468C10.4686 45.7973 7.02659 44.8772 5.47248 42.1916L2.40271 36.8868C1.31205 35.002 1.44163 32.7514 2.54333 31.0404C1.54705 28.535 1 25.8043 1 22.9495C1 10.8271 10.8497 1 23 1C35.1503 1 45 10.8271 45 22.9495C45 25.8043 44.4529 28.535 43.4567 31.0404C44.5584 32.7514 44.688 35.002 43.5973 36.8868L40.5275 42.1916C38.9734 44.8772 35.5314 45.7973 32.8397 44.2468L27.5227 41.1841C26.7885 40.7612 26.537 39.8246 26.9609 39.0922L34.1236 26.7144C34.5475 25.9819 35.4862 25.731 36.2203 26.1539L40.9745 28.8924C41.5944 27.0251 41.9302 25.0276 41.9302 22.9495C41.9302 12.5186 33.4549 4.06272 23 4.06272ZM9.9853 29.5719L5.99756 31.869C5.77628 31.9964 5.58331 32.1502 5.41882 32.3232C4.65849 33.1228 4.48241 34.3552 5.06121 35.3554L8.13098 40.6602C8.83739 41.8809 10.4019 42.2992 11.6255 41.5944L15.6132 39.2974L9.9853 29.5719ZM36.0147 29.5719L30.3868 39.2974L34.3745 41.5944C35.5981 42.2992 37.1626 41.8809 37.869 40.6602L40.9388 35.3554C41.5176 34.3552 41.3415 33.1228 40.5812 32.3232C40.4167 32.1502 40.2237 31.9964 40.0024 31.869L36.0147 29.5719Z" fill="url(#paint0_linear_1484_8937)" stroke="url(#paint1_linear_1484_8937)" stroke-linecap="round" stroke-linejoin="round"/>
<defs>
<linearGradient id="paint0_linear_1484_8937" x1="45" y1="1.00001" x2="-3.06137" y2="6.00574" gradientUnits="userSpaceOnUse">
<stop stop-color="#5771FF"/>
<stop offset="1" stop-color="#465BCC"/>
</linearGradient>
<linearGradient id="paint1_linear_1484_8937" x1="45" y1="1.00001" x2="-3.06137" y2="6.00574" gradientUnits="userSpaceOnUse">
<stop stop-color="#5771FF"/>
<stop offset="1" stop-color="#465BCC"/>
</linearGradient>
</defs>
</svg>
