<svg width="72" height="72" viewBox="0 0 72 72" fill="none" xmlns="http://www.w3.org/2000/svg">
<rect width="72" height="72" rx="10" fill="url(#paint0_linear_770_2776)" fill-opacity="0.1"/>
<path fill-rule="evenodd" clip-rule="evenodd" d="M36 17.9235C26.0203 17.9235 17.9302 25.995 17.9302 35.9518C17.9302 37.9354 18.2508 39.8421 18.8425 41.6245L23.3806 39.0105C23.7171 38.8167 24.117 38.7641 24.4923 38.8645C24.8677 38.9648 25.1877 39.2098 25.382 39.5455L32.2192 51.3607C32.6238 52.0599 32.3837 52.9539 31.6829 53.3575L26.6076 56.281C24.0382 57.7611 20.7527 56.8828 19.2692 54.3192L16.339 49.2556C15.2979 47.4565 15.4216 45.3082 16.4732 43.6749C15.5222 41.2834 15 38.6768 15 35.9518C15 24.3804 24.402 15 36 15C47.598 15 57 24.3804 57 35.9518C57 38.6768 56.4778 41.2834 55.5268 43.6749C56.5784 45.3082 56.7021 47.4565 55.661 49.2556L52.7308 54.3192C51.2473 56.8828 47.9618 57.7611 45.3924 56.281L40.3171 53.3575C39.6163 52.9539 39.3762 52.0599 39.7808 51.3607L46.618 39.5455C47.0226 38.8464 47.9187 38.6069 48.6194 39.0105L53.1575 41.6245C53.7492 39.8421 54.0698 37.9354 54.0698 35.9518C54.0698 25.995 45.9797 17.9235 36 17.9235ZM23.5769 42.2732L19.7704 44.4658C19.5592 44.5875 19.375 44.7343 19.218 44.8994C18.4922 45.6627 18.3241 46.8391 18.8766 47.7938L21.8068 52.8575C22.4811 54.0227 23.9746 54.422 25.1425 53.7492L28.949 51.5566L23.5769 42.2732ZM48.4231 42.2732L43.051 51.5566L46.8575 53.7492C48.0254 54.422 49.5189 54.0227 50.1932 52.8575L53.1234 47.7938C53.6759 46.8391 53.5078 45.6627 52.782 44.8994C52.625 44.7343 52.4408 44.5875 52.2296 44.4658L48.4231 42.2732Z" fill="url(#paint1_linear_770_2776)" stroke="url(#paint2_linear_770_2776)" stroke-linecap="round" stroke-linejoin="round"/>
<defs>
<linearGradient id="paint0_linear_770_2776" x1="72" y1="2.06021e-05" x2="-6.64587" y2="8.19122" gradientUnits="userSpaceOnUse">
<stop stop-color="#5771FF"/>
<stop offset="1" stop-color="#465BCC"/>
</linearGradient>
<linearGradient id="paint1_linear_770_2776" x1="57" y1="15" x2="11.1232" y2="19.7782" gradientUnits="userSpaceOnUse">
<stop stop-color="#5771FF"/>
<stop offset="1" stop-color="#465BCC"/>
</linearGradient>
<linearGradient id="paint2_linear_770_2776" x1="57" y1="15" x2="11.1232" y2="19.7782" gradientUnits="userSpaceOnUse">
<stop stop-color="#5771FF"/>
<stop offset="1" stop-color="#465BCC"/>
</linearGradient>
</defs>
</svg>
