<svg width="72" height="72" viewBox="0 0 72 72" fill="none" xmlns="http://www.w3.org/2000/svg">
<rect width="72" height="72" rx="10" fill="#5771FF" fill-opacity="0.1"/>
<path d="M46.5047 51.7995L46.5044 51.7997C46.2418 51.9872 45.5285 52.3851 44.6563 51.9312L46.5047 51.7995ZM46.5047 51.7995C46.7673 51.6107 47.3704 51.0616 47.2035 50.1002L46.1195 43.8588C45.7635 41.8073 46.4518 39.7146 47.962 38.2613L47.8926 38.1892L47.962 38.2613L52.5525 33.842L52.4831 33.77L52.5525 33.842C53.2589 33.1618 53.0978 32.367 52.9974 32.0618L52.9973 32.0616C52.8962 31.7564 52.5543 31.0206 51.5793 30.8805L51.565 30.9795L51.5792 30.8805L45.2348 29.9697C43.1479 29.6699 41.3454 28.3762 40.4127 26.509L40.4127 26.509L37.5748 20.8302C37.1382 19.9566 36.3243 19.8628 36.0002 19.8628C35.6762 19.8628 34.8615 19.9559 34.4249 20.8303L31.5877 26.509C30.6551 28.3755 28.8519 29.6698 26.7649 29.9691L26.7649 29.9691L20.4212 30.8799C19.4455 31.0199 19.1035 31.7557 19.003 32.0611C18.9026 32.3663 18.7408 33.1611 19.448 33.8414L24.0397 38.2612C25.5493 39.7152 26.2376 41.8079 25.8815 43.8588L24.7976 50.1002C24.6306 51.0616 25.2345 51.6114 25.4972 51.7996L25.4972 51.7996C25.7595 51.9873 26.474 52.3837 27.3454 51.9312L27.2994 51.8425L27.3454 51.9312L33.0198 48.9842C33.9535 48.4997 34.9775 48.2577 36.0009 48.2577C37.0243 48.2577 38.0482 48.4997 38.9812 48.9842L44.6562 51.9312L46.5047 51.7995ZM45.7841 26.2452L45.7841 26.2452L52.1285 27.1559C54.2426 27.4597 55.9642 28.8942 56.6235 30.8991C57.2828 32.9039 56.7434 35.0632 55.2142 36.5353L50.6224 40.9552L50.6917 41.0273L50.6224 40.9552C50.0108 41.5441 49.7323 42.3918 49.8764 43.2239L49.8764 43.2239L50.9603 49.4654L51.0588 49.4483L50.9603 49.4654C51.3214 51.5427 50.4729 53.603 48.7457 54.843C47.7686 55.544 46.6268 55.8995 45.4767 55.8995H45.4766C44.5913 55.9002 43.7024 55.6893 42.8802 55.2622L42.8341 55.3509L42.8802 55.2622L37.2051 52.3151L37.205 52.3151C36.45 51.9237 35.5484 51.9237 34.7934 52.3151L34.7933 52.3151L29.1189 55.2622C27.2291 56.2435 24.9813 56.0838 23.254 54.843L23.254 54.843C21.5262 53.6036 20.6783 51.5434 21.0388 49.4654L22.1227 43.224C22.1227 43.224 22.1227 43.2239 22.1227 43.2239C22.2675 42.3918 21.9882 41.5434 21.3767 40.9546L21.3767 40.9546L16.7862 36.5353L16.7862 36.5353C15.2563 35.0632 14.7169 32.9046 15.3769 30.8991C16.0368 28.8935 17.7585 27.4591 19.8725 27.1559L26.2163 26.2458L26.2163 26.2458C27.0607 26.1243 27.7912 25.6011 28.1692 24.8448L28.1692 24.8448L31.0064 19.1661C31.9514 17.2751 33.8644 16.1 36.0002 16.1C38.1367 16.1 40.049 17.2751 40.9941 19.1654L43.8319 24.8441C43.8319 24.8441 43.8319 24.8442 43.8319 24.8442C44.2099 25.6011 44.9397 26.1236 45.7841 26.2452Z" fill="#5771FF" stroke="#EEF0FF" stroke-width="0.2"/>
</svg>
