<svg xmlns="http://www.w3.org/2000/svg" width="72" height="72" viewBox="0 0 72 72">
  <defs>
    <style>
      .cls-1 {
        fill-rule: evenodd;
      }
    </style>
  </defs>
  <path id="heart" class="cls-1" d="M23.016,11.76a5.768,5.768,0,0,1,5.976,3.84c1.288,3.281-1.1,6.952-3.648,7.464v0.024c4.31-.1,7.174,1.465,9.072,3.84L35.4,28.2,36,29.136l0.048-.024a7.743,7.743,0,0,1,1.392-1.968,10.859,10.859,0,0,1,5.544-3.72,17.166,17.166,0,0,1,2.232-.36h1.44c-2.221-.433-4.607-3.519-3.888-6.6,0.573-2.457,3.123-5.384,6.6-4.656,2.836,0.593,5.78,3.415,4.7,7.248a6.2,6.2,0,0,1-.648,1.536,5.852,5.852,0,0,1-3.24,2.52l-1.224.24-0.48.024a8.6,8.6,0,0,1,3.384,1.464,11.938,11.938,0,0,1,4.92,6.84,19.364,19.364,0,0,1,.408,2.448,9.912,9.912,0,0,1-.072,3.144,14.226,14.226,0,0,1-.6,2.424,21.577,21.577,0,0,1-3.432,5.664l-1.68,1.824a14.37,14.37,0,0,1-2.088,2.088l-1.512,1.464L43.08,54.888l-3,2.592A8.329,8.329,0,0,1,38.3,58.824a7.188,7.188,0,0,1-1.728.432,4.074,4.074,0,0,1-2.64-.648,18.554,18.554,0,0,1-1.872-1.488l-3.48-2.9c-1.688-1.326-3.234-2.818-4.9-4.152A16.962,16.962,0,0,1,21.12,47.64c-0.555-.689-1.293-1.246-1.848-1.944A23.305,23.305,0,0,1,15.48,39.5a13.8,13.8,0,0,1-.264-7.824,11.417,11.417,0,0,1,6.216-7.56,8.634,8.634,0,0,1,2.088-.744V23.352a5.773,5.773,0,0,1-5.328-8.016,5.971,5.971,0,0,1,3.168-3.168C21.86,11.957,22.461,11.983,23.016,11.76ZM23.376,15l-0.672.144a2.692,2.692,0,0,0-1.584,1.7,2.541,2.541,0,0,0,2.544,3.264A2.56,2.56,0,1,0,23.376,15Zm24.912,0-0.6.12a2.712,2.712,0,0,0-1.656,1.752,2.542,2.542,0,0,0,2.544,3.24A2.56,2.56,0,1,0,48.288,15Zm-22.7,11.328-0.648.072-1.224.288a7.644,7.644,0,0,0-3.6,2.448,9.912,9.912,0,0,0-1.584,2.88,12.694,12.694,0,0,0-.432,1.872,7.791,7.791,0,0,0,0,2.472c0.684,3.731,2.134,5.194,4.056,7.584a28.312,28.312,0,0,0,4.32,4.176c0.411,0.329,1.012,1.162,1.9.816a1.145,1.145,0,0,0,.6-0.576c0.523-1.042-1.141-2.187-1.7-2.64a19.1,19.1,0,0,1-2.88-2.76c-1.156-1.436-2.487-2.617-3.288-4.44-0.293-.666-1.082-2.481-0.792-3.552l3.264,0.024c-0.061,2.932,2.866,5.426,4.392,6.936l1.512,1.392a0.745,0.745,0,0,0,.456.336l0.936-.456,1.68-.6,1.44-.336a3.471,3.471,0,0,1-1.248-.648,5.723,5.723,0,0,1-.072-9.456l0.96-.552C32.211,28.647,30,26.314,25.584,26.328Zm19.632,0-0.624.072-1.3.336a8.442,8.442,0,0,0-3.864,3.144A5.643,5.643,0,0,0,38.4,31.656c1.949,0.528,3.98,3.633,3.264,6.48a5.67,5.67,0,0,1-2.016,3.192,4.073,4.073,0,0,1-1.632.936l0.024,0.048a8.314,8.314,0,0,1,3.1.888l1.152,0.576L44.232,41.9a15.752,15.752,0,0,0,3.936-5.112l0.264-1.128,0.024-.7,3.264,0.024a8.7,8.7,0,0,1-1.968,5.568A31.417,31.417,0,0,1,44.9,45.768c-0.574.509-2.288,1.664-1.728,2.736a1.155,1.155,0,0,0,.6.576,1.661,1.661,0,0,0,1.656-.624c1.081-1.058,2.2-2.075,3.264-3.144a17.828,17.828,0,0,0,4.968-7.464,10.537,10.537,0,0,0-.24-5.9C52.127,28.6,49.88,26.313,45.216,26.328ZM35.9,34.368l-0.7.12A2.58,2.58,0,0,0,33.6,36.072,2.515,2.515,0,1,0,35.9,34.368ZM35.856,45.384l-1.056.072a7.135,7.135,0,0,0-2.736.816,4.662,4.662,0,0,1-.816,4.536l-0.816.7,0.1,0.12,3.888,3.216a4.757,4.757,0,0,0,1.512,1.128,1.8,1.8,0,0,0,1.776-.744l4.08-3.528-0.024-.048A2.39,2.39,0,0,1,40.9,50.9,4.5,4.5,0,0,1,40.1,46.32l-0.888-.384A9.561,9.561,0,0,0,35.856,45.384Z"/>
</svg>
