<svg width="44" height="44" viewBox="0 0 44 44" fill="none" xmlns="http://www.w3.org/2000/svg">
<path fill-rule="evenodd" clip-rule="evenodd" d="M22 3.9235C12.0203 3.9235 3.93023 11.995 3.93023 21.9518C3.93023 23.9354 4.25082 25.8421 4.84252 27.6245L9.38059 25.0105C9.7171 24.8167 10.117 24.7641 10.4923 24.8645C10.8677 24.9648 11.1877 25.2098 11.382 25.5455L18.2192 37.3607C18.6238 38.0599 18.3837 38.9539 17.6829 39.3575L12.6076 42.281C10.0382 43.7611 6.75265 42.8828 5.26919 40.3192L2.33896 35.2556C1.29786 33.4565 1.42155 31.3082 2.47318 29.6749C1.52218 27.2834 1 24.6768 1 21.9518C1 10.3804 10.402 1 22 1C33.598 1 43 10.3804 43 21.9518C43 24.6768 42.4778 27.2834 41.5268 29.6749C42.5784 31.3082 42.7021 33.4565 41.661 35.2556L38.7308 40.3192C37.2473 42.8828 33.9618 43.7611 31.3924 42.281L26.3171 39.3575C25.6163 38.9539 25.3762 38.0599 25.7808 37.3607L32.618 25.5455C33.0226 24.8464 33.9187 24.6069 34.6194 25.0105L39.1575 27.6245C39.7492 25.8421 40.0698 23.9354 40.0698 21.9518C40.0698 11.995 31.9797 3.9235 22 3.9235ZM9.57688 28.2732L5.77039 30.4658C5.55917 30.5875 5.37498 30.7343 5.21796 30.8994C4.49219 31.6627 4.32412 32.8391 4.87661 33.7938L7.80684 38.8575C8.48114 40.0227 9.97456 40.422 11.1425 39.7492L14.949 37.5566L9.57688 28.2732ZM34.4231 28.2732L29.051 37.5566L32.8575 39.7492C34.0254 40.422 35.5189 40.0227 36.1932 38.8575L39.1234 33.7938C39.6759 32.8391 39.5078 31.6627 38.782 30.8994C38.625 30.7343 38.4408 30.5875 38.2296 30.4658L34.4231 28.2732Z" fill="url(#paint0_linear_770_2777)" stroke="url(#paint1_linear_770_2777)" stroke-linecap="round" stroke-linejoin="round"/>
<defs>
<linearGradient id="paint0_linear_770_2777" x1="43" y1="1.00001" x2="-2.87676" y2="5.77821" gradientUnits="userSpaceOnUse">
<stop stop-color="#5771FF"/>
<stop offset="1" stop-color="#465BCC"/>
</linearGradient>
<linearGradient id="paint1_linear_770_2777" x1="43" y1="1.00001" x2="-2.87676" y2="5.77821" gradientUnits="userSpaceOnUse">
<stop stop-color="#5771FF"/>
<stop offset="1" stop-color="#465BCC"/>
</linearGradient>
</defs>
</svg>
