<svg width="72" height="72" viewBox="0 0 72 72" fill="none" xmlns="http://www.w3.org/2000/svg">
<rect width="72" height="72" rx="10" fill="url(#paint0_linear_770_2794)" fill-opacity="0.1"/>
<path fill-rule="evenodd" clip-rule="evenodd" d="M44.5021 29.581C45.166 30.3558 45.166 31.6118 44.5021 32.3865L36.7176 41.4705C36.7069 41.483 36.6961 41.4957 36.6852 41.5083C36.4895 41.7369 36.2772 41.9846 36.0785 42.1815C35.8535 42.4044 35.5367 42.676 35.1088 42.8382C34.5398 43.0539 33.9268 43.0539 33.3577 42.8382C32.9299 42.676 32.6131 42.4044 32.3881 42.1815C32.1894 41.9846 31.9771 41.7369 31.7814 41.5083C31.7705 41.4957 31.7597 41.483 31.749 41.4705L28.4979 37.6767C27.834 36.902 27.834 35.6459 28.4979 34.8712C29.1618 34.0965 30.2382 34.0965 30.9021 34.8712L34.1532 38.665C34.1814 38.698 34.2081 38.7291 34.2333 38.7585C34.2585 38.7291 34.2852 38.698 34.3134 38.665L42.0979 29.581C42.7618 28.8063 43.8382 28.8063 44.5021 29.581Z" fill="url(#paint1_linear_770_2794)"/>
<path d="M55 20.6757C48.2939 20.6757 39.3529 17.7242 36 15C32.6471 17.7242 23.7057 20.6757 17 20.6757C17 47.9189 27.0588 54.7297 36 57C44.9412 54.7297 55 47.9189 55 20.6757Z" stroke="url(#paint2_linear_770_2794)" stroke-width="4" stroke-linecap="round" stroke-linejoin="round"/>
<defs>
<linearGradient id="paint0_linear_770_2794" x1="72" y1="2.06021e-05" x2="-6.64587" y2="8.19122" gradientUnits="userSpaceOnUse">
<stop stop-color="#5771FF"/>
<stop offset="1" stop-color="#465BCC"/>
</linearGradient>
<linearGradient id="paint1_linear_770_2794" x1="45" y1="29" x2="26.5249" y2="31.3366" gradientUnits="userSpaceOnUse">
<stop stop-color="#5771FF"/>
<stop offset="1" stop-color="#465BCC"/>
</linearGradient>
<linearGradient id="paint2_linear_770_2794" x1="55" y1="15" x2="13.4115" y2="18.919" gradientUnits="userSpaceOnUse">
<stop stop-color="#5771FF"/>
<stop offset="1" stop-color="#465BCC"/>
</linearGradient>
</defs>
</svg>
