<svg width="42" height="40" viewBox="0 0 42 40" fill="none" xmlns="http://www.w3.org/2000/svg">
<path d="M31.5047 35.7995L31.5044 35.7997C31.2418 35.9872 30.5285 36.3851 29.6563 35.9312L31.5047 35.7995ZM31.5047 35.7995C31.7673 35.6107 32.3704 35.0616 32.2035 34.1002L31.1195 27.8588C30.7635 25.8073 31.4518 23.7146 32.962 22.2613L32.8926 22.1892L32.962 22.2613L37.5525 17.842L37.4831 17.77L37.5525 17.842C38.2589 17.1618 38.0978 16.367 37.9974 16.0618L37.9973 16.0616C37.8962 15.7564 37.5543 15.0206 36.5793 14.8805L36.565 14.9795L36.5792 14.8805L30.2348 13.9697C28.1479 13.6699 26.3454 12.3762 25.4127 10.509L25.4127 10.509L22.5748 4.83024C22.1382 3.95661 21.3243 3.86283 21.0002 3.86283C20.6762 3.86283 19.8615 3.95589 19.4249 4.83027L16.5877 10.509C15.6551 12.3755 13.8519 13.6698 11.7649 13.9691L11.7649 13.9691L5.42116 14.8799C4.44548 15.0199 4.10352 15.7557 4.00303 16.0611C3.90263 16.3663 3.74077 17.1611 4.44795 17.8414L9.03972 22.2612C10.5493 23.7152 11.2376 25.8079 10.8815 27.8588L9.7976 34.1002C9.63064 35.0616 10.2345 35.6114 10.4972 35.7996L10.4972 35.7996C10.7595 35.9873 11.474 36.3837 12.3454 35.9312L12.2994 35.8425L12.3454 35.9312L18.0198 32.9842C18.9535 32.4997 19.9775 32.2577 21.0009 32.2577C22.0243 32.2577 23.0482 32.4997 23.9812 32.9842L29.6562 35.9312L31.5047 35.7995ZM30.7841 10.2452L30.7841 10.2452L37.1285 11.1559C39.2426 11.4597 40.9642 12.8942 41.6235 14.8991C42.2828 16.9039 41.7434 19.0632 40.2142 20.5353L35.6224 24.9552L35.6917 25.0273L35.6224 24.9552C35.0108 25.5441 34.7323 26.3918 34.8764 27.2239L34.8764 27.2239L35.9603 33.4654L36.0588 33.4483L35.9603 33.4654C36.3214 35.5427 35.4729 37.603 33.7457 38.843C32.7686 39.544 31.6268 39.8995 30.4767 39.8995H30.4766C29.5913 39.9002 28.7024 39.6893 27.8802 39.2622L27.8341 39.3509L27.8802 39.2622L22.2051 36.3151L22.205 36.3151C21.45 35.9237 20.5484 35.9237 19.7934 36.3151L19.7933 36.3151L14.1189 39.2622C12.2291 40.2435 9.98127 40.0838 8.25402 38.843L8.25397 38.843C6.52621 37.6036 5.67827 35.5434 6.03875 33.4654L7.12267 27.224C7.12268 27.224 7.12268 27.2239 7.12268 27.2239C7.26749 26.3918 6.98819 25.5434 6.3767 24.9546L6.37669 24.9546L1.78621 20.5353L1.78619 20.5353C0.256349 19.0632 -0.283068 16.9046 0.376861 14.8991C1.03685 12.8935 2.75847 11.4591 4.8725 11.1559L11.2163 10.2458L11.2163 10.2458C12.0607 10.1243 12.7912 9.60108 13.1692 8.84483L13.1692 8.84482L16.0064 3.1661C16.9514 1.27512 18.8644 0.1 21.0002 0.1C23.1367 0.1 25.049 1.27512 25.9941 3.16545L28.8319 8.84414C28.8319 8.84415 28.8319 8.84416 28.8319 8.84417C29.2099 9.60109 29.9397 10.1236 30.7841 10.2452Z" fill="#5771FF" stroke="#EEF0FF" stroke-width="0.2"/>
</svg>
