<svg xmlns="http://www.w3.org/2000/svg" width="72" height="72" viewBox="0 0 72 72">
  <defs>
    <style>
      .cls-1 {
        fill-rule: evenodd;
      }
    </style>
  </defs>
  <path id="Заливка_цветом_2" data-name="Заливка цветом 2" class="cls-1" d="M35.088,23.688C43.925,23.546,49.152,27.68,54,31.56A22,22,0,0,1,57.384,34.9a1.417,1.417,0,0,1,.48,1.656l-0.96,1.08a22.29,22.29,0,0,1-3.576,3.384c-3.62,2.841-7.285,5.38-12.48,6.7a20.546,20.546,0,0,1-8.5.288,30.616,30.616,0,0,1-12.36-5.9A25.183,25.183,0,0,1,15.5,38.088a6,6,0,0,1-1.488-1.776,1.618,1.618,0,0,1,.72-1.584,29.031,29.031,0,0,1,3.048-3c0.987-.79,1.911-1.68,2.952-2.424a35.786,35.786,0,0,1,7.968-4.32,25.493,25.493,0,0,1,4.224-1.08Zm0.24,2.544-1.944.192a20.48,20.48,0,0,0-3.336.84,33.692,33.692,0,0,0-7.536,4.08c-0.774.552-1.471,1.214-2.208,1.8A17.836,17.836,0,0,0,17.3,36l0.144,0.144a6.126,6.126,0,0,0,1.3,1.3l1.1,1.056c0.917,0.735,1.791,1.493,2.76,2.184a27.807,27.807,0,0,0,9.648,4.68c7.659,1.933,14.388-2.581,18.432-5.688,0.877-.674,1.624-1.477,2.472-2.16A8.787,8.787,0,0,0,54.672,36a8.518,8.518,0,0,0-1.416-1.416c-1.025-.826-1.931-1.785-3-2.592C46.358,29.049,42.14,26.228,35.328,26.232Zm0.384,2.112a8.585,8.585,0,0,1,8.232,4.584,7.175,7.175,0,0,1,.168,5.856,8.393,8.393,0,0,1-5.544,4.536,19.664,19.664,0,0,1-2.3.336,8.487,8.487,0,0,1-3.456-.552c-3.322-1.176-7.023-4.973-5.016-9.72a8.349,8.349,0,0,1,5.448-4.656l1.728-.336Zm-0.24,2.568c-0.565.216-1.273,0.191-1.824,0.408A5.5,5.5,0,0,0,30.5,34.3c-1.393,3.393,1.46,5.948,3.912,6.624a6.223,6.223,0,0,0,6.816-2.712,4.937,4.937,0,0,0,.048-4.272C40.276,31.992,38.449,30.9,35.472,30.912Z"/>
</svg>
