<svg xmlns="http://www.w3.org/2000/svg" width="72" height="72" viewBox="0 0 72 72">
  <defs>
    <style>
      .cls-1 {
        fill-rule: evenodd;
      }
    </style>
  </defs>
  <path id="bag" class="cls-1" d="M44.64,24.048a25.348,25.348,0,0,1,4.8.1A5.615,5.615,0,0,1,51.7,25.32c1.622,1.306,1.35,3.39,1.776,5.88l1.44,13.176,0.6,5.808a9.114,9.114,0,0,1,.1,3.7,4.783,4.783,0,0,1-3.792,3.456,14.142,14.142,0,0,1-2.544.048H25.7c-4.623,0-7.653.474-9.1-2.88a9,9,0,0,1-.1-4.536l0.24-2.472,1.7-15.624c0.486-2.9.123-5.212,2.04-6.72,1.726-1.358,3.842-1.112,6.864-1.1a21.505,21.505,0,0,1,.168-5.04A8.834,8.834,0,0,1,38.736,13.3a9.217,9.217,0,0,1,2.832,1.416,7.85,7.85,0,0,1,3.024,4.9l0.048,1.584v2.856Zm-13.824,0H41.184c0.014-1.922.178-4.134-.552-5.3a5.835,5.835,0,0,0-7.488-1.632,4.3,4.3,0,0,0-1.2.888,5.162,5.162,0,0,0-1.032,1.752A20.722,20.722,0,0,0,30.816,24.048ZM44.64,27.624c0.026,1.8.225,3.158-1.08,3.7a1.5,1.5,0,0,1-.816.144c-1.709-.292-1.585-1.829-1.56-3.84H30.816c0.025,1.722.158,3.15-1.032,3.672a1.51,1.51,0,0,1-.864.168c-1.78-.3-1.586-1.794-1.56-3.84-1.257,0-4.175-.266-4.7.408-0.579.738-.554,4.174-0.768,5.448L20.376,47.328l-0.408,4.008a3.522,3.522,0,0,0-.024,1.848c0.354,0.7,1.2.624,2.256,0.624H51.216c0.954-.2,1.049-1.147.864-2.232l-0.624-5.832-1.44-13.176c-0.194-1.146-.108-4.12-0.792-4.656S45.862,27.615,44.64,27.624Z"/>
</svg>
