<svg xmlns="http://www.w3.org/2000/svg" width="72" height="72" viewBox="0 0 72 72">
  <defs>
    <style>
      .cls-1 {
        fill-rule: evenodd;
      }
    </style>
  </defs>
  <path id="car" class="cls-1" d="M26.424,17.5h13.92c1.864,0,5.1-.269,6.456.264,1.789,0.7,2.354,2.169,3.192,3.816l1.656,3.312L54.576,30.7c0.945,1.347,2.455,2.256,3,3.984a13.657,13.657,0,0,1,.192,3.552v3.816a13.166,13.166,0,0,1-.144,2.664h0.12c-0.309.438-.482,1.028-0.792,1.464A6.145,6.145,0,0,0,55.7,47.784c-0.261.829,0.031,2.025-.144,2.976a4.9,4.9,0,0,1-1.032,2.256c-0.982,1.229-2.422,1.488-4.68,1.488a6.577,6.577,0,0,1-2.256-.24,4.52,4.52,0,0,1-2.064-1.536,5.285,5.285,0,0,1-.84-2.448c-0.115-.758.06-1.641-0.072-2.3H28.536a2.934,2.934,0,0,0-1.152.048,11.869,11.869,0,0,0-.072,2.256,5.536,5.536,0,0,1-.576,2.04A4.459,4.459,0,0,1,23.9,54.408a8.685,8.685,0,0,1-1.92.1c-2.3,0-3.656-.358-4.632-1.632a4.935,4.935,0,0,1-.936-2.328c-0.138-.85.106-1.809-0.072-2.568a5.1,5.1,0,0,0-1.3-1.8c-0.31-.435-0.477-1.031-0.792-1.464,0.054-.015-0.024-1.876-0.024-2.4v-4.68a10.986,10.986,0,0,1,.192-2.952c0.565-1.787,2.157-2.607,3.048-4.056L21.7,22.176c0.69-1.351,1.222-2.95,2.4-3.816a4.912,4.912,0,0,1,1.56-.744ZM26.5,20.784l-0.432.192a13,13,0,0,0-1.512,2.832L20.64,31.632H51.36V31.608L47.5,23.9c-0.331-.649-1.129-2.665-1.632-2.976a3.828,3.828,0,0,0-1.632-.144H26.5ZM18.408,34.92a1.444,1.444,0,0,0-.792.576,5.57,5.57,0,0,0-.1,1.92V41.9c0,0.938-.159,2.16.384,2.568a4.6,4.6,0,0,0,2.208.216H52.128c1.179,0,2.147.111,2.352-.864V37.56a4.355,4.355,0,0,0-.264-2.3c-0.4-.481-1.56-0.336-2.424-0.336H18.408ZM22.8,38.16a2.2,2.2,0,1,1-1.9,1.368,2.283,2.283,0,0,1,1.176-1.2Zm26.112,0a2.2,2.2,0,1,1-1.9,1.368,2.283,2.283,0,0,1,1.176-1.2Zm-24.84,9.816h-4.44V48c0.259,1.037-.257,2.483.48,3.024a2.628,2.628,0,0,0,1.416.192,5.565,5.565,0,0,0,1.92-.1C24.25,50.713,24.013,49.095,24.072,47.976Zm23.856,0c0.056,1.117-.176,2.739.624,3.144a5.575,5.575,0,0,0,1.92.1,2.621,2.621,0,0,0,1.416-.192c0.7-.515.3-2.014,0.48-3.048h-4.44Z"/>
</svg>
