<svg xmlns="http://www.w3.org/2000/svg" width="72" height="72" viewBox="0 0 72 72">
  <defs>
    <style>
      .cls-1 {
        fill-rule: evenodd;
      }
    </style>
  </defs>
  <path id="Заливка_цветом_2" data-name="Заливка цветом 2" class="cls-1" d="M37.32,46.92v4.416c1.019-.013,3.227-0.2,3.864.192a1.437,1.437,0,0,1,.144,2.232,4.846,4.846,0,0,1-2.5.288H33c-1,0-2.121.123-2.568-.432l-0.288-.5c-0.7-2.228,2.672-1.8,4.464-1.776V46.92H26.4a19.8,19.8,0,0,1-5.232-.36A6.721,6.721,0,0,1,17.3,43.272c-1.059-1.841-.744-5.366-0.744-8.184v-7.56a18.541,18.541,0,0,1,.312-4.776A6.484,6.484,0,0,1,20.424,18.6c2.161-.942,5.825-0.648,8.856-0.648H43.512c5.095,0,8.386-.281,10.56,2.784,1.439,2.029,1.3,5.129,1.3,8.592l-0.024,7.848a22.851,22.851,0,0,1-.336,5.088,6.567,6.567,0,0,1-2.544,3.456c-1.625,1.142-4.04,1.2-6.864,1.2H37.32ZM24.768,20.664l-1.992.1a3.944,3.944,0,0,0-2.736,1.56c-0.869,1.193-.768,3.353-0.768,5.424V37.1c0,2.6-.127,4.335,1.056,5.808,1.118,1.392,3.475,1.3,6,1.3H46.1a14.3,14.3,0,0,0,3.936-.264,3.806,3.806,0,0,0,1.752-1.272c1.26-1.652.864-5.868,0.864-8.76L52.632,26.64V25.392a8.882,8.882,0,0,0-.24-2.064,3.535,3.535,0,0,0-1.056-1.608A4.206,4.206,0,0,0,49.92,20.9a23.226,23.226,0,0,0-2.784-.216l-3.888-.024H24.768Z"/>
</svg>
