<svg xmlns="http://www.w3.org/2000/svg" width="72" height="72" viewBox="0 0 72 72">
  <defs>
    <style>
      .cls-1 {
        fill-rule: evenodd;
      }
    </style>
  </defs>
  <path id="crash" class="cls-1" d="M35.712,14.76a1.866,1.866,0,0,1,1.656.624c0.494,0.639.384,1.881,0.384,3.024v3.168a5.028,5.028,0,0,1-.1,1.536,1.815,1.815,0,0,1-1.368,1.128,1.712,1.712,0,0,1-.912-0.12,1.731,1.731,0,0,1-.984-0.888c-0.351-.8-0.144-3.431-0.144-4.584a9.014,9.014,0,0,1,.144-2.88A2.1,2.1,0,0,1,35.712,14.76Zm-34.488,3h6.6a19.8,19.8,0,0,1,3.48.072,8.529,8.529,0,0,1,2.784,1.008c2.022,1.233,3.007,3.268,4.224,5.3l2.64,4.344c0.642,1.051,1.192,2.462,2.136,3.216a4.886,4.886,0,0,0,2.352,1.032,22.832,22.832,0,0,1,2.328.24,7.546,7.546,0,0,1,4.416,3.288c1.22,1.96,1.08,4.623,1.08,7.824a14.482,14.482,0,0,1-.192,3.744,4.876,4.876,0,0,1-2.088,2.736c-1.255.77-3.206,0.7-5.28,0.7H21.048v0.048c-0.249.5-.338,1.076-0.552,1.56A7.461,7.461,0,0,1,16.872,56.5a10.515,10.515,0,0,1-2.016.648,7.4,7.4,0,0,1-2.832-.048,7.579,7.579,0,0,1-6.072-5.832C4.217,51.279.407,51.641,0,50.424V48.576c0.407-1.206,4.235-.828,5.952-0.816,0.518-3.575,5.018-7.148,9.648-5.736,2.528,0.771,5.006,2.928,5.448,5.736h5.688a6.022,6.022,0,0,0,2.4-.168c0.744-.452.624-1.54,0.624-2.736,0-2.39.327-5.505-.672-6.936a3.982,3.982,0,0,0-2.328-1.584C25.84,36.108,24.73,36.244,23.9,36a7.918,7.918,0,0,1-4.1-2.688A31.5,31.5,0,0,1,18.072,30.5l-3.024-4.992c-0.787-1.289-1.409-2.826-2.688-3.624a4.808,4.808,0,0,0-1.608-.6l-6.984-.024a9.876,9.876,0,0,1-2.9-.12C0.113,20.851,0,20.445,0,19.368V18.576A1.894,1.894,0,0,1,1.224,17.76Zm60.072,0h7.848c1.218,0,2.563-.081,2.856.816v1.848c-0.317.958-1.87,0.84-3.168,0.84H63.816a10.3,10.3,0,0,0-3.576.312c-1.664.712-2.317,2.342-3.216,3.816l-3,4.944a30.815,30.815,0,0,1-2.088,3.288,7.674,7.674,0,0,1-4.128,2.448c-0.654.162-1.373,0.067-2.136,0.192a4.323,4.323,0,0,0-1.92.768c-1.927,1.417-1.488,4.092-1.488,7.32,0,1.1-.2,2.63.432,3.12a4.787,4.787,0,0,0,2.472.288h5.784c0.518-3.575,5.018-7.148,9.648-5.736,2.528,0.771,5.006,2.928,5.448,5.736,1.713-.015,5.549-0.387,5.952.816v1.848c-0.412,1.221-4.212.852-5.952,0.84v0.048c-0.249.5-.338,1.076-0.552,1.56A7.461,7.461,0,0,1,61.872,56.5a10.515,10.515,0,0,1-2.016.648,7.4,7.4,0,0,1-2.832-.048,7.579,7.579,0,0,1-6.072-5.832H47.064a24.989,24.989,0,0,1-4.392-.072,4.788,4.788,0,0,1-3.792-3.528,13.142,13.142,0,0,1-.12-3.168V41.52a11,11,0,0,1,.624-4.44,7.39,7.39,0,0,1,4.848-4.1,23.358,23.358,0,0,1,2.328-.24,4.846,4.846,0,0,0,2.208-.912c1.054-.808,1.648-2.3,2.352-3.456l2.928-4.824a29.94,29.94,0,0,1,2.016-3.168,7.658,7.658,0,0,1,3.672-2.328Zm-36.072,3a2.139,2.139,0,0,1,1.2.24l2.208,2.184L30,24.576a1.875,1.875,0,0,1-.528,2.4,2.009,2.009,0,0,1-1.944,0l-2.52-2.5a4.483,4.483,0,0,1-1.128-1.272,1.835,1.835,0,0,1,.816-2.28Zm21,0c1.3-.024,2.47.981,1.92,2.376a4.249,4.249,0,0,1-1.128,1.32l-1.7,1.7a5.073,5.073,0,0,1-.96.888,2.025,2.025,0,0,1-1.7,0,1.842,1.842,0,0,1-.7-2.4,9.986,9.986,0,0,1,1.7-1.776L45.432,21.1A4.61,4.61,0,0,1,46.224,20.76Zm-45,12H8.352c0.942,0,2.368-.174,3,0.192a1.745,1.745,0,0,1,.888,1.824,1.8,1.8,0,0,1-.984,1.32,7.3,7.3,0,0,1-2.448.168H3.816c-1.1,0-2.608.165-3.288-.288A1.552,1.552,0,0,1,0,35.424V33.576A1.892,1.892,0,0,1,1.224,32.76Zm60,0H68.9c1.355,0,2.6-.109,3.072.768L72,35.424c-0.344,1.04-2.2.84-3.6,0.84H63.264a7.525,7.525,0,0,1-2.52-.168,1.83,1.83,0,0,1-.792-2.448A2.245,2.245,0,0,1,61.224,32.76Zm-48.192,12.5-1.08.264a4.329,4.329,0,0,0-2.5,2.616,4.265,4.265,0,1,0,5.4-2.688A5.533,5.533,0,0,0,13.032,45.264Zm45,0-1.08.264a4.329,4.329,0,0,0-2.5,2.616,4.265,4.265,0,1,0,5.4-2.688A5.533,5.533,0,0,0,58.032,45.264Z"/>
</svg>
