<svg xmlns="http://www.w3.org/2000/svg" width="72" height="72" viewBox="0 0 72 72">
  <defs>
    <style>
      .cls-1 {
        fill-rule: evenodd;
      }
    </style>
  </defs>
  <path id="wallet" class="cls-1" d="M53.112,20.9c2.554-.022,4.036.442,5.112,1.848,1.386,1.811,1.032,4.762,1.032,7.9v18.36a10.87,10.87,0,0,1-.144,2.592,4.857,4.857,0,0,1-3.792,3.576,11.9,11.9,0,0,1-2.256.072H19.488a13.987,13.987,0,0,1-2.928-.1,4.918,4.918,0,0,1-2.688-1.632,5.393,5.393,0,0,1-.984-1.92,16.543,16.543,0,0,1-.144-3.768V27.408c0-2.341-.237-5.191.336-7.032,0.989-3.181,3.342-5.054,6.984-5.616H46.848a12.529,12.529,0,0,1,2.256.048,5.262,5.262,0,0,1,1.992.84C52.67,16.763,53.12,18.184,53.112,20.9Zm-3.552,0c0.01-.945.069-1.873-0.456-2.28a3.626,3.626,0,0,0-2.04-.288H20.256a4.368,4.368,0,0,0-3.864,3.48A10.3,10.3,0,0,0,16.32,23.9V48.648c0,0.889-.122,2.03.264,2.544,0.442,0.588,1.463.48,2.5,0.48H52.8a4.791,4.791,0,0,0,2.4-.264c0.517-.389.48-1.12,0.48-2.04V25.584c-0.229-1.2-1.326-1.1-2.76-1.1H23.3a5.775,5.775,0,0,1-1.728-.1,1.87,1.87,0,0,1-1.1-1.2,1.8,1.8,0,0,1,1.176-2.208,6.508,6.508,0,0,1,1.68-.072H49.56Z"/>
</svg>
