<svg xmlns="http://www.w3.org/2000/svg" width="72" height="72" viewBox="0 0 72 72">
  <defs>
    <style>
      .cls-1 {
        fill-rule: evenodd;
      }
    </style>
  </defs>
  <path id="phone" class="cls-1" d="M23.712,16.344a4.179,4.179,0,0,1,2.856,1.128,16.643,16.643,0,0,1,2.688,2.664L30.72,21.6a12.58,12.58,0,0,1,1.464,2.208,6.438,6.438,0,0,1,.744,3.24,7.432,7.432,0,0,1-.936,3c-0.491.779-2.176,1.841-1.656,3.168l0.528,0.936a23.487,23.487,0,0,0,2.664,2.9l1.728,1.7c0.958,0.772,1.713,1.865,3,2.3,1.113,0.38,1.747-.683,2.3-1.128a5.817,5.817,0,0,1,4.824-1.44,9.537,9.537,0,0,1,4.368,2.136L51.24,42.12a14.269,14.269,0,0,1,2.112,2.064c0.624,0.775,1.925,1.96,1.656,3.552a8.964,8.964,0,0,1-3.36,4.992c-3.708,2.844-9.775,2.459-14.112.48a37.173,37.173,0,0,1-7.176-4.272c-1.1-.831-2.035-1.858-3.1-2.712a16.86,16.86,0,0,1-2.472-2.5c-0.592-.735-1.312-1.386-1.9-2.136a33.848,33.848,0,0,1-4.824-7.9,24.442,24.442,0,0,1-1.224-4.032c-1.4-6.27,1.431-10.653,5.136-12.816l1.056-.408Zm0.024,3A7.736,7.736,0,0,0,20.3,22.7c-1.438,3.283-.485,7.6.72,10.368a32.362,32.362,0,0,0,4.608,7.152c0.634,0.8,1.451,1.466,2.088,2.256a15.366,15.366,0,0,0,2.3,2.232l1.8,1.584A29.805,29.805,0,0,0,38.4,50.352c3.333,1.436,8.511,2.324,11.544-.1,0.43-.343,2.162-2.148,2.088-2.808a4.539,4.539,0,0,0-1.416-1.8c-1.4-1.4-2.907-3.24-4.9-4.008-2.123-.82-3.05.61-4.152,1.44a5.449,5.449,0,0,1-2.52,1.032,4.948,4.948,0,0,1-3.336-1.056,26.654,26.654,0,0,1-3.936-3.528,32.618,32.618,0,0,1-3.12-3.336c-1.179-1.568-2.033-3.8-.72-5.9,0.616-.984,2.3-1.985,1.992-3.744-0.427-2.419-2.042-3.278-3.288-4.824C26.156,21.119,24.662,19.344,23.736,19.344Z"/>
</svg>
