<svg width="121" height="30" viewBox="0 0 121 30" fill="none" xmlns="http://www.w3.org/2000/svg">
<g clip-path="url(#clip0_1373_9582)">
<path fill-rule="evenodd" clip-rule="evenodd" d="M26.3218 4.21042C26.9347 2.89739 26.3509 1.34357 25.018 0.739879C23.685 0.136186 22.1076 0.711219 21.4948 2.02425L13.2827 19.6186L5.07058 2.02425C4.45773 0.71122 2.88034 0.136186 1.54738 0.739879C0.214425 1.34357 -0.369335 2.89739 0.243519 4.21042L10.8692 26.9757C11.3026 27.9043 12.2451 28.4994 13.2827 28.4994C14.3202 28.4994 15.2628 27.9043 15.6962 26.9757L20.1456 17.443L24.6908 26.9934C25.1297 27.9156 26.0719 28.5031 27.1059 28.4993C28.1398 28.4956 29.0776 27.9011 29.5095 26.9757L40.1352 4.21042C40.748 2.89739 40.1643 1.34357 38.8313 0.739879C37.4983 0.136186 35.921 0.71122 35.3081 2.02425L27.0726 19.6688L23.0509 11.2184L26.3218 4.21042Z" fill="black"/>
<path d="M51.4249 2.02435C50.9915 1.09577 50.0489 0.500732 49.0114 0.500732C47.9738 0.500732 47.0312 1.09577 46.5978 2.02435L35.9722 24.7897C35.3593 26.1027 35.9431 27.6565 37.2761 28.2602C38.609 28.8639 40.1864 28.2889 40.7993 26.9758L49.0114 9.38149L57.2235 26.9758C57.8363 28.2889 59.4137 28.8639 60.7467 28.2602C62.0796 27.6565 62.6634 26.1027 62.0505 24.7897L51.4249 2.02435Z" fill="black"/>
<path d="M46.4878 23.2661C45.0207 23.2661 43.8314 24.4376 43.8314 25.8828C43.8314 27.3279 45.0207 28.4995 46.4878 28.4995H51.5349C53.002 28.4995 54.1913 27.3279 54.1913 25.8828C54.1913 24.4376 53.002 23.2661 51.5349 23.2661H46.4878Z" fill="black"/>
<path d="M63.1131 2.02425C62.5002 0.71122 60.9228 0.136186 59.5899 0.739879C58.2569 1.34357 57.6732 2.89739 58.286 4.21042L68.9117 26.9757C69.3451 27.9043 70.2877 28.4994 71.3252 28.4994C72.3627 28.4994 73.3053 27.9043 73.7387 26.9757L78.1881 17.443L82.7333 26.9934C83.1722 27.9156 84.1144 28.5031 85.1484 28.4993C86.1823 28.4956 87.1201 27.9011 87.552 26.9757L98.1777 4.21042C98.7905 2.89739 98.2068 1.34357 96.8738 0.739879C95.5409 0.136186 93.9635 0.71122 93.3506 2.02425L85.1151 19.6688L81.0934 11.2184L84.3643 4.21042C84.9772 2.89739 84.3934 1.34357 83.0605 0.739879C81.7275 0.136186 80.1501 0.71122 79.5373 2.02425L71.3252 19.6186L63.1131 2.02425Z" fill="black"/>
<path d="M104.132 11.8832C102.665 11.8832 101.475 13.0547 101.475 14.4999V25.8825C101.475 27.3277 102.665 28.4992 104.132 28.4992H118.344C119.811 28.4992 121 27.3277 121 25.8825C121 24.4374 119.811 23.2658 118.344 23.2658H106.788V17.1166H118.344C119.811 17.1166 121 15.945 121 14.4999C121 13.0547 119.811 11.8832 118.344 11.8832H104.132Z" fill="black"/>
<path d="M104.132 0.500488C102.665 0.500488 101.475 1.67203 101.475 3.11719C101.475 4.56236 102.665 5.7339 104.132 5.7339H118.344C119.811 5.7339 121 4.56236 121 3.11719C121 1.67203 119.811 0.500488 118.344 0.500488H104.132Z" fill="black"/>
</g>
<defs>
<clipPath id="clip0_1373_9582">
<rect width="121" height="29" fill="white" transform="translate(0 0.5)"/>
</clipPath>
</defs>
</svg>
