<svg xmlns="http://www.w3.org/2000/svg" width="72" height="72" viewBox="0 0 72 72">
  <defs>
    <style>
      .cls-1 {
        fill-rule: evenodd;
      }
    </style>
  </defs>
  <path id="location" class="cls-1" d="M35.376,15.72c6.349-.085,10.146,3.294,12,7.7a11.967,11.967,0,0,1,.912,6.72,37.018,37.018,0,0,1-5.3,12.576c-1.389,2.2-3.782,5.885-6.7,6.408a2.819,2.819,0,0,1-2.136-.648,12.836,12.836,0,0,1-3.432-3.336,38.779,38.779,0,0,1-6.24-11.928,15.509,15.509,0,0,1-.576-7.8,12.381,12.381,0,0,1,7.584-8.856,14.26,14.26,0,0,1,2.52-.7Zm0.48,3.576-0.768.048-1.512.288a8.265,8.265,0,0,0-4.08,2.544,11.442,11.442,0,0,0-2.088,3.84,9.485,9.485,0,0,0-.072,4.272,28.1,28.1,0,0,0,3,7.68c0.828,1.41,1.573,2.842,2.5,4.152,0.424,0.6.967,1.108,1.416,1.68,0.209,0.266,1.454,1.7,1.8,1.632A4.063,4.063,0,0,0,37.3,44.3l1.32-1.488a31.961,31.961,0,0,0,1.776-2.664,33.751,33.751,0,0,0,4.392-10.56,8.245,8.245,0,0,0-.7-4.824A8.417,8.417,0,0,0,35.856,19.3ZM35.688,21.72a5.3,5.3,0,0,1,5.448,3.6,6.388,6.388,0,0,1,.1,4.08c-0.848,2.178-2.412,3.289-5.04,3.72a4.248,4.248,0,0,1-2.568-.6,5.7,5.7,0,0,1-3-6.7,5.637,5.637,0,0,1,3.384-3.744C34.508,21.9,35.2,21.915,35.688,21.72Zm0.144,3.6-0.552.12a2.163,2.163,0,0,0-1.2,1.224A2.1,2.1,0,1,0,35.832,25.32ZM49.8,38.616c1.269,0.008,2,.9,2.736,1.488,1.548,1.237,3.591,4.088,2.688,7.1a9.093,9.093,0,0,1-1.56,3c-2.209,2.838-6.072,4.273-10.1,5.28-1.444.361-2.873,0.371-4.44,0.624a19.955,19.955,0,0,1-5.952,0l-2.088-.144-4.008-.816a23.963,23.963,0,0,1-5.952-2.664,8.918,8.918,0,0,1-4.344-5.28c-0.967-3.235,1.453-6.278,3.12-7.512,0.8-.594,2.311-1.714,3.312-0.5a1.857,1.857,0,0,1-.216,2.664l-1.056.744c-0.964.755-2.314,2.378-1.584,4.176,0.738,1.82,2.583,2.891,4.368,3.672a29.95,29.95,0,0,0,5.16,1.7,31.716,31.716,0,0,0,16.08-1.08c2.187-.869,5.346-2.439,5.856-4.92,0.329-1.6-1.135-3.086-1.944-3.7a5.225,5.225,0,0,1-1.176-.888,2.059,2.059,0,0,1,.36-2.664A3.182,3.182,0,0,1,49.8,38.616Z"/>
</svg>
