<svg xmlns="http://www.w3.org/2000/svg" width="200" height="200" viewBox="0 0 200 200">
  <defs>
    <style>
      .cls-1 {
        fill-rule: evenodd;
      }
    </style>
  </defs>
  <path id="_1" data-name="1" class="cls-1" d="M48.5,27.1h96.1c3.079,0,6.554-.267,9.2.3a25.315,25.315,0,0,1,10.1,4.5c10.377,7.837,9,18.646,9,36.3v64.9c0,16.68,1.143,27.1-8.5,34.6a25.486,25.486,0,0,1-9.6,4.7c-3.027.75-7.1,0.5-10.8,0.5H55.6c-3.587,0-7.477.226-10.4-.5a23.44,23.44,0,0,1-16.7-14.6c-2.578-6.609-1.4-19.4-1.4-28.3v-59c0-10.562-1.358-24.171,2.6-31a24.507,24.507,0,0,1,12.5-11C44.094,27.761,46.426,27.928,48.5,27.1Zm0.9,14.8c-3.335,1.39-5.506,1.952-6.9,5.2-0.819,1.909-.6,4.985-0.6,7.7v88.8c0,2.716-.4,6.277.3,8.5,2.6,8.225,14.537,6,25,6h63.3c7.728,0,20.455,1.35,24.8-2.1s2.8-17.348,2.8-25.2v-64c0-8.292,1.521-19.576-3.3-23.2-3.948-2.968-21.634-1.7-29-1.7H49.4Zm41.9,74.3c0.053,5.872.978,21.134-1.2,24.4-2.424,3.635-8.687,4.143-11.5.5-1.837-2.379-1.5-6.722-1.5-11V74.8c0-5.1-.524-10.34,2.3-12.6,3.727-2.984,17.665-1.8,24.6-1.8a28.845,28.845,0,0,1,11.8,2.3c10.908,4.759,19.124,19.471,14.2,35.7a28.309,28.309,0,0,1-3.9,8.1C118.95,116.557,108.227,116.225,91.3,116.2Zm0-41.3v26.8c9.414,0.087,20.346,1.267,23.9-4.6a14.084,14.084,0,0,0,1.7-5.5c1.008-8.8-2.433-14.815-9.3-16.4C103.233,74.192,96.279,74.87,91.3,74.9Z"/>
</svg>
