<svg xmlns="http://www.w3.org/2000/svg" width="72" height="72" viewBox="0 0 72 72">
  <defs>
    <style>
      .cls-1 {
        fill-rule: evenodd;
      }
    </style>
  </defs>
  <path id="Заливка_цветом_2" data-name="Заливка цветом 2" class="cls-1" d="M34.848,20.544a28.826,28.826,0,0,1,18.1,5.448,14.328,14.328,0,0,1,3.408,2.928,2.386,2.386,0,0,1,.1,1.92,2.138,2.138,0,0,1-3.168.744l-1.032-.96-2.208-1.68A25.474,25.474,0,0,0,40.9,25.152a20.63,20.63,0,0,0-4.656-.48H34.9l-2.016.168a32.551,32.551,0,0,0-3.6.72,27.024,27.024,0,0,0-8.064,3.912c-0.843.6-1.556,1.355-2.352,1.992a2.123,2.123,0,0,1-3.048-.192C14.2,29.179,17.366,27.234,18.5,26.4a32.128,32.128,0,0,1,10.152-4.944,36.289,36.289,0,0,1,4.008-.744Zm0.624,8.232a20.561,20.561,0,0,1,12.96,4.1c0.976,0.7,3.248,2.116,2.16,3.96a2.145,2.145,0,0,1-2.832.768c-0.776-.471-1.486-1.258-2.256-1.8a17.251,17.251,0,0,0-6.216-2.568A12.276,12.276,0,0,0,35.5,32.9c-0.823.133-1.639,0.074-2.4,0.24a18.333,18.333,0,0,0-5.52,1.992,22.431,22.431,0,0,0-2.328,1.608l-0.96.84a2.169,2.169,0,0,1-2.688-.456c-1.436-1.855.7-3.312,1.776-4.1a22.2,22.2,0,0,1,7.9-3.72c0.924-.235,1.9-0.289,2.9-0.456ZM35.4,37.032a12.725,12.725,0,0,1,8.256,2.544c0.817,0.6,1.993,1.692,1.128,3.12a2.138,2.138,0,0,1-2.664.84l-1.3-.96a8.81,8.81,0,0,0-5.352-1.416,10.628,10.628,0,0,0-3.816,1.128L29.88,43.536a2.285,2.285,0,0,1-2.208-.312,2.125,2.125,0,0,1,.24-3.312,13.934,13.934,0,0,1,4.632-2.424l1.968-.384Zm0.432,8.928a2.76,2.76,0,1,1-2.4,1.8,2.842,2.842,0,0,1,1.608-1.632Z"/>
</svg>
