<svg width="32" height="32" viewBox="0 0 32 32" fill="none" xmlns="http://www.w3.org/2000/svg">
<rect width="32" height="32" rx="16" fill="url(#paint0_linear_881_21531)"/>
<path d="M21.2323 10.3307C20.9914 10.3307 20.7953 10.5267 20.7953 10.7677C20.7953 11.0086 20.9914 11.2047 21.2323 11.2047C21.4733 11.2047 21.6693 11.0086 21.6693 10.7677C21.6693 10.5267 21.4733 10.3307 21.2323 10.3307Z" fill="white"/>
<path d="M16 12.1259C13.8638 12.1259 12.1259 13.8638 12.1259 16C12.1259 18.1362 13.8638 19.8741 16 19.8741C18.1362 19.8741 19.8741 18.1362 19.8741 16C19.8741 13.8639 18.1362 12.1259 16 12.1259Z" fill="white"/>
<path d="M20.0656 7H11.9344C9.21358 7 7 9.21358 7 11.9345V20.0656C7 22.7865 9.21358 25 11.9344 25H20.0656C22.7865 25 25 22.7864 25 20.0656V11.9345C25 9.21358 22.7865 7 20.0656 7ZM16 20.9371C13.2777 20.9371 11.063 18.7223 11.063 16C11.063 13.2777 13.2777 11.063 16 11.063C18.7223 11.063 20.9371 13.2777 20.9371 16C20.9371 18.7223 18.7223 20.9371 16 20.9371ZM21.2323 12.2677C20.4053 12.2677 19.7324 11.5948 19.7324 10.7677C19.7324 9.94061 20.4053 9.26768 21.2323 9.26768C22.0594 9.26768 22.7323 9.94057 22.7323 10.7677C22.7323 11.5947 22.0594 12.2677 21.2323 12.2677Z" fill="white"/>
<defs>
<linearGradient id="paint0_linear_881_21531" x1="32" y1="9.15648e-06" x2="-2.95372" y2="3.64054" gradientUnits="userSpaceOnUse">
<stop stop-color="#5771FF"/>
<stop offset="1" stop-color="#465BCC"/>
</linearGradient>
</defs>
</svg>
