<svg xmlns="http://www.w3.org/2000/svg" width="72" height="72" viewBox="0 0 72 72">
  <defs>
    <style>
      .cls-1 {
        fill-rule: evenodd;
      }
    </style>
  </defs>
  <path id="shield" class="cls-1" d="M35.5,14.76c2.358-.061,3.925.947,5.592,1.656l9.168,3.744c1.747,0.742,3.926,1.166,4.68,2.9a11.892,11.892,0,0,1,.312,4.032c0,2.773.218,5.907-.24,8.328a35.9,35.9,0,0,1-.768,3.84A26.414,26.414,0,0,1,43.92,53.688a24.812,24.812,0,0,1-5.232,2.784,11.92,11.92,0,0,1-2.328.768,4.559,4.559,0,0,1-2.544-.576,26.791,26.791,0,0,1-5.736-2.976A25.966,25.966,0,0,1,16.752,31.7V26.256a9.328,9.328,0,0,1,.216-2.952c0.808-2.062,3.3-2.51,5.3-3.36L34.008,15.12C34.455,14.942,35.009,14.962,35.5,14.76Zm0.432,4.008c-3.438,1.334-6.743,2.611-10.1,4.032l-5.112,2.088V30.72a24.158,24.158,0,0,0,.216,4.464c1.271,6.46,3.941,11.089,8.328,14.4a22.962,22.962,0,0,0,4.92,2.9,6.926,6.926,0,0,0,1.848.7,10.281,10.281,0,0,0,2.184-.864A22.271,22.271,0,0,0,43.1,49.3c4.171-3.275,6.75-7.851,7.968-14.112a23.962,23.962,0,0,0,.216-4.392v-5.9L39.864,20.256l-2.232-.912A4.824,4.824,0,0,0,35.928,18.768Z"/>
</svg>
