<svg width="18" height="18" viewBox="0 0 18 18" fill="none" xmlns="http://www.w3.org/2000/svg">
<path d="M14.2323 3.33067C13.9914 3.33067 13.7953 3.52673 13.7953 3.76766C13.7953 4.00859 13.9914 4.20465 14.2323 4.20465C14.4733 4.20465 14.6693 4.00862 14.6693 3.76766C14.6693 3.5267 14.4733 3.33067 14.2323 3.33067Z" fill="white"/>
<path d="M9 5.12592C6.86384 5.12592 5.12592 6.86384 5.12592 9C5.12592 11.1362 6.86384 12.8741 9 12.8741C11.1362 12.8741 12.8741 11.1362 12.8741 9.00004C12.8741 6.86387 11.1362 5.12592 9 5.12592Z" fill="white"/>
<path d="M13.0656 0H4.93443C2.21358 0 0 2.21358 0 4.93446V13.0656C0 15.7865 2.21358 18 4.93443 18H13.0656C15.7865 18 18 15.7864 18 13.0656V4.93446C18 2.21358 15.7865 0 13.0656 0ZM9 13.9371C6.27768 13.9371 4.06297 11.7223 4.06297 9C4.06297 6.27768 6.27771 4.06301 9 4.06301C11.7223 4.06301 13.9371 6.27771 13.9371 9C13.9371 11.7223 11.7223 13.9371 9 13.9371ZM14.2323 5.26767C13.4053 5.26767 12.7324 4.59478 12.7324 3.7677C12.7324 2.94061 13.4053 2.26768 14.2323 2.26768C15.0594 2.26768 15.7323 2.94057 15.7323 3.76766C15.7323 4.59475 15.0594 5.26767 14.2323 5.26767Z" fill="white"/>
</svg>
