<svg xmlns="http://www.w3.org/2000/svg" width="72" height="72" viewBox="0 0 72 72">
  <defs>
    <style>
      .cls-1 {
        fill-rule: evenodd;
      }
    </style>
  </defs>
  <path id="graf" class="cls-1" d="M51.912,14.712h2.9a5.249,5.249,0,0,1,1.32.048,1.873,1.873,0,0,1,1.176,1.128,7.464,7.464,0,0,1,.1,2.16c0,1.9.147,3.347-1.368,3.744a1.809,1.809,0,0,1-1.3-.168A2.787,2.787,0,0,1,54,20.76L43.512,31.512l-1.7,1.752a6.07,6.07,0,0,1-1.344,1.344,1.847,1.847,0,0,1-1.272.216c-0.927-.217-1.456-1.119-2.04-1.7l-4.488-4.584-0.792.768L19.728,41.832c-0.758.758-2.224,2.921-3.744,2.352a1.776,1.776,0,0,1-.936-0.744,2.068,2.068,0,0,1,0-1.872,6.539,6.539,0,0,1,1.08-1.152l1.944-2.04L28.2,28.008l2.52-2.592a2.814,2.814,0,0,1,1.848-1.272c1.092-.147,1.7.934,2.208,1.44l4.776,4.9L51.528,18.168a1.852,1.852,0,0,1-.84-2.64A2.281,2.281,0,0,1,51.912,14.712Zm1.2,11.808c1.857-.023,1.992,1.206,1.992,3.072v24.7a6.112,6.112,0,0,1-.1,1.848,1.855,1.855,0,0,1-1.392,1.152,1.752,1.752,0,0,1-1.992-1.32,6.53,6.53,0,0,1-.048-1.584V29.376a5.405,5.405,0,0,1,.12-1.752A2.07,2.07,0,0,1,53.112,26.52ZM32.52,33.6c2.29-.021,1.9,2.361,1.9,4.608V51.936c0,2.319.526,4.962-1.488,5.352a1.642,1.642,0,0,1-1.056-.192c-1.388-.726-0.984-3.045-0.984-5.088V39.072c0-1.307-.242-3.81.264-4.632A2.253,2.253,0,0,1,32.52,33.6Zm13.776,0c2.306-.021,1.92,2.368,1.92,4.632v13.7c0,2.308.509,4.965-1.488,5.352a1.706,1.706,0,0,1-.96-0.144c-1.521-.639-1.08-3.052-1.08-5.136V39.048c0-1.258-.244-3.787.24-4.584A2.253,2.253,0,0,1,46.3,33.6Zm-6.912,4.728c2.156-.025,1.944,1.92,1.944,4.056v10.44c0,2.131.345,4.1-1.488,4.464a1.7,1.7,0,0,1-1.08-.192c-1.285-.671-0.984-2.382-0.984-4.272V43.368c0-1.183-.213-3.4.24-4.152A2.262,2.262,0,0,1,39.384,38.328ZM25.68,39.5c2.029,0.017,1.848,1.853,1.848,3.912v9.7c0,2.074.3,3.83-1.488,4.176a1.65,1.65,0,0,1-1.056-.192C23.7,56.432,24,54.8,24,52.92V44.136c0-1.041-.19-2.986.192-3.672A2.071,2.071,0,0,1,25.68,39.5Zm-7.056,7.1a1.847,1.847,0,0,1,1.632.648c0.506,0.673.384,2.007,0.384,3.192v3.888a5.756,5.756,0,0,1-.12,1.848,1.841,1.841,0,0,1-1.368,1.1,1.754,1.754,0,0,1-1.992-1.3,7.016,7.016,0,0,1-.048-1.632v-3.7a10.007,10.007,0,0,1,.1-2.9A2.1,2.1,0,0,1,18.624,46.608Z"/>
</svg>
