<svg xmlns="http://www.w3.org/2000/svg" width="72" height="72" viewBox="0 0 72 72">
  <defs>
    <style>
      .cls-1 {
        fill-rule: evenodd;
      }
    </style>
  </defs>
  <path id="study" class="cls-1" d="M35.832,15.984a4.959,4.959,0,0,1,2.112.768l3.672,1.7,13.3,6.168C56.1,25.148,58.755,26.106,59.448,27A1.906,1.906,0,0,1,60,28.512c-0.264,1.456-1.346,1.676-2.424,2.3l-6.984,3.672V41.04a9.57,9.57,0,0,1-.192,3.12,12.156,12.156,0,0,1-2.832,3.288c-0.584.469-1.129,1-1.752,1.44a18.086,18.086,0,0,1-7.224,2.88,13.426,13.426,0,0,1-4.368.192c-0.906-.151-1.786-0.2-2.616-0.408a19.082,19.082,0,0,1-8.472-4.776c-0.691-.629-2.082-2.095-2.28-3.12V36.7a10.184,10.184,0,0,0-.048-2.5l-3.072-1.656v4.728a4.681,4.681,0,0,1-.216,2.136,1.311,1.311,0,0,1-1.272.576c-1.231-.235-1.128-1.365-1.128-2.832V31.128c-1.267-.6-2.791-1.01-3.1-2.592a2,2,0,0,1,.336-1.464,4.644,4.644,0,0,1,2.088-1.3l4.656-2.16C24.718,21.141,30.058,18.331,35.832,15.984Zm0.1,4.512L18.912,28.44v0.024l17.04,8.88,17.04-8.9V28.416ZM24.5,36.12v6.672l0.408,0.456a12.424,12.424,0,0,0,2.616,2.376,14.935,14.935,0,0,0,4.416,2.136,14.163,14.163,0,0,0,14.928-4.992l-0.024-6.312-7.272,3.792a12.966,12.966,0,0,1-3.312,1.608c-1.049.2-2.694-.983-3.384-1.344Zm-8.472,5.04a2.16,2.16,0,0,1,.432,4.3,2.174,2.174,0,0,1-2.208-2.76A2.407,2.407,0,0,1,16.032,41.16Z"/>
</svg>
