<svg width="48" height="48" viewBox="0 0 48 48" fill="none" xmlns="http://www.w3.org/2000/svg">
<path fill-rule="evenodd" clip-rule="evenodd" d="M18.6667 7.4375C18.6667 6.64359 19.3196 6 20.125 6H27.9028C28.7082 6 29.3611 6.64359 29.3611 7.4375C29.3611 8.23141 28.7082 8.875 27.9028 8.875H25.4722V10.7917H30.8194C36.9943 10.7917 42 15.7259 42 21.8125V27.5625C42 28.3564 41.3471 29 40.5417 29H31.7917C30.9863 29 30.3333 28.3564 30.3333 27.5625V22.7708C30.3333 21.9769 29.6804 21.3333 28.875 21.3333H8.45833C7.65292 21.3333 7 20.6897 7 19.8958V12.2292C7 11.4353 7.65292 10.7917 8.45833 10.7917H22.5556V8.875H20.125C19.3196 8.875 18.6667 8.23141 18.6667 7.4375ZM9.91667 13.6667V18.4583H28.875C31.2912 18.4583 33.25 20.3891 33.25 22.7708V26.125H39.0833V21.8125C39.0833 17.3137 35.3835 13.6667 30.8194 13.6667H9.91667Z" fill="url(#paint0_linear_1447_361)"/>
<path fill-rule="evenodd" clip-rule="evenodd" d="M36 40C37.1046 40 38 39.1046 38 38C38 37.7863 37.9269 37.3037 37.6732 36.5895C37.4323 35.9118 37.084 35.1807 36.6824 34.5161C36.4472 34.1268 36.2143 33.7945 36 33.5263C35.7857 33.7945 35.5528 34.1268 35.3176 34.5161C34.916 35.1807 34.5677 35.9118 34.3268 36.5895C34.0731 37.3037 34 37.7863 34 38C34 39.1046 34.8954 40 36 40ZM36.6743 32.8466C36.6742 32.8478 36.6613 32.8571 36.6358 32.8704C36.6616 32.852 36.6743 32.8453 36.6743 32.8466ZM35.3642 32.8705C35.3387 32.8571 35.3258 32.8478 35.3257 32.8466C35.3257 32.8453 35.3384 32.852 35.3642 32.8705ZM36 43C38.7614 43 41 40.7614 41 38C41 35.2386 38 30 36 30C34 30 31 35.2386 31 38C31 40.7614 33.2386 43 36 43Z" fill="url(#paint1_linear_1447_361)"/>
<defs>
<linearGradient id="paint0_linear_1447_361" x1="42" y1="6.00001" x2="4.30164" y2="11.975" gradientUnits="userSpaceOnUse">
<stop stop-color="#5771FF"/>
<stop offset="1" stop-color="#465BCC"/>
</linearGradient>
<linearGradient id="paint1_linear_1447_361" x1="41" y1="30" x2="30.0289" y2="30.879" gradientUnits="userSpaceOnUse">
<stop stop-color="#5771FF"/>
<stop offset="1" stop-color="#465BCC"/>
</linearGradient>
</defs>
</svg>
