<svg xmlns="http://www.w3.org/2000/svg" width="72" height="72" viewBox="0 0 72 72">
  <defs>
    <style>
      .cls-1 {
        fill-rule: evenodd;
      }
    </style>
  </defs>
  <path id="faucet" class="cls-1" d="M36.912,18.552v2.16H41.52a18.848,18.848,0,0,1,3.816.216,12.4,12.4,0,0,1,10.056,9.84c0.474,2.042.264,4.906,0.264,7.344,0,1.179.106,2.341-.552,2.856s-1.986.408-3.192,0.408l-8.136-.024c-3.1-.631.337-7.74-2.52-8.616a7.24,7.24,0,0,0-1.824-.072H22.752l-5.52-.024a1.765,1.765,0,0,1-.936-0.6c-0.588-.786-0.336-3.382-0.336-4.752v-3.72a6.573,6.573,0,0,1,.072-1.7,1.81,1.81,0,0,1,.576-0.816c0.784-.587,3.384-0.336,4.752-0.336H33.6v-2.16c-1.871.024-3.712,0.334-4.272-1.032a1.822,1.822,0,0,1-.072-1.08l0.336-.6c0.489-.615,1.475-0.552,2.592-0.552h5.832a5.259,5.259,0,0,1,2.64.312,1.662,1.662,0,0,1-.384,2.856A12.9,12.9,0,0,1,36.912,18.552Zm15.432,19.56V34.32a13.726,13.726,0,0,0-.144-2.784,9.232,9.232,0,0,0-7.416-7.392,14.717,14.717,0,0,0-3.024-.168H31.7L19.272,24,19.3,29.424H39.744a9.752,9.752,0,0,1,2.112.1,5.676,5.676,0,0,1,2.232,1.128A4.945,4.945,0,0,1,45.72,33.84l0.024,4.272h6.6ZM48.624,42.5c1.852-.013,3.131,2.116,3.864,3.312A16.435,16.435,0,0,1,54.24,49.7a5.778,5.778,0,0,1-3.024,7.032,8.519,8.519,0,0,1-2.064.5,4.688,4.688,0,0,1-2.5-.456A5.614,5.614,0,0,1,43.272,50.5c0.624-2.832,2.281-6.083,4.3-7.512A6.5,6.5,0,0,1,48.624,42.5Zm0.192,4.008-0.744,1.08a11,11,0,0,0-1.44,3.456A2.283,2.283,0,0,0,49.1,53.832c3.176-.537,1.744-4.1.72-5.832A4.026,4.026,0,0,0,48.816,46.512Z"/>
</svg>
