<svg xmlns="http://www.w3.org/2000/svg" width="72" height="72" viewBox="0 0 72 72">
  <defs>
    <style>
      .cls-1 {
        fill-rule: evenodd;
      }
    </style>
  </defs>
  <path id="fire" class="cls-1" d="M39.24,16.752c2.443,0,1.645,2.279,2.184,4.08a12.772,12.772,0,0,0,1.968,3.792c1.009,1.414,2.25,2.645,3.312,4.008a25.369,25.369,0,0,1,4.9,9,26.522,26.522,0,0,1,.552,2.928l0.072,1.392,0.024,1.656c-0.144.893-.1,1.776-0.288,2.592a14.245,14.245,0,0,1-1.416,4.008,12.36,12.36,0,0,1-4.392,4.416,18.759,18.759,0,0,1-5.064,1.92c-1,.252-2.073.314-3.144,0.5a16.76,16.76,0,0,1-7.176-.456c-4.588-1.378-8.114-3.77-9.888-7.944-2.156-5.072-.789-12.325.96-16.752,0.47-1.19,1.217-4.316,3.024-3.984,1.359,0.25,1.239,1.409,1.7,2.544a8.46,8.46,0,0,0,2.088,3.024,18.02,18.02,0,0,1,1.176-5.544C31.6,22.931,34.638,18.926,39.24,16.752Zm-1.1,4.56a18.275,18.275,0,0,0-1.584,1.512A20.054,20.054,0,0,0,32.4,30.84c-0.347,1.376-.333,2.838-0.576,4.416-0.173,1.119.183,2.095-.336,2.784a1.783,1.783,0,0,1-2.256.312A16.734,16.734,0,0,1,25.416,34.7a4.793,4.793,0,0,1-.744-1.008H24.624L23.88,36.048a32.947,32.947,0,0,0-.744,3.84,14.252,14.252,0,0,0,1.2,8.376,13.977,13.977,0,0,0,1.248,1.7,5.5,5.5,0,0,0,1.8,1.584V51.528c-0.943-2.69.126-6.2,1.08-8.064,0.387-.755.948-1.954,2.28-1.56a1.7,1.7,0,0,1,1.176,1.2,1.18,1.18,0,0,0,.192.552V43.608l0.216-1.056,0.5-1.608a15.133,15.133,0,0,1,2.544-4.032,4.2,4.2,0,0,1,2.04-1.536A1.641,1.641,0,0,1,39.36,36.7l0.1,1.176a4.549,4.549,0,0,0,.528,1.248,27.184,27.184,0,0,0,1.848,2.28,13.873,13.873,0,0,1,2.784,5.136,8.529,8.529,0,0,1,.312,3.384l-0.264,1.7h0.024l0.048-.048a5.687,5.687,0,0,0,1.248-.984c2.439-1.963,3.7-6.829,2.664-11.256-1.407-5.989-4.857-8.549-7.872-12.768a18.2,18.2,0,0,1-1.968-3.36Zm-1.248,18.96A12.242,12.242,0,0,0,35.3,44.5c-0.181.945,0.118,2.383-.312,3.1a1.629,1.629,0,0,1-1.56.816,5.627,5.627,0,0,1-2.208-1.056L30.6,46.9l-0.24,1.3a5.358,5.358,0,0,0,.792,3.768c1.8,2.525,6.831,2.515,9.264.552,1.088-.878,1.543-3.174,1.056-5.088-0.594-2.335-2.042-3.588-3.288-5.232l-0.96-1.344Z"/>
</svg>
