<svg xmlns="http://www.w3.org/2000/svg" width="44" height="44" viewBox="0 0 44 44">
  <defs>
    <style>
      .cls-1 {
        fill-rule: evenodd;
      }
    </style>
  </defs>
  <path id="ssd" class="cls-1" d="M21.459,1.758A12.2,12.2,0,0,1,33.37,9.442a12.264,12.264,0,0,1,.875,6.766A35.632,35.632,0,0,1,28.994,28.7c-1.332,2.114-3.936,5.946-6.745,6.4a2.876,2.876,0,0,1-1.921-.512,12.216,12.216,0,0,1-3.436-3.223,39.012,39.012,0,0,1-6.468-12.337,14.689,14.689,0,0,1-.534-7.364,12.511,12.511,0,0,1,7.535-9.029,14.485,14.485,0,0,1,2.6-.726ZM21.63,5.344l-0.576.043-1.366.256A8.521,8.521,0,0,0,15.525,8.2a10.83,10.83,0,0,0-2.092,3.842A9.667,9.667,0,0,0,13.5,16.87,31.019,31.019,0,0,0,16.571,24.4c0.77,1.316,1.486,2.591,2.348,3.8,0.463,0.649,1.023,1.223,1.515,1.836a6.113,6.113,0,0,0,1.579,1.387,5.012,5.012,0,0,0,1.281-1.11,22.973,22.973,0,0,0,3.116-4.184,30.687,30.687,0,0,0,4.354-10.566,8.586,8.586,0,0,0-.683-4.8A8.609,8.609,0,0,0,21.63,5.344Zm0.064,2.412a5.42,5.42,0,0,1,5.464,3.629,6.154,6.154,0,0,1,.085,3.927,5.646,5.646,0,0,1-4.781,3.778,4.7,4.7,0,0,1-2.519-.406,5.708,5.708,0,0,1,.064-10.566l1.11-.3Zm0.171,3.586-0.534.107a2.125,2.125,0,0,0-1.281,1.366A2.09,2.09,0,1,0,21.865,11.342ZM7.713,24.64a1.805,1.805,0,0,1,1.814,2.583,3.628,3.628,0,0,1-1.3,1.174c-0.963.727-2.51,2.295-1.921,4.12,0.888,2.75,4.953,4.3,7.855,5.165,5.978,1.785,15.288,1.03,19.723-1.558,1.525-.89,3.215-1.8,3.8-3.607,0.589-1.826-.958-3.392-1.921-4.12l-0.854-.6a1.879,1.879,0,0,1-.149-2.6c1.055-1.306,2.556-.07,3.33.534,1.724,1.344,4.062,4.192,3.052,7.578-1.339,4.491-6.2,6.752-10.865,7.962-1.4.362-2.869,0.5-4.4,0.768l-2.327.149a9.089,9.089,0,0,1-2.476.021l-1.089-.021C18.844,42,17.7,42.06,16.614,41.844l-2.988-.6a21.724,21.724,0,0,1-8.239-4.013,7.763,7.763,0,0,1-2.092-2.711,8.951,8.951,0,0,1-.534-1.58,6.4,6.4,0,0,1,.277-3.415A8.61,8.61,0,0,1,7.713,24.64Z"/>
</svg>
