<svg xmlns="http://www.w3.org/2000/svg" width="72" height="72" viewBox="0 0 72 72">
  <defs>
    <style>
      .cls-1 {
        fill-rule: evenodd;
      }
    </style>
  </defs>
  <path id="smile" class="cls-1" d="M21.842,15.868h4.921a4.317,4.317,0,0,1,2.4.345,1.931,1.931,0,0,1,.449,2.21c-0.5.987-1.648,0.915-3.142,0.915-2.213,0-5.541-.364-6.509.863-0.924,1.171-.622,4.206-0.622,6.3a6.811,6.811,0,0,1-.173,2.331,1.824,1.824,0,0,1-2.314.794,1.657,1.657,0,0,1-.932-1.088,5.812,5.812,0,0,1-.052-1.347V24.466a20.757,20.757,0,0,1,.052-3.263c0.405-2.326,1.327-3.907,3.212-4.731a8.522,8.522,0,0,1,1.83-.518Zm21.859,0h3.419a22.327,22.327,0,0,1,4.213.138,5.536,5.536,0,0,1,4.645,4.627,13.256,13.256,0,0,1,.138,2.642V26.78a7.686,7.686,0,0,1-.052,1.761,1.725,1.725,0,0,1-.552.863,1.842,1.842,0,0,1-2.693-.57,6.826,6.826,0,0,1-.173-2.331c0-2.1.314-5.083-.622-6.268a2.664,2.664,0,0,0-1.519-.829,9.028,9.028,0,0,0-1.813-.069H45.41a6.75,6.75,0,0,1-2.245-.155,1.826,1.826,0,0,1-.725-2.538A1.957,1.957,0,0,1,43.7,15.868ZM34.636,36.38V31.252a4.481,4.481,0,0,1,.328-2.417,1.829,1.829,0,0,1,1.9-.535c1.37,0.411,1.122,1.881,1.122,3.609V35.24a8.575,8.575,0,0,1-.155,2.279,3.011,3.011,0,0,1-1.278,1.727c-1.11.691-3.34,0.772-4.006-.363a1.735,1.735,0,0,1,.829-2.4A3.758,3.758,0,0,1,34.636,36.38ZM28.3,28.265a1.94,1.94,0,0,1,2.175,1.381,7.69,7.69,0,0,1,.069,1.865c0,1.992.019,3.184-1.709,3.47a2.007,2.007,0,0,1-1.139-.19c-1.144-.508-1.088-1.5-1.088-3.125a8.7,8.7,0,0,1,.052-1.951A1.93,1.93,0,0,1,27.764,28.4Zm14.659,0A1.933,1.933,0,0,1,45.134,29.7a8.2,8.2,0,0,1,.052,1.83c0,1.977.023,3.169-1.692,3.453a2.031,2.031,0,0,1-1.07-.155c-1.24-.513-1.191-1.473-1.191-3.194a7.987,7.987,0,0,1,.086-2.037A1.917,1.917,0,0,1,42.406,28.4Zm-13.14,12c1.306-.024,1.666.8,2.417,1.33a7.465,7.465,0,0,0,3.212,1.14C37.069,43.012,39,41.915,39.8,41.3a3.323,3.323,0,0,1,1.571-1.036,1.662,1.662,0,0,1,1.865,1.951,3.876,3.876,0,0,1-1.916,2.089,10.283,10.283,0,0,1-3.453,1.537,9.8,9.8,0,0,1-7.718-1.606c-0.887-.63-2.539-1.954-1.381-3.419A2.211,2.211,0,0,1,29.819,40.265ZM17.439,42.2c1.951-.014,1.9,1.374,1.9,3.3s-0.276,5.026.518,6.147c0.707,1,2.07,1,3.8,1h2.814a5.931,5.931,0,0,1,2.486.225,1.84,1.84,0,0,1,.207,2.9c-0.781.585-3.167,0.345-4.524,0.345a21.88,21.88,0,0,1-3.678-.086c-3.284-.62-4.548-2.225-5.076-5.611q-0.009-2.564-.017-5.128a5.423,5.423,0,0,1,.19-2.21,1.73,1.73,0,0,1,.932-0.794Zm36.777,0c2.431-.026,1.9,2.476,1.9,4.8q-0.009,1.7-.017,3.4c-0.533,3.4-1.791,4.991-5.076,5.629a21.483,21.483,0,0,1-3.695.086c-1.353,0-3.729.239-4.507-.345a1.84,1.84,0,0,1,.207-2.9,6.042,6.042,0,0,1,2.521-.225h2.8c1.752,0,3.066-.025,3.781-1.036,0.8-1.128.518-4.271,0.518-6.216a6.989,6.989,0,0,1,.121-2.124,1.685,1.685,0,0,1,.967-0.967Z"/>
</svg>
