<svg width="44" height="43" viewBox="0 0 44 43" fill="none" xmlns="http://www.w3.org/2000/svg">
<path d="M43 2.30853C43 1.96148 42.8627 1.62865 42.6182 1.38325C42.3738 1.13785 42.0422 0.999989 41.6965 1L38.2206 1.00011C37.5007 1.00013 36.9171 1.586 36.9172 2.30868C36.9172 3.03136 37.5008 3.6172 38.2207 3.61718L38.5496 3.61717L25.4758 16.7418L19.4457 10.6886C18.9367 10.1776 18.1114 10.1776 17.6024 10.6886L1.38178 26.9722C0.872743 27.4832 0.872741 28.3117 1.38177 28.8228C1.8908 29.3338 2.71611 29.3338 3.22514 28.8228L18.5241 13.4644L24.5542 19.5176C25.0632 20.0286 25.8885 20.0286 26.3975 19.5176L40.3931 5.46761L40.3931 5.79796C40.3931 6.52064 40.9767 7.10649 41.6965 7.10649C42.4164 7.10649 43 6.52064 43 5.79796V2.30853Z" fill="url(#paint0_linear_770_2802)"/>
<path d="M40.6827 13.9392C40.6827 13.2165 40.0991 12.6307 39.3792 12.6307C38.6593 12.6307 38.0758 13.2165 38.0758 13.9392V40.6915C38.0758 41.4142 38.6593 42 39.3792 42C40.0991 42 40.6827 41.4142 40.6827 40.6915V13.9392Z" fill="url(#paint1_linear_770_2802)"/>
<path d="M19.8273 20.9181C19.8273 20.1954 19.2437 19.6095 18.5239 19.6095C17.804 19.6095 17.2204 20.1954 17.2204 20.9181V40.6915C17.2204 41.4142 17.804 42 18.5239 42C19.2437 42 19.8273 41.4142 19.8273 40.6915V20.9181Z" fill="url(#paint2_linear_770_2802)"/>
<path d="M33.7309 20.9181C33.7309 20.1954 33.1473 19.6095 32.4274 19.6095C31.7076 19.6095 31.124 20.1954 31.124 20.9181V40.6915C31.124 41.4142 31.7076 42 32.4274 42C33.1473 42 33.7309 41.4142 33.7309 40.6915V20.9181Z" fill="url(#paint3_linear_770_2802)"/>
<path d="M26.7791 25.5706C26.7791 24.848 26.1955 24.2621 25.4756 24.2621C24.7558 24.2621 24.1722 24.848 24.1722 25.5706V40.6915C24.1722 41.4142 24.7558 42 25.4756 42C26.1955 42 26.7791 41.4142 26.7791 40.6915V25.5706Z" fill="url(#paint4_linear_770_2802)"/>
<path d="M12.8755 26.7338C12.8755 26.0111 12.292 25.4252 11.5721 25.4252C10.8522 25.4252 10.2686 26.0111 10.2686 26.7338V40.6915C10.2686 41.4142 10.8522 42 11.5721 42C12.292 42 12.8755 41.4142 12.8755 40.6915V26.7338Z" fill="url(#paint5_linear_770_2802)"/>
<path d="M5.92432 33.7126C5.92432 32.9899 5.34074 32.4041 4.62086 32.4041C3.90098 32.4041 3.3174 32.9899 3.3174 33.7126V40.6915C3.3174 41.4142 3.90098 42 4.62086 42C5.34074 42 5.92432 41.4142 5.92432 40.6915V33.7126Z" fill="url(#paint6_linear_770_2802)"/>
<path d="M43 2.30853C43 1.96148 42.8627 1.62865 42.6182 1.38325C42.3738 1.13785 42.0422 0.999989 41.6965 1L38.2206 1.00011C37.5007 1.00013 36.9171 1.586 36.9172 2.30868C36.9172 3.03136 37.5008 3.6172 38.2207 3.61718L38.5496 3.61717L25.4758 16.7418L19.4457 10.6886C18.9367 10.1776 18.1114 10.1776 17.6024 10.6886L1.38178 26.9722C0.872743 27.4832 0.872741 28.3117 1.38177 28.8228C1.8908 29.3338 2.71611 29.3338 3.22514 28.8228L18.5241 13.4644L24.5542 19.5176C25.0632 20.0286 25.8885 20.0286 26.3975 19.5176L40.3931 5.46761L40.3931 5.79796C40.3931 6.52064 40.9767 7.10649 41.6965 7.10649C42.4164 7.10649 43 6.52064 43 5.79796V2.30853Z" stroke="url(#paint7_linear_770_2802)" stroke-linecap="round" stroke-linejoin="round"/>
<path d="M40.6827 13.9392C40.6827 13.2165 40.0991 12.6307 39.3792 12.6307C38.6593 12.6307 38.0758 13.2165 38.0758 13.9392V40.6915C38.0758 41.4142 38.6593 42 39.3792 42C40.0991 42 40.6827 41.4142 40.6827 40.6915V13.9392Z" stroke="url(#paint8_linear_770_2802)" stroke-linecap="round" stroke-linejoin="round"/>
<path d="M19.8273 20.9181C19.8273 20.1954 19.2437 19.6095 18.5239 19.6095C17.804 19.6095 17.2204 20.1954 17.2204 20.9181V40.6915C17.2204 41.4142 17.804 42 18.5239 42C19.2437 42 19.8273 41.4142 19.8273 40.6915V20.9181Z" stroke="url(#paint9_linear_770_2802)" stroke-linecap="round" stroke-linejoin="round"/>
<path d="M33.7309 20.9181C33.7309 20.1954 33.1473 19.6095 32.4274 19.6095C31.7076 19.6095 31.124 20.1954 31.124 20.9181V40.6915C31.124 41.4142 31.7076 42 32.4274 42C33.1473 42 33.7309 41.4142 33.7309 40.6915V20.9181Z" stroke="url(#paint10_linear_770_2802)" stroke-linecap="round" stroke-linejoin="round"/>
<path d="M26.7791 25.5706C26.7791 24.848 26.1955 24.2621 25.4756 24.2621C24.7558 24.2621 24.1722 24.848 24.1722 25.5706V40.6915C24.1722 41.4142 24.7558 42 25.4756 42C26.1955 42 26.7791 41.4142 26.7791 40.6915V25.5706Z" stroke="url(#paint11_linear_770_2802)" stroke-linecap="round" stroke-linejoin="round"/>
<path d="M12.8755 26.7338C12.8755 26.0111 12.292 25.4252 11.5721 25.4252C10.8522 25.4252 10.2686 26.0111 10.2686 26.7338V40.6915C10.2686 41.4142 10.8522 42 11.5721 42C12.292 42 12.8755 41.4142 12.8755 40.6915V26.7338Z" stroke="url(#paint12_linear_770_2802)" stroke-linecap="round" stroke-linejoin="round"/>
<path d="M5.92432 33.7126C5.92432 32.9899 5.34074 32.4041 4.62086 32.4041C3.90098 32.4041 3.3174 32.9899 3.3174 33.7126V40.6915C3.3174 41.4142 3.90098 42 4.62086 42C5.34074 42 5.92432 41.4142 5.92432 40.6915V33.7126Z" stroke="url(#paint13_linear_770_2802)" stroke-linecap="round" stroke-linejoin="round"/>
<defs>
<linearGradient id="paint0_linear_770_2802" x1="43" y1="1.00001" x2="-2.85246" y2="5.89216" gradientUnits="userSpaceOnUse">
<stop stop-color="#5771FF"/>
<stop offset="1" stop-color="#465BCC"/>
</linearGradient>
<linearGradient id="paint1_linear_770_2802" x1="43" y1="1.00001" x2="-2.85246" y2="5.89216" gradientUnits="userSpaceOnUse">
<stop stop-color="#5771FF"/>
<stop offset="1" stop-color="#465BCC"/>
</linearGradient>
<linearGradient id="paint2_linear_770_2802" x1="43" y1="1.00001" x2="-2.85246" y2="5.89216" gradientUnits="userSpaceOnUse">
<stop stop-color="#5771FF"/>
<stop offset="1" stop-color="#465BCC"/>
</linearGradient>
<linearGradient id="paint3_linear_770_2802" x1="43" y1="1.00001" x2="-2.85246" y2="5.89216" gradientUnits="userSpaceOnUse">
<stop stop-color="#5771FF"/>
<stop offset="1" stop-color="#465BCC"/>
</linearGradient>
<linearGradient id="paint4_linear_770_2802" x1="43" y1="1.00001" x2="-2.85246" y2="5.89216" gradientUnits="userSpaceOnUse">
<stop stop-color="#5771FF"/>
<stop offset="1" stop-color="#465BCC"/>
</linearGradient>
<linearGradient id="paint5_linear_770_2802" x1="43" y1="1.00001" x2="-2.85246" y2="5.89216" gradientUnits="userSpaceOnUse">
<stop stop-color="#5771FF"/>
<stop offset="1" stop-color="#465BCC"/>
</linearGradient>
<linearGradient id="paint6_linear_770_2802" x1="43" y1="1.00001" x2="-2.85246" y2="5.89216" gradientUnits="userSpaceOnUse">
<stop stop-color="#5771FF"/>
<stop offset="1" stop-color="#465BCC"/>
</linearGradient>
<linearGradient id="paint7_linear_770_2802" x1="43" y1="1.00001" x2="-2.85246" y2="5.89216" gradientUnits="userSpaceOnUse">
<stop stop-color="#5771FF"/>
<stop offset="1" stop-color="#465BCC"/>
</linearGradient>
<linearGradient id="paint8_linear_770_2802" x1="43" y1="1.00001" x2="-2.85246" y2="5.89216" gradientUnits="userSpaceOnUse">
<stop stop-color="#5771FF"/>
<stop offset="1" stop-color="#465BCC"/>
</linearGradient>
<linearGradient id="paint9_linear_770_2802" x1="43" y1="1.00001" x2="-2.85246" y2="5.89216" gradientUnits="userSpaceOnUse">
<stop stop-color="#5771FF"/>
<stop offset="1" stop-color="#465BCC"/>
</linearGradient>
<linearGradient id="paint10_linear_770_2802" x1="43" y1="1.00001" x2="-2.85246" y2="5.89216" gradientUnits="userSpaceOnUse">
<stop stop-color="#5771FF"/>
<stop offset="1" stop-color="#465BCC"/>
</linearGradient>
<linearGradient id="paint11_linear_770_2802" x1="43" y1="1.00001" x2="-2.85246" y2="5.89216" gradientUnits="userSpaceOnUse">
<stop stop-color="#5771FF"/>
<stop offset="1" stop-color="#465BCC"/>
</linearGradient>
<linearGradient id="paint12_linear_770_2802" x1="43" y1="1.00001" x2="-2.85246" y2="5.89216" gradientUnits="userSpaceOnUse">
<stop stop-color="#5771FF"/>
<stop offset="1" stop-color="#465BCC"/>
</linearGradient>
<linearGradient id="paint13_linear_770_2802" x1="43" y1="1.00001" x2="-2.85246" y2="5.89216" gradientUnits="userSpaceOnUse">
<stop stop-color="#5771FF"/>
<stop offset="1" stop-color="#465BCC"/>
</linearGradient>
</defs>
</svg>
