<svg width="72" height="72" viewBox="0 0 72 72" fill="none" xmlns="http://www.w3.org/2000/svg">
<rect width="72" height="72" rx="10" fill="#5771FF" fill-opacity="0.1"/>
<path d="M45.7674 56H26.2326C24.2903 55.9979 22.4282 55.1962 21.0549 53.7709C19.6815 52.3456 18.9091 50.4131 18.907 48.3975V26.6643C18.907 26.2611 19.0613 25.8743 19.3361 25.5892C19.6109 25.304 19.9835 25.1438 20.3721 25.1438C20.7607 25.1438 21.1333 25.304 21.4081 25.5892C21.6829 25.8743 21.8372 26.2611 21.8372 26.6643V48.3975C21.8382 49.6069 22.3017 50.7665 23.1257 51.6218C23.9498 52.477 25.0672 52.9579 26.2326 52.959H45.7674C46.9328 52.9579 48.0502 52.477 48.8743 51.6218C49.6983 50.7665 50.1618 49.6069 50.1628 48.3975V26.6643C50.1628 26.2611 50.3172 25.8743 50.5919 25.5892C50.8667 25.304 51.2393 25.1438 51.6279 25.1438C52.0165 25.1438 52.3891 25.304 52.6639 25.5892C52.9387 25.8743 53.093 26.2611 53.093 26.6643V48.3975C53.091 50.4131 52.3185 52.3456 50.9451 53.7709C49.5718 55.1962 47.7097 55.9979 45.7674 56Z" fill="#5771FF"/>
<path d="M55.5349 31.2259C55.2179 31.226 54.9094 31.1193 54.6558 30.9218L37.4651 17.5413C37.0416 17.2145 36.5278 17.038 36 17.038C35.4722 17.038 34.9584 17.2145 34.5349 17.5413L17.3442 30.9218C17.0333 31.1637 16.6426 31.2676 16.2579 31.2106C15.8733 31.1536 15.5262 30.9403 15.293 30.6177C15.0599 30.2951 14.9598 29.8895 15.0147 29.4903C15.0697 29.0911 15.2752 28.7309 15.5861 28.489L32.7767 15.1085C33.7083 14.3887 34.8387 14 36 14C37.1614 14 38.2917 14.3887 39.2233 15.1085L56.414 28.489C56.66 28.6804 56.8417 28.9474 56.9334 29.252C57.025 29.5566 57.0221 29.8834 56.9248 30.1862C56.8276 30.4889 56.641 30.7523 56.3916 30.9389C56.1421 31.1255 55.8424 31.2259 55.5349 31.2259Z" fill="#5771FF"/>
<path d="M36 47.4446C35.0662 47.4446 30.2079 47.0675 26.2169 39.6272C25.2813 38.1774 24.8581 36.4362 25.019 34.6993C25.18 32.9624 25.9152 31.3369 27.0999 30.0987C27.7875 29.3904 28.6302 28.8655 29.5559 28.5689C30.4816 28.2723 31.4627 28.2129 32.4154 28.3957C33.8128 28.6897 35.0706 29.4727 35.9785 30.6136C36.8105 29.4935 37.9794 28.6942 39.2994 28.343C40.1905 28.1348 41.116 28.1444 42.0028 28.3709C42.8897 28.5975 43.7137 29.0349 44.4098 29.6486C45.7941 30.8365 46.7015 32.5177 46.9544 34.3632C47.2073 36.2088 46.7875 38.0859 45.7772 39.6272C41.796 47.0675 36.9357 47.4446 36 47.4446ZM31.3214 31.3272C30.5066 31.3356 29.7271 31.6739 29.1491 32.27C28.4473 33.0573 28.0275 34.0711 27.9599 35.1414C27.8923 36.2117 28.1811 37.2736 28.778 38.1492C31.4249 43.0858 34.5642 44.4036 36 44.4036C37.4358 44.4036 40.577 43.0858 43.2279 38.1472C43.8634 37.2193 44.148 36.0814 44.0277 34.9499C43.9074 33.8184 43.3905 32.7722 42.5754 32.0105C42.2273 31.694 41.8136 31.4652 41.3663 31.3417C40.9191 31.2183 40.4504 31.2036 39.9968 31.2989C39.3756 31.5277 38.8134 31.9018 38.3537 32.3922C37.894 32.8826 37.5492 33.4762 37.346 34.127C37.2145 34.377 37.0206 34.5857 36.7847 34.7311C36.5487 34.8764 36.2793 34.9532 36.0049 34.9532C35.7305 34.9532 35.4611 34.8764 35.2251 34.7311C34.9891 34.5857 34.7952 34.377 34.6638 34.127C34.451 33.4653 34.0839 32.8685 33.5951 32.3896C33.1064 31.9107 32.5112 31.5646 31.8625 31.382C31.6841 31.3467 31.503 31.3284 31.3214 31.3272Z" fill="#5771FF"/>
<path d="M45.7674 56H26.2326C24.2903 55.9979 22.4282 55.1962 21.0549 53.7709C19.6815 52.3456 18.9091 50.4131 18.907 48.3975V26.6643C18.907 26.2611 19.0613 25.8743 19.3361 25.5892C19.6109 25.304 19.9835 25.1438 20.3721 25.1438C20.7607 25.1438 21.1333 25.304 21.4081 25.5892C21.6829 25.8743 21.8372 26.2611 21.8372 26.6643V48.3975C21.8382 49.6069 22.3017 50.7665 23.1257 51.6218C23.9498 52.477 25.0672 52.9579 26.2326 52.959H45.7674C46.9328 52.9579 48.0502 52.477 48.8743 51.6218C49.6983 50.7665 50.1618 49.6069 50.1628 48.3975V26.6643C50.1628 26.2611 50.3172 25.8743 50.5919 25.5892C50.8667 25.304 51.2393 25.1438 51.6279 25.1438C52.0165 25.1438 52.3891 25.304 52.6639 25.5892C52.9387 25.8743 53.093 26.2611 53.093 26.6643V48.3975C53.091 50.4131 52.3185 52.3456 50.9451 53.7709C49.5718 55.1962 47.7097 55.9979 45.7674 56Z" stroke="#5771FF" stroke-width="0.5"/>
<path d="M55.5349 31.2259C55.2179 31.226 54.9094 31.1193 54.6558 30.9218L37.4651 17.5413C37.0416 17.2145 36.5278 17.038 36 17.038C35.4722 17.038 34.9584 17.2145 34.5349 17.5413L17.3442 30.9218C17.0333 31.1637 16.6426 31.2676 16.2579 31.2106C15.8733 31.1536 15.5262 30.9403 15.293 30.6177C15.0599 30.2951 14.9598 29.8895 15.0147 29.4903C15.0697 29.0911 15.2752 28.7309 15.5861 28.489L32.7767 15.1085C33.7083 14.3887 34.8387 14 36 14C37.1614 14 38.2917 14.3887 39.2233 15.1085L56.414 28.489C56.66 28.6804 56.8417 28.9474 56.9334 29.252C57.025 29.5566 57.0221 29.8834 56.9248 30.1862C56.8276 30.4889 56.641 30.7523 56.3916 30.9389C56.1421 31.1255 55.8424 31.2259 55.5349 31.2259Z" stroke="#5771FF" stroke-width="0.5"/>
<path d="M36 47.4446C35.0662 47.4446 30.2079 47.0675 26.2169 39.6272C25.2813 38.1774 24.8581 36.4362 25.019 34.6993C25.18 32.9624 25.9152 31.3369 27.0999 30.0987C27.7875 29.3904 28.6302 28.8655 29.5559 28.5689C30.4816 28.2723 31.4627 28.2129 32.4154 28.3957C33.8128 28.6897 35.0706 29.4727 35.9785 30.6136C36.8105 29.4935 37.9794 28.6942 39.2994 28.343C40.1905 28.1348 41.116 28.1444 42.0028 28.3709C42.8897 28.5975 43.7137 29.0349 44.4098 29.6486C45.7941 30.8365 46.7015 32.5177 46.9544 34.3632C47.2073 36.2088 46.7875 38.0859 45.7772 39.6272C41.796 47.0675 36.9357 47.4446 36 47.4446ZM31.3214 31.3272C30.5066 31.3356 29.7271 31.6739 29.1491 32.27C28.4473 33.0573 28.0275 34.0711 27.9599 35.1414C27.8923 36.2117 28.1811 37.2736 28.778 38.1492C31.4249 43.0858 34.5642 44.4036 36 44.4036C37.4358 44.4036 40.577 43.0858 43.2279 38.1472C43.8634 37.2193 44.148 36.0814 44.0277 34.9499C43.9074 33.8184 43.3905 32.7722 42.5754 32.0105C42.2273 31.694 41.8136 31.4652 41.3663 31.3417C40.9191 31.2183 40.4504 31.2036 39.9968 31.2989C39.3756 31.5277 38.8134 31.9018 38.3537 32.3922C37.894 32.8826 37.5492 33.4762 37.346 34.127C37.2145 34.377 37.0206 34.5857 36.7847 34.7311C36.5487 34.8764 36.2793 34.9532 36.0049 34.9532C35.7305 34.9532 35.4611 34.8764 35.2251 34.7311C34.9891 34.5857 34.7952 34.377 34.6638 34.127C34.451 33.4653 34.0839 32.8685 33.5951 32.3896C33.1064 31.9107 32.5112 31.5646 31.8625 31.382C31.6841 31.3467 31.503 31.3284 31.3214 31.3272Z" stroke="#5771FF" stroke-width="0.5"/>
</svg>
