<svg xmlns="http://www.w3.org/2000/svg" width="72" height="72" viewBox="0 0 72 72">
  <defs>
    <style>
      .cls-1 {
        fill-rule: evenodd;
      }
    </style>
  </defs>
  <path id="star" class="cls-1" d="M35.568,16.176c3.633-.039,4.717,1.82,5.928,4.2l1.44,2.832a6.945,6.945,0,0,0,1.632,2.64c0.957,0.683,2.665.592,4.032,0.864s2.964,0.271,4.272.672c2.315,0.709,3.522,2.307,3.96,4.92a5.093,5.093,0,0,1-1.08,3.48,13.391,13.391,0,0,1-2.376,2.4l-1.848,1.824a4.834,4.834,0,0,0-1.656,1.968c-0.339,1.069.3,3.6,0.528,4.632l0.36,2.232a5,5,0,0,1,.216,1.872c-0.423,2.55-1.63,4.165-3.864,4.872a5.9,5.9,0,0,1-4.512-.576l-3.672-1.872A7.861,7.861,0,0,0,36.36,51.96c-1.239-.219-2.56.751-3.288,1.176L30.6,54.384c-1.936,1.129-4.415,2.146-6.864.7a5.629,5.629,0,0,1-2.712-4.368,5.319,5.319,0,0,1,.24-2.016l0.456-2.784c0.217-1,.751-2.856.408-3.936a7.249,7.249,0,0,0-2.28-2.568L17.976,37.56a6.86,6.86,0,0,1-2.808-4.632,4.678,4.678,0,0,1,.744-3c1.723-2.905,3.953-2.51,7.68-3.24,1.244-.243,2.843-0.167,3.744-0.768a5.587,5.587,0,0,0,1.536-2.328l1.656-3.264a14.9,14.9,0,0,1,.96-1.848,5.507,5.507,0,0,1,2.856-2.064Zm0.24,3.576a1.92,1.92,0,0,0-.96.408c-0.7.544-1.245,2.168-1.68,3.024-1.177,2.312-2.04,4.7-4.248,6-1.719,1.009-4.594.953-6.84,1.392-1.649.323-2.95,0.169-3.24,1.848-0.194,1.125,1.229,2.18,1.8,2.64l1.872,1.848a8.736,8.736,0,0,1,3.12,4.056,9.247,9.247,0,0,1-.12,4.488L24.984,48.5c-0.313,1.469-.553,2.769.624,3.48,1.151,0.7,2.437-.343,3.216-0.744A41.533,41.533,0,0,1,33.936,48.7a5.258,5.258,0,0,1,2.544-.36c2.692,0.452,4.484,1.778,6.6,2.856,0.817,0.416,1.619,1.2,2.9.984a1.254,1.254,0,0,0,.672-0.36c1.029-.841.653-1.855,0.432-2.9l-0.5-2.9a10.346,10.346,0,0,1-.192-5.112A8.661,8.661,0,0,1,49.44,36.96l1.9-1.872c0.582-.469,2.035-1.538,1.824-2.688-0.321-1.749-1.5-1.493-3.1-1.8-2.159-.416-4.786-0.432-6.6-1.224-2.6-1.136-3.542-4.062-4.8-6.528C37.986,21.519,37.865,19.737,35.808,19.752Z"/>
</svg>
