<svg width="46" height="46" viewBox="0 0 46 46" fill="none" xmlns="http://www.w3.org/2000/svg">
<path d="M45 2.40428C45 2.03183 44.8561 1.67464 44.6 1.41129C44.3439 1.14793 43.9966 0.999989 43.6344 1L39.993 1.00012C39.2388 1.00014 38.6275 1.62888 38.6275 2.40444C38.6275 3.18 39.2389 3.8087 39.9931 3.80868L40.3377 3.80866L26.6413 17.8937L20.3241 11.3975C19.7908 10.8491 18.9262 10.8491 18.3929 11.3975L1.39996 28.8726C0.866683 29.421 0.866681 30.3102 1.39995 30.8586C1.93322 31.407 2.79783 31.407 3.3311 30.8586L19.3585 14.3764L25.6758 20.8726C26.2091 21.421 27.0736 21.421 27.6069 20.8726L42.2689 5.7945L42.2689 6.14903C42.2689 6.92459 42.8803 7.55331 43.6345 7.55331C44.3886 7.55331 45 6.92459 45 6.14903V2.40428Z" fill="url(#paint0_linear_1484_8938)"/>
<path d="M42.5723 14.886C42.5723 14.1104 41.961 13.4817 41.2068 13.4817C40.4526 13.4817 39.8413 14.1104 39.8413 14.886V43.5957C39.8413 44.3713 40.4526 45 41.2068 45C41.961 45 42.5723 44.3713 42.5723 43.5957V14.886Z" fill="url(#paint1_linear_1484_8938)"/>
<path d="M20.7239 22.3755C20.7239 21.5999 20.1125 20.9712 19.3583 20.9712C18.6042 20.9712 17.9928 21.5999 17.9928 22.3755V43.5957C17.9928 44.3713 18.6042 45 19.3583 45C20.1125 45 20.7239 44.3713 20.7239 43.5957V22.3755Z" fill="url(#paint2_linear_1484_8938)"/>
<path d="M35.2895 22.3755C35.2895 21.5999 34.6781 20.9712 33.924 20.9712C33.1698 20.9712 32.5584 21.5999 32.5584 22.3755V43.5957C32.5584 44.3713 33.1698 45 33.924 45C34.6781 45 35.2895 44.3713 35.2895 43.5957V22.3755Z" fill="url(#paint3_linear_1484_8938)"/>
<path d="M28.0067 27.3685C28.0067 26.5929 27.3953 25.9642 26.6412 25.9642C25.887 25.9642 25.2756 26.5929 25.2756 27.3685V43.5957C25.2756 44.3713 25.887 45 26.6412 45C27.3953 45 28.0067 44.3713 28.0067 43.5957V27.3685Z" fill="url(#paint4_linear_1484_8938)"/>
<path d="M13.441 28.6167C13.441 27.8412 12.8297 27.2125 12.0755 27.2125C11.3214 27.2125 10.71 27.8412 10.71 28.6167V43.5957C10.71 44.3713 11.3214 45 12.0755 45C12.8297 45 13.441 44.3713 13.441 43.5957V28.6167Z" fill="url(#paint5_linear_1484_8938)"/>
<path d="M6.15881 36.1062C6.15881 35.3307 5.54745 34.7019 4.79328 34.7019C4.03912 34.7019 3.42776 35.3307 3.42776 36.1062V43.5957C3.42776 44.3713 4.03912 45 4.79328 45C5.54745 45 6.15881 44.3713 6.15881 43.5957V36.1062Z" fill="url(#paint6_linear_1484_8938)"/>
<path d="M45 2.40428C45 2.03183 44.8561 1.67464 44.6 1.41129C44.3439 1.14793 43.9966 0.999989 43.6344 1L39.993 1.00012C39.2388 1.00014 38.6275 1.62888 38.6275 2.40444C38.6275 3.18 39.2389 3.8087 39.9931 3.80868L40.3377 3.80866L26.6413 17.8937L20.3241 11.3975C19.7908 10.8491 18.9262 10.8491 18.3929 11.3975L1.39996 28.8726C0.866683 29.421 0.866681 30.3102 1.39995 30.8586C1.93322 31.407 2.79783 31.407 3.3311 30.8586L19.3585 14.3764L25.6758 20.8726C26.2091 21.421 27.0736 21.421 27.6069 20.8726L42.2689 5.7945L42.2689 6.14903C42.2689 6.92459 42.8803 7.55331 43.6345 7.55331C44.3886 7.55331 45 6.92459 45 6.14903V2.40428Z" stroke="url(#paint7_linear_1484_8938)" stroke-linecap="round" stroke-linejoin="round"/>
<path d="M42.5723 14.886C42.5723 14.1104 41.961 13.4817 41.2068 13.4817C40.4526 13.4817 39.8413 14.1104 39.8413 14.886V43.5957C39.8413 44.3713 40.4526 45 41.2068 45C41.961 45 42.5723 44.3713 42.5723 43.5957V14.886Z" stroke="url(#paint8_linear_1484_8938)" stroke-linecap="round" stroke-linejoin="round"/>
<path d="M20.7239 22.3755C20.7239 21.5999 20.1125 20.9712 19.3583 20.9712C18.6042 20.9712 17.9928 21.5999 17.9928 22.3755V43.5957C17.9928 44.3713 18.6042 45 19.3583 45C20.1125 45 20.7239 44.3713 20.7239 43.5957V22.3755Z" stroke="url(#paint9_linear_1484_8938)" stroke-linecap="round" stroke-linejoin="round"/>
<path d="M35.2895 22.3755C35.2895 21.5999 34.6781 20.9712 33.924 20.9712C33.1698 20.9712 32.5584 21.5999 32.5584 22.3755V43.5957C32.5584 44.3713 33.1698 45 33.924 45C34.6781 45 35.2895 44.3713 35.2895 43.5957V22.3755Z" stroke="url(#paint10_linear_1484_8938)" stroke-linecap="round" stroke-linejoin="round"/>
<path d="M28.0067 27.3685C28.0067 26.5929 27.3953 25.9642 26.6412 25.9642C25.887 25.9642 25.2756 26.5929 25.2756 27.3685V43.5957C25.2756 44.3713 25.887 45 26.6412 45C27.3953 45 28.0067 44.3713 28.0067 43.5957V27.3685Z" stroke="url(#paint11_linear_1484_8938)" stroke-linecap="round" stroke-linejoin="round"/>
<path d="M13.441 28.6167C13.441 27.8412 12.8297 27.2125 12.0755 27.2125C11.3214 27.2125 10.71 27.8412 10.71 28.6167V43.5957C10.71 44.3713 11.3214 45 12.0755 45C12.8297 45 13.441 44.3713 13.441 43.5957V28.6167Z" stroke="url(#paint12_linear_1484_8938)" stroke-linecap="round" stroke-linejoin="round"/>
<path d="M6.15881 36.1062C6.15881 35.3307 5.54745 34.7019 4.79328 34.7019C4.03912 34.7019 3.42776 35.3307 3.42776 36.1062V43.5957C3.42776 44.3713 4.03912 45 4.79328 45C5.54745 45 6.15881 44.3713 6.15881 43.5957V36.1062Z" stroke="url(#paint13_linear_1484_8938)" stroke-linecap="round" stroke-linejoin="round"/>
<defs>
<linearGradient id="paint0_linear_1484_8938" x1="45" y1="1.00001" x2="-3.06137" y2="6.00574" gradientUnits="userSpaceOnUse">
<stop stop-color="#5771FF"/>
<stop offset="1" stop-color="#465BCC"/>
</linearGradient>
<linearGradient id="paint1_linear_1484_8938" x1="45" y1="1.00001" x2="-3.06137" y2="6.00574" gradientUnits="userSpaceOnUse">
<stop stop-color="#5771FF"/>
<stop offset="1" stop-color="#465BCC"/>
</linearGradient>
<linearGradient id="paint2_linear_1484_8938" x1="45" y1="1.00001" x2="-3.06137" y2="6.00574" gradientUnits="userSpaceOnUse">
<stop stop-color="#5771FF"/>
<stop offset="1" stop-color="#465BCC"/>
</linearGradient>
<linearGradient id="paint3_linear_1484_8938" x1="45" y1="1.00001" x2="-3.06137" y2="6.00574" gradientUnits="userSpaceOnUse">
<stop stop-color="#5771FF"/>
<stop offset="1" stop-color="#465BCC"/>
</linearGradient>
<linearGradient id="paint4_linear_1484_8938" x1="45" y1="1.00001" x2="-3.06137" y2="6.00574" gradientUnits="userSpaceOnUse">
<stop stop-color="#5771FF"/>
<stop offset="1" stop-color="#465BCC"/>
</linearGradient>
<linearGradient id="paint5_linear_1484_8938" x1="45" y1="1.00001" x2="-3.06137" y2="6.00574" gradientUnits="userSpaceOnUse">
<stop stop-color="#5771FF"/>
<stop offset="1" stop-color="#465BCC"/>
</linearGradient>
<linearGradient id="paint6_linear_1484_8938" x1="45" y1="1.00001" x2="-3.06137" y2="6.00574" gradientUnits="userSpaceOnUse">
<stop stop-color="#5771FF"/>
<stop offset="1" stop-color="#465BCC"/>
</linearGradient>
<linearGradient id="paint7_linear_1484_8938" x1="45" y1="1.00001" x2="-3.06137" y2="6.00574" gradientUnits="userSpaceOnUse">
<stop stop-color="#5771FF"/>
<stop offset="1" stop-color="#465BCC"/>
</linearGradient>
<linearGradient id="paint8_linear_1484_8938" x1="45" y1="1.00001" x2="-3.06137" y2="6.00574" gradientUnits="userSpaceOnUse">
<stop stop-color="#5771FF"/>
<stop offset="1" stop-color="#465BCC"/>
</linearGradient>
<linearGradient id="paint9_linear_1484_8938" x1="45" y1="1.00001" x2="-3.06137" y2="6.00574" gradientUnits="userSpaceOnUse">
<stop stop-color="#5771FF"/>
<stop offset="1" stop-color="#465BCC"/>
</linearGradient>
<linearGradient id="paint10_linear_1484_8938" x1="45" y1="1.00001" x2="-3.06137" y2="6.00574" gradientUnits="userSpaceOnUse">
<stop stop-color="#5771FF"/>
<stop offset="1" stop-color="#465BCC"/>
</linearGradient>
<linearGradient id="paint11_linear_1484_8938" x1="45" y1="1.00001" x2="-3.06137" y2="6.00574" gradientUnits="userSpaceOnUse">
<stop stop-color="#5771FF"/>
<stop offset="1" stop-color="#465BCC"/>
</linearGradient>
<linearGradient id="paint12_linear_1484_8938" x1="45" y1="1.00001" x2="-3.06137" y2="6.00574" gradientUnits="userSpaceOnUse">
<stop stop-color="#5771FF"/>
<stop offset="1" stop-color="#465BCC"/>
</linearGradient>
<linearGradient id="paint13_linear_1484_8938" x1="45" y1="1.00001" x2="-3.06137" y2="6.00574" gradientUnits="userSpaceOnUse">
<stop stop-color="#5771FF"/>
<stop offset="1" stop-color="#465BCC"/>
</linearGradient>
</defs>
</svg>
