<svg xmlns="http://www.w3.org/2000/svg" width="72" height="72" viewBox="0 0 72 72">
  <defs>
    <style>
      .cls-1 {
        fill-rule: evenodd;
      }
    </style>
  </defs>
  <path id="plane" class="cls-1" d="M49.752,16.9c3.506-.053,6.5,3.115,5.064,6.768-0.6,1.525-1.885,2.485-2.952,3.552l-4.56,4.56L50.76,42.168l1.224,3.672a13.241,13.241,0,0,1,.7,2.232,1.945,1.945,0,0,1-.456,1.392l-2.5,2.472a3.386,3.386,0,0,1-1.584,1.176c-1.892.456-2.672-1.847-3.288-2.856l-6.024-9.984-5.9,5.9c0.321,0.847,1.373,3.354,1.032,4.32-0.326.924-1.587,1.851-2.256,2.52-0.633.633-1.506,1.843-2.928,1.272a3.31,3.31,0,0,1-1.536-1.944L24.72,47.3l-1.344-.648-3.648-1.848a4.016,4.016,0,0,1-1.872-1.3C17,42.056,18.323,41,19.008,40.32a9.614,9.614,0,0,1,2.448-2.232c0.978-.381,3.536.668,4.392,1.008l5.9-5.9-0.024-.048L20.712,26.568c-1.01-.617-2.6-1.655-1.536-3.336L21.888,20.5a3.227,3.227,0,0,1,1.488-1.1,2.933,2.933,0,0,1,1.752.288l3.024,1.008L40.272,24.7l3.984-3.984a17.494,17.494,0,0,1,3.6-3.288,5.187,5.187,0,0,1,1.224-.432Zm0.12,3a6.944,6.944,0,0,0-.768.264,16.635,16.635,0,0,0-2.3,2.256l-5.736,5.712L24.12,22.488,22.488,24.1l0.024,0.048L36.6,32.592l-9.936,9.936L22.44,41.112l-1.128,1.152L26.976,45.1l2.784,5.616,1.152-1.152L29.5,45.36l9.96-9.936L47.9,49.536l1.608-1.584V47.928L43.9,30.936l7.92-7.944C52.822,21.479,51.559,19.873,49.872,19.9Z"/>
</svg>
