<svg xmlns="http://www.w3.org/2000/svg" width="72" height="72" viewBox="0 0 72 72">
  <defs>
    <style>
      .cls-1 {
        fill-rule: evenodd;
      }
    </style>
  </defs>
  <path id="zoom" class="cls-1" d="M31.536,17.76c7.392-.119,12.1,3.754,14.28,8.832a15.4,15.4,0,0,1,.648,9.84,18.327,18.327,0,0,1-2.376,4.752l8.688,8.688,1.2,1.272a2.206,2.206,0,0,1-.48,2.664c-1.728,1.337-3.088-.52-3.96-1.392l-8.352-8.328L39.408,45.24A15.932,15.932,0,0,1,34.3,46.9a13.627,13.627,0,0,1-7.032-.816,14.281,14.281,0,0,1-8.856-9.408,14.772,14.772,0,0,1-.456-6.84,17.993,17.993,0,0,1,.96-3.24,14.619,14.619,0,0,1,8.424-7.968,17.353,17.353,0,0,1,2.832-.72Zm0.624,4.056-1.224.1a12.6,12.6,0,0,0-2.208.552,10.718,10.718,0,0,0-6.264,6.264C20.114,34.687,24.042,40.238,28.08,42a9.737,9.737,0,0,0,4.8.936,19.569,19.569,0,0,0,2.544-.432,10.581,10.581,0,0,0,6.72-6.072,11.1,11.1,0,0,0,.024-7.968A10.428,10.428,0,0,0,32.16,21.816Z"/>
</svg>
