<svg xmlns="http://www.w3.org/2000/svg" width="72" height="72" viewBox="0 0 72 72">
  <defs>
    <style>
      .cls-1 {
        fill-rule: evenodd;
      }
    </style>
  </defs>
  <path id="gear" class="cls-1" d="M33.1,12.816h4.416a3.71,3.71,0,0,1,2.064.288,3.4,3.4,0,0,1,.72,1.848l1.056,4.224c1.105,0.181,1.942.954,2.928,1.2l3.048-1.824a4.687,4.687,0,0,1,1.56-.84,1.689,1.689,0,0,1,1.56.816L53.16,21.24a2.8,2.8,0,0,1,1.128,1.56,2.225,2.225,0,0,1-.624,1.488l-1.464,2.5a3.278,3.278,0,0,0-.576,1.008,12.155,12.155,0,0,1,1.224,2.88l4.392,1.08c0.777,0.215,1.449.258,1.8,0.888,0.31,0.557.144,3,.144,3.912s0.173,2.345-.216,2.928a2.909,2.909,0,0,1-1.824.792l-4.32,1.08c-0.175,1.069-.952,1.941-1.176,2.88l2.5,4.1a1.568,1.568,0,0,1,.048,1.152,3.2,3.2,0,0,1-.816.936l-1.752,1.752c-0.5.5-1.711,2.168-2.712,1.992a4.119,4.119,0,0,1-1.416-.744l-3.12-1.848-1.032.5-2.016.768-1.08,4.392c-0.214.776-.258,1.45-0.888,1.8-0.557.31-3,.144-3.912,0.144s-2.345.173-2.928-.216a2.909,2.909,0,0,1-.792-1.824l-1.08-4.32A10.338,10.338,0,0,1,27.72,51.6L24.6,53.448a3.953,3.953,0,0,1-1.392.72,1.677,1.677,0,0,1-1.512-.816L18.648,50.3a1.638,1.638,0,0,1-.792-1.56,4.119,4.119,0,0,1,.72-1.344l1.32-2.256a2.812,2.812,0,0,0,.5-0.888,11.413,11.413,0,0,1-1.248-2.928l-4.392-1.08c-0.777-.214-1.449-0.258-1.8-0.888-0.31-.557-0.144-3-0.144-3.912s-0.173-2.344.216-2.928a2.9,2.9,0,0,1,1.824-.792l4.32-1.08a9.656,9.656,0,0,1,1.056-2.616L17.976,24.24a1.994,1.994,0,0,1-.552-1.68c0.227-.791,2.09-2.329,2.712-2.952,0.5-.5,1.627-2.084,2.64-1.9a4.474,4.474,0,0,1,1.488.792l3.312,1.968c0.992-.465,2-0.886,3.1-1.32l0.984-3.984a5.5,5.5,0,0,1,.552-1.848A1.98,1.98,0,0,1,33.1,12.816ZM35.448,26.5l-0.912.1a11.147,11.147,0,0,0-1.848.48,9.5,9.5,0,0,0-.456,17.64,8.413,8.413,0,0,0,4.32.792,16.792,16.792,0,0,0,2.184-.384,9.483,9.483,0,0,0,5.976-5.28,12.093,12.093,0,0,0,.672-2.232,9.344,9.344,0,0,0-.672-5.376C43.245,28.849,40.32,26.48,35.448,26.5Z"/>
</svg>
