<svg xmlns="http://www.w3.org/2000/svg" width="44" height="44" viewBox="0 0 44 44">
  <defs>
    <style>
      .cls-1 {
        fill-rule: evenodd;
      }
    </style>
  </defs>
  <path id="ffddss" class="cls-1" d="M21.958,2a3.062,3.062,0,0,1,1.71.834A17.341,17.341,0,0,0,26,4.089a42.166,42.166,0,0,0,8.841,2.565l2.544,0.271,1.543,0.063a1.844,1.844,0,0,1,1.063.771,8.732,8.732,0,0,1,.229,3.482L40.1,14.035l-0.125,1.689c-0.225,1.356-.244,2.763-0.5,4.045-0.34,1.7-.515,3.323-0.98,4.879-1.928,6.456-4.535,11.363-9.675,14.6a22.753,22.753,0,0,1-4.712,2.189A9.33,9.33,0,0,1,22.042,42a6.152,6.152,0,0,1-2.085-.542,23.237,23.237,0,0,1-4.775-2.21C10.041,36,7.436,31.11,5.507,24.648c-0.516-1.727-.7-3.54-1.063-5.442A56.2,56.2,0,0,1,3.8,11.325a10.68,10.68,0,0,1,.083-3.315,1.8,1.8,0,0,1,.938-0.938,9.736,9.736,0,0,1,1.772-.146C7.558,6.769,8.513,6.8,9.427,6.612a40.362,40.362,0,0,0,8.194-2.356A18.783,18.783,0,0,0,20.1,2.984l1.147-.813C21.463,2.077,21.718,2.1,21.958,2Zm0,3.9A14.638,14.638,0,0,1,18.5,7.634a45.049,45.049,0,0,1-7.923,2.314c-1.064.234-2.171,0.267-3.315,0.417a23.346,23.346,0,0,0,.167,3.878c0.178,1.072.111,2.145,0.292,3.148,0.295,1.631.374,3.183,0.751,4.691,1.343,5.377,3.188,10.086,6.943,13.031a18.338,18.338,0,0,0,4.816,2.752,8.467,8.467,0,0,0,1.793.584,8.631,8.631,0,0,0,2.022-.688,18.5,18.5,0,0,0,4.545-2.648c5.71-4.484,8.151-14.493,8.153-24.749A36,36,0,0,1,25.9,7.822L23.272,6.633A5.817,5.817,0,0,0,21.958,5.9Zm6.234,10.008a1.749,1.749,0,0,1,1.4,2.69l-6.443,7.527c-0.541.68-1.523,2.185-2.877,1.96-1.258-.209-1.852-1.163-2.5-1.981L16.391,24.5a7.2,7.2,0,0,1-1.188-1.46,2.139,2.139,0,0,1,.292-2.064,1.456,1.456,0,0,1,1.835-.209l3.128,3.607,5.254-6.088,1.814-2.106A3.292,3.292,0,0,1,28.193,15.912Z"/>
</svg>
