<svg xmlns="http://www.w3.org/2000/svg" width="72" height="72" viewBox="0 0 72 72">
  <defs>
    <style>
      .cls-1 {
        fill-rule: evenodd;
      }
    </style>
  </defs>
  <path id="cast" class="cls-1" d="M35.776,16.921a2.2,2.2,0,0,1,2.417,1.813q0.009,0.993.017,1.986V51.367a7.645,7.645,0,0,1-.138,2.331,2.244,2.244,0,0,1-1.847,1.381,2.066,2.066,0,0,1-1.623-.5c-0.906-.705-0.812-1.661-0.811-3.246V20.5a6.776,6.776,0,0,1,.173-2.279,2.249,2.249,0,0,1,1.226-1.157Zm-9.669,7.235A2.315,2.315,0,0,1,28.178,25.5a5.1,5.1,0,0,1,.155,1.778V42.2c0,2.832.524,5.411-2.175,5.646a1.959,1.959,0,0,1-1.105-.294,2.193,2.193,0,0,1-1-1.105,5.462,5.462,0,0,1-.138-1.761V30.1c0-1.327-.212-4.028.276-4.835A2.318,2.318,0,0,1,25.5,24.242Zm19.753,0a2.313,2.313,0,0,1,2.055,1.312c0.36,0.838.173,3.126,0.173,4.317V42.216c0,2.842.518,5.394-2.193,5.629a1.959,1.959,0,0,1-1.122-.311,2.219,2.219,0,0,1-.984-1.122,5.224,5.224,0,0,1-.121-1.657V30.078c0-1.373-.215-4.012.293-4.852a2.293,2.293,0,0,1,1.3-.984ZM16.127,28.99a2.19,2.19,0,0,1,2.314,1.8q0.009,1.235.017,2.469v4.558c0,1.222.2,3.292-.259,4.075a2.338,2.338,0,0,1-1.813,1.122,2.078,2.078,0,0,1-1.623-.587c-0.759-.608-0.725-1.647-0.725-3.039V33.928A12.377,12.377,0,0,1,14.21,30.3a2.231,2.231,0,0,1,1.416-1.226Zm39.488,0a2.191,2.191,0,0,1,2.331,1.848q0.009,1.217.017,2.435V37.8c0,1.26.2,3.3-.276,4.109a2.335,2.335,0,0,1-1.813,1.105,2.058,2.058,0,0,1-1.709-.673c-0.713-.715-0.622-1.61-0.622-3.022V33.894a12.281,12.281,0,0,1,.173-3.609,2.239,2.239,0,0,1,1.4-1.209Z"/>
</svg>
