<svg xmlns="http://www.w3.org/2000/svg" width="72" height="72" viewBox="0 0 72 72">
  <defs>
    <style>
      .cls-1 {
        fill-rule: evenodd;
      }
    </style>
  </defs>
  <path id="game" class="cls-1" d="M37.56,20.76h5.832a16.748,16.748,0,0,1,3.288.12c5.8,1.272,9.4,4.578,10.824,10.224,0.65,2.573.264,5.991,0.264,8.976v6.7a17.879,17.879,0,0,1-.192,3.984,7.667,7.667,0,0,1-4.56,5.352,12,12,0,0,1-2.16.552c-3.943.794-6.884-2.874-8.664-4.656-0.736-.736-1.3-1.622-2.52-1.872H34.344a7.877,7.877,0,0,0-2.616.144A6.681,6.681,0,0,0,29.5,52.368l-1.248,1.224L27,54.768A7.534,7.534,0,0,1,20.208,56.5a8.836,8.836,0,0,1-2.232-.888,8.076,8.076,0,0,1-2.352-2.184,8.626,8.626,0,0,1-1.3-3.12,15.528,15.528,0,0,1-.1-3.024V35.328a18.089,18.089,0,0,1,.144-3.576c1.3-5.887,4.784-9.518,10.656-10.824a17.96,17.96,0,0,1,3.624-.168H34.44c-0.036-3.2,1.042-5.223,3.624-5.784a25.958,25.958,0,0,1,4.944-.12,33.147,33.147,0,0,1,4.7.048,3.488,3.488,0,0,0,1.68-.12c0.36-.246.249-1.014,0.48-1.392a1.723,1.723,0,0,1,2.808.216,3.09,3.09,0,0,1-.648,2.856,3.857,3.857,0,0,1-2.04,1.44A10.541,10.541,0,0,1,47.3,18H42.1c-1.34,0-3.178-.282-4.008.36C37.545,18.781,37.553,19.79,37.56,20.76ZM42.384,24l-4.128.048H26.832a18.464,18.464,0,0,0-2.112.336,9.755,9.755,0,0,0-7.008,7.44,18.137,18.137,0,0,0-.192,3.84v11.4a13.586,13.586,0,0,0,.072,2.76,4.467,4.467,0,0,0,1.392,2.448,4.835,4.835,0,0,0,5.28.48,9.01,9.01,0,0,0,1.464-1.344l2.112-2.064a8.443,8.443,0,0,1,2.52-2.064,8.3,8.3,0,0,1,1.824-.432h3.048c2.57,0,5.465-.214,7.1.792a6.164,6.164,0,0,1,1.488,1.368l1.464,1.416a15,15,0,0,0,2.568,2.4,4.588,4.588,0,0,0,5.9-1.416c0.825-1.244.72-3.113,0.72-5.184V35.544a16.424,16.424,0,0,0-.1-3.168c-0.965-4.4-3.514-7.215-7.9-8.184A20.244,20.244,0,0,0,42.384,24ZM27.792,34.44c1.668-.041,4.082-0.322,4.368,1.152a1.761,1.761,0,0,1-.168,1.008c-0.547,1.278-2.491,1-4.2.96,0.025,1.755.306,4.116-1.224,4.392a1.689,1.689,0,0,1-.984-0.192c-1.25-.578-0.955-2.489-0.936-4.2-1.776.043-4.18,0.35-4.392-1.32A1.737,1.737,0,0,1,20.4,35.5c0.511-1.382,2.473-1.093,4.248-1.056-0.025-1.762-.317-4.116,1.224-4.392a1.676,1.676,0,0,1,.864.144C28.114,30.71,27.812,32.658,27.792,34.44Zm17.76-3.888a1.667,1.667,0,1,1-1.32,1.008A2.544,2.544,0,0,1,45.552,30.552Zm-3.768,3.792a1.674,1.674,0,1,1-1.392,1.1A2.251,2.251,0,0,1,41.784,34.344Zm7.584,0a1.671,1.671,0,0,1,.432,3.312,1.653,1.653,0,0,1-1.752-2.328A2.48,2.48,0,0,1,49.368,34.344ZM45.5,38.16a1.67,1.67,0,1,1-1.3,1.08A2.494,2.494,0,0,1,45.5,38.16Z"/>
</svg>
