<svg xmlns="http://www.w3.org/2000/svg" width="72" height="72" viewBox="0 0 72 72">
  <defs>
    <style>
      .cls-1 {
        fill-rule: evenodd;
      }
    </style>
  </defs>
  <path id="saved" class="cls-1" d="M35.81,11.879a3.06,3.06,0,0,1,2.055.95,18.929,18.929,0,0,0,2.521,1.364,44.134,44.134,0,0,0,6.924,2.348c1.041,0.266,2.122.421,3.212,0.639,0.929,0.186,1.9.152,2.883,0.311a15.945,15.945,0,0,1,1.848.1,1.862,1.862,0,0,1,1.019.794c0.476,0.786.211,2.73,0.207,3.9L56.34,25.312l-0.155,2.124L56.1,28.541l-0.414,3.212-0.345,2.176c-0.384,1.737-.705,3.446-1.209,5.059-2.142,6.866-5.488,12.173-11.119,15.54a22.976,22.976,0,0,1-4.973,2.193,15.081,15.081,0,0,1-1.813.518,6.065,6.065,0,0,1-2.262-.518,24.028,24.028,0,0,1-5.646-2.607c-5.492-3.461-8.6-9-10.67-15.9-0.466-1.551-.725-3.195-1.088-4.852l-0.328-2.21c-0.228-1.19-.207-2.449-0.414-3.712L15.66,25.312l-0.138-2.987c0-1-.231-2.953.086-3.695a1.865,1.865,0,0,1,1.036-1,11.651,11.651,0,0,1,1.951-.138c1.092-.176,2.172-0.149,3.194-0.363l2.832-.57a44.028,44.028,0,0,0,6.8-2.279,20.739,20.739,0,0,0,2.711-1.45l1-.742A6.294,6.294,0,0,1,35.81,11.879ZM19.1,21.065q0.043,1.3.086,2.607,0.035,0.665.069,1.329c0.149,0.915.061,1.843,0.207,2.711,0.288,1.7.289,3.371,0.639,4.973l0.622,3.022a32.641,32.641,0,0,0,3.263,8.581,18.856,18.856,0,0,0,4.3,5.318,20.212,20.212,0,0,0,5.612,3.28,10.407,10.407,0,0,0,2.141.691l1.744-.57a23.66,23.66,0,0,0,4.092-1.986,21.107,21.107,0,0,0,1.848-1.416,20.531,20.531,0,0,0,4.714-6.078A28.937,28.937,0,0,0,50.193,39.4a41.142,41.142,0,0,0,1.347-4.938c0.326-1.314.463-2.744,0.725-4.144L52.4,29.042c0.169-.956.113-1.975,0.276-2.987q0.052-.837.1-1.675L52.9,21.065a40.576,40.576,0,0,1-12.432-2.918,26.929,26.929,0,0,1-3.332-1.554L35.983,15.9l-1.312.794a25.525,25.525,0,0,1-3.142,1.45A40.322,40.322,0,0,1,19.1,21.065ZM43.355,27.54a2.293,2.293,0,0,1,2.538,2.365,2.26,2.26,0,0,1-.259,1.14c-0.582,1.015-1.666,1.649-2.383,2.538L37.3,39.66c-0.644.8-1.99,2.193-3.643,1.917a4.6,4.6,0,0,1-2.78-1.658l-1.64-1.675-1.416-1.45a7.815,7.815,0,0,1-.656-0.725,2.634,2.634,0,0,1,.086-2.642,2.4,2.4,0,0,1,3.073-.691,4.611,4.611,0,0,1,1.14,1.071l2.5,2.521L34.5,35.81l2.486-2.538,3.488-3.557a9.861,9.861,0,0,1,1.968-1.9A7.838,7.838,0,0,1,43.355,27.54Z"/>
</svg>
