<svg xmlns="http://www.w3.org/2000/svg" width="72" height="72" viewBox="0 0 72 72">
  <defs>
    <style>
      .cls-1 {
        fill-rule: evenodd;
      }
    </style>
  </defs>
  <path id="headphone" class="cls-1" d="M35.376,14.928a21.458,21.458,0,0,1,5.688.6,20.971,20.971,0,0,1,15.12,14.328,29.558,29.558,0,0,1,.744,3.552l0.144,1.944-0.048,1.776-0.1,1.368a29.522,29.522,0,0,1-.7,3.384L55.68,43.44,56.088,44.3a5.55,5.55,0,0,1,.336,2.832,12.143,12.143,0,0,1-1.992,4.248c-1.31,2.188-2.153,4.487-4.752,5.4-2.39.84-4.326-.256-5.832-1.152l-2.376-1.368c-0.993-.59-2.177-0.911-2.424-2.256-0.171-.933,1.166-2.738,1.536-3.36l4.32-7.464c0.608-1.015,1.039-2.531,2.328-2.856a2.337,2.337,0,0,1,1.848.5l3.48,1.992V40.776a11.887,11.887,0,0,0,.624-3.384,9.983,9.983,0,0,0,0-2.88c-0.137-.809-0.128-1.526-0.312-2.256A18.257,18.257,0,0,0,49.848,25.7a16.919,16.919,0,0,0-6.984-5.568,17.914,17.914,0,0,0-13.872.1,16.8,16.8,0,0,0-9.5,10.752A15.712,15.712,0,0,0,18.84,37.9c0.182,1.035.378,2,.6,2.928l3.648-2.088a2.191,2.191,0,0,1,1.92-.336c1.15,0.449,1.656,2.061,2.256,3.072L31.9,49.416c0.585,0.978,1.611,2.33.624,3.6A10.613,10.613,0,0,1,29.9,54.624c-2.166,1.284-5.3,3.638-8.52,1.752-1.85-1.083-2.63-2.986-3.72-4.824-1-1.689-2.717-3.749-1.944-6.552a3.909,3.909,0,0,1,.6-1.488L15.6,41.28a31.845,31.845,0,0,1-.624-3.768,7.46,7.46,0,0,1-.024-2.16l0.12-1.944a31.01,31.01,0,0,1,.864-3.84A20.679,20.679,0,0,1,28.416,16.32,25.864,25.864,0,0,1,32.9,15.144ZM23.616,42.792c-1.024.972-3.576,1.495-4.128,2.832a2.256,2.256,0,0,0,.24,1.944l2.256,3.84c0.5,0.843.776,1.638,1.92,1.848a2.281,2.281,0,0,0,1.7-.552L28.44,51.1l-0.024-.072Zm24.744,0-3.456,6a15.581,15.581,0,0,0-1.32,2.328L46.392,52.7a2.284,2.284,0,0,0,1.7.552c1.143-.209,1.42-1.005,1.92-1.848l2.256-3.84a2.255,2.255,0,0,0,.24-1.944C52.1,44.616,49.385,43.405,48.36,42.792Z"/>
</svg>
