<svg xmlns="http://www.w3.org/2000/svg" width="72" height="72" viewBox="0 0 72 72">
  <defs>
    <style>
      .cls-1 {
        fill-rule: evenodd;
      }
    </style>
  </defs>
  <path id="geo" class="cls-1" d="M35.4,13.248a13.721,13.721,0,0,1,13.392,8.64,13.789,13.789,0,0,1,.984,7.608,40.064,40.064,0,0,1-5.9,14.04c-1.5,2.377-4.425,6.685-7.584,7.2a3.234,3.234,0,0,1-2.16-.576,13.735,13.735,0,0,1-3.864-3.624,43.867,43.867,0,0,1-7.272-13.872,16.518,16.518,0,0,1-.6-8.28,14.067,14.067,0,0,1,8.472-10.152,16.287,16.287,0,0,1,2.928-.816Zm0.192,4.032-0.648.048-1.536.288a9.582,9.582,0,0,0-4.68,2.88,12.18,12.18,0,0,0-2.352,4.32,10.87,10.87,0,0,0,.072,5.424A34.877,34.877,0,0,0,29.9,38.712c0.866,1.48,1.671,2.914,2.64,4.272,0.521,0.73,1.15,1.375,1.7,2.064a6.873,6.873,0,0,0,1.776,1.56,5.637,5.637,0,0,0,1.44-1.248,25.833,25.833,0,0,0,3.5-4.7,34.5,34.5,0,0,0,4.9-11.88,9.655,9.655,0,0,0-.768-5.4A9.68,9.68,0,0,0,35.592,17.28Zm0.072,2.712a6.1,6.1,0,0,1,6.144,4.08,6.92,6.92,0,0,1,.1,4.416,6.349,6.349,0,0,1-5.376,4.248A5.287,5.287,0,0,1,33.7,32.28a6.418,6.418,0,0,1,.072-11.88l1.248-.336Zm0.192,4.032-0.6.12a2.389,2.389,0,0,0-1.44,1.536A2.35,2.35,0,1,0,35.856,24.024ZM19.944,38.976a2.03,2.03,0,0,1,2.04,2.9A4.079,4.079,0,0,1,20.52,43.2c-1.083.817-2.823,2.58-2.16,4.632,1,3.092,5.569,4.834,8.832,5.808,6.722,2.007,17.189,1.158,22.176-1.752,1.714-1,3.615-2.022,4.272-4.056,0.663-2.053-1.077-3.814-2.16-4.632l-0.96-.672a2.113,2.113,0,0,1-.168-2.928c1.186-1.468,2.874-.078,3.744.6,1.939,1.511,4.567,4.713,3.432,8.52-1.505,5.05-6.974,7.592-12.216,8.952-1.569.407-3.225,0.566-4.944,0.864l-2.616.168a10.223,10.223,0,0,1-2.784.024L33.744,58.7c-1.285-.208-2.575-0.141-3.792-0.384l-3.36-.672a24.427,24.427,0,0,1-9.264-4.512,8.73,8.73,0,0,1-2.352-3.048,10.067,10.067,0,0,1-.6-1.776,7.2,7.2,0,0,1,.312-3.84A9.681,9.681,0,0,1,19.944,38.976Z"/>
</svg>
