<svg xmlns="http://www.w3.org/2000/svg" width="72" height="72" viewBox="0 0 72 72">
  <defs>
    <style>
      .cls-1 {
        fill-rule: evenodd;
      }
    </style>
  </defs>
  <path id="cage" class="cls-1" d="M35.328,12a13.066,13.066,0,0,1,7.536,2.136l3.48,1.824c4.824,2.807,9.342,3.751,11.184,9.7a21.928,21.928,0,0,1,.48,6.024V37.2c0,3.361.271,7.228-.672,9.672C55.2,52.4,51.058,53.241,46.32,55.992l-2.976,1.56a18.587,18.587,0,0,1-5.016,2.208L36.576,60a8.242,8.242,0,0,1-3.288-.36,16.666,16.666,0,0,1-4.128-1.824l-2.976-1.56c-4.877-2.837-9.833-3.9-11.688-9.888-0.592-1.911-.5-4.539-0.5-7.08v-6c0-3.054-.123-6.188.72-8.352,2.046-5.249,5.93-6.092,10.44-8.712l3.48-1.824a24.411,24.411,0,0,1,3.312-1.68,13.086,13.086,0,0,1,2.256-.6Zm0.024,3.768-0.744.1-1.32.36A26.969,26.969,0,0,0,29.664,18.1L24.72,20.688c-3.058,1.789-5.507,2.318-6.7,6.1-0.592,1.88-.312,4.84-0.312,7.2v5.9c0,2.448-.058,4.567.672,6.24a7.568,7.568,0,0,0,3.024,3.408l2.328,1.2,4.44,2.328a38.555,38.555,0,0,0,5.592,2.808,5.873,5.873,0,0,0,2.784.36,17.545,17.545,0,0,0,6.264-2.64l5.448-2.856,2.328-1.2a7.855,7.855,0,0,0,3.24-3.936c0.789-2,.456-5.756.456-8.472V31.416a15.311,15.311,0,0,0-.48-5.136c-1.419-3.613-4.407-4.293-7.536-6.12L39.12,16.392A8.95,8.95,0,0,0,35.352,15.768Zm0.384,3.744c2.718-.037,2.155,2.752,2.136,5.352l4.608,2.472c-0.027-1.924-.056-3.261,1.464-3.648a1.994,1.994,0,0,1,1.392.192c1.26,0.767.9,3.473,0.888,5.472l2.256,1.224A5.069,5.069,0,0,1,50.232,31.7a1.895,1.895,0,0,1-2.04,2.928l-1.968-1.008v6.5l2.376,1.3a4.786,4.786,0,0,1,1.608,1.032,2.118,2.118,0,0,1,0,2.28c-1.488,2.014-3.88-.681-5.3-1.032L39.84,46.488l0.024,0.048a5.12,5.12,0,0,1,2.088,1.392,1.954,1.954,0,0,1-1.008,2.808,2.238,2.238,0,0,1-1.872-.384l-3.144-1.7-3.744,2.064a2.128,2.128,0,0,1-1.512-.1,1.989,1.989,0,0,1-.744-2.64,4.9,4.9,0,0,1,2.112-1.44l-5.088-2.808c-1.385.451-3.921,3.006-5.3,0.936A2.136,2.136,0,0,1,21.6,42.6c0.544-.894,1.968-1.269,2.88-1.8l1.392-.744v-6.5c-1.107.543-2.416,1.749-3.768,0.7a1.825,1.825,0,0,1-.672-1.128A2,2,0,0,1,21.7,31.8c0.506-.823,2.1-1.339,2.976-1.848l1.2-.648c-0.022-1.844-.35-4.553.744-5.328l0.7-.312a2.06,2.06,0,0,1,1.152.12c1.211,0.5,1.149,1.751,1.128,3.48l4.536-2.4c-0.011-1.327-.219-3.678.288-4.512A2.3,2.3,0,0,1,35.736,19.512Zm-1.632,9.6-4.512,2.424,0.024,6.5,4.536-2.448Zm3.768,0L37.848,35.64l4.632,2.472V33.288a7.628,7.628,0,0,0-.048-1.7ZM35.952,38.9l-5.04,2.712V41.64l5.04,2.736,5.04-2.808Z"/>
</svg>
