<svg xmlns="http://www.w3.org/2000/svg" width="72" height="72" viewBox="0 0 72 72">
  <defs>
    <style>
      .cls-1 {
        fill-rule: evenodd;
      }
    </style>
  </defs>
  <path id="wave" class="cls-1" d="M28.128,21.744a9.165,9.165,0,0,1,4.92,1.248,8.427,8.427,0,0,0,3.12,1.44c1.494,0.238,2.522-.651,3.36-1.152a11.264,11.264,0,0,1,4.32-1.512c3.308-.511,5,1.863,7.272,2.568a6.1,6.1,0,0,0,3.888-.384,6.6,6.6,0,0,1,1.392-.576,1.631,1.631,0,0,1,1.848,1.8c-0.179.974-.942,1.215-1.752,1.56a9.558,9.558,0,0,1-6.48.576c-1.849-.6-3.11-2.084-5.088-2.4a5.9,5.9,0,0,0-3.912,1.224A10.315,10.315,0,0,1,36.888,27.6a4.93,4.93,0,0,1-1.8-.168c-2.433-.594-3.579-2.123-6.192-2.52a4.235,4.235,0,0,0-2.976.936,14.273,14.273,0,0,1-3.36,1.56c-2.248.658-4.76-.117-6.384-0.816-0.692-.3-1.65-0.72-1.416-1.9A1.622,1.622,0,0,1,16.7,23.4l1.32,0.552a10.281,10.281,0,0,0,2.28.528c1.957,0.3,3.916-1.487,5.232-2.064a9.308,9.308,0,0,1,1.656-.552ZM27.96,29.28A9.321,9.321,0,0,1,33.024,30.5a8.428,8.428,0,0,0,3.312,1.464c1.27,0.191,2.489-.733,3.216-1.176A10.864,10.864,0,0,1,43.7,29.3c3.362-.533,5.069,1.748,7.3,2.52a6.123,6.123,0,0,0,4.032-.36,7.055,7.055,0,0,1,1.3-.552,1.591,1.591,0,0,1,1.92,1.752c-0.171.99-.912,1.237-1.728,1.584a9.718,9.718,0,0,1-6.312.648,16.776,16.776,0,0,1-3.576-1.8,3.4,3.4,0,0,0-2.208-.672,8.007,8.007,0,0,0-2.088.48c-1.7.741-3.594,2.631-6.36,2.208a10.326,10.326,0,0,1-4.1-1.56A5.671,5.671,0,0,0,28.3,32.424c-2.184.33-3.507,1.848-5.592,2.472a10.078,10.078,0,0,1-6.5-.768c-0.708-.3-1.68-0.718-1.44-1.92a1.615,1.615,0,0,1,1.872-1.3,7.628,7.628,0,0,1,1.416.576,9.541,9.541,0,0,0,2.04.5c2.206,0.344,4.04-1.439,5.472-2.064a9.616,9.616,0,0,1,1.56-.528Zm0.168,7.512a9.164,9.164,0,0,1,4.92,1.248,8.385,8.385,0,0,0,3.144,1.44c1.487,0.233,2.733-.793,3.576-1.3a10.739,10.739,0,0,1,4.08-1.368c3.255-.5,5.04,1.821,7.272,2.568a6.144,6.144,0,0,0,4.056-.456,5.389,5.389,0,0,1,1.224-.5A1.633,1.633,0,0,1,58.248,40.2c-0.188,1.027-1.011,1.281-1.872,1.632a9.541,9.541,0,0,1-6.288.552,15.763,15.763,0,0,1-3.312-1.68,3.718,3.718,0,0,0-2.592-.744c-2.657.406-3.8,1.973-6.312,2.544a4.853,4.853,0,0,1-1.7.144,10.159,10.159,0,0,1-4.032-1.416c-0.917-.548-2.35-1.544-4.008-1.272a7.113,7.113,0,0,0-2.616,1.176,12.375,12.375,0,0,1-2.856,1.3,10.006,10.006,0,0,1-6.432-.768c-0.72-.309-1.693-0.708-1.464-1.92a1.622,1.622,0,0,1,1.944-1.3l1.248,0.528a9.8,9.8,0,0,0,2.04.528c2.358,0.384,4.012-1.368,5.544-2.04a9.316,9.316,0,0,1,1.656-.552Zm-0.192,7.536a9.106,9.106,0,0,1,4.824,1.08,9.224,9.224,0,0,0,3.624,1.608c1.227,0.181,2.41-.728,3.12-1.152a11.153,11.153,0,0,1,4.2-1.512c3.424-.543,5.071,1.809,7.368,2.544a6.168,6.168,0,0,0,3.96-.384,7.062,7.062,0,0,1,1.3-.552,1.592,1.592,0,0,1,1.92,1.752c-0.171.99-.913,1.237-1.728,1.584a9.717,9.717,0,0,1-6.312.648,16.816,16.816,0,0,1-3.576-1.8,3.394,3.394,0,0,0-2.208-.672,8.034,8.034,0,0,0-2.04.456c-1.718.738-3.631,2.66-6.408,2.232a10.529,10.529,0,0,1-4.1-1.56,5.512,5.512,0,0,0-3.84-1.1,7.622,7.622,0,0,0-2.664,1.248,11.923,11.923,0,0,1-2.76,1.224,10.021,10.021,0,0,1-6.36-.768c-0.725-.3-1.712-0.712-1.488-1.92a1.606,1.606,0,0,1,1.872-1.32,7.628,7.628,0,0,1,1.416.576,9.611,9.611,0,0,0,2.064.5c2.177,0.339,4.029-1.445,5.448-2.064a9.616,9.616,0,0,1,1.56-.528Z"/>
</svg>
