<svg xmlns="http://www.w3.org/2000/svg" width="72" height="72" viewBox="0 0 72 72">
  <defs>
    <style>
      .cls-1 {
        fill-rule: evenodd;
      }
    </style>
  </defs>
  <path id="fav" class="cls-1" d="M35.592,13.752c3.229-.065,4.615,1.863,6.432,3.24L52.416,25.08l3.36,2.616a3.149,3.149,0,0,1,1.416,1.512,1.742,1.742,0,0,1-2.064,2.232,7.808,7.808,0,0,1-1.776-1.2V44.208c0,3.663.173,6.252-1.248,8.52a7.654,7.654,0,0,1-4.752,3.36,24.754,24.754,0,0,1-5.256.168H27.6a13.737,13.737,0,0,1-2.592-.1,8.375,8.375,0,0,1-3.672-1.752A8.034,8.034,0,0,1,18.7,49.32l-0.048-1.992V30.24a7.716,7.716,0,0,1-1.776,1.2,1.762,1.762,0,0,1-1.992-2.448,4.187,4.187,0,0,1,1.56-1.464l3.792-2.952,9.1-7.08,2.712-2.112a8.458,8.458,0,0,1,1.68-1.152l1.176-.384ZM35.9,17.28l-0.744.168a5.828,5.828,0,0,0-1.152.84L31.944,19.9l-5.3,4.128-4.56,3.552v16.9c0,3.124-.3,5.818,1.464,7.224,1.485,1.186,2.933,1.008,5.544,1.008H43.632a15.745,15.745,0,0,0,2.856-.048,4.194,4.194,0,0,0,3.264-3.024A14.077,14.077,0,0,0,49.92,46.1V27.552l-3.264-2.52-7.248-5.64C38.482,18.693,37.381,17.318,35.9,17.28ZM40.32,27.936a6.139,6.139,0,0,1,2.328.36,7.7,7.7,0,0,1,4.44,8.9,11.065,11.065,0,0,1-1.368,3.024,16.614,16.614,0,0,1-5.952,6.36,7.114,7.114,0,0,1-4.2,1.1C30.423,46.8,28.2,43.345,25.92,39.6a8.362,8.362,0,0,1,.024-8.448,6.559,6.559,0,0,1,3.6-2.856,6.125,6.125,0,0,1,5.64,1.176,2.555,2.555,0,0,1,.768.744l0.12-.1c0.428-.866,2.133-1.756,3.192-2.04Zm0.024,3.552A4.345,4.345,0,0,0,38.16,33c-0.65.92-.63,1.968-1.992,2.208-1.336.235-1.618-1.008-2.04-1.728-0.708-1.208-2.439-2.6-4.224-1.512a4.393,4.393,0,0,0-1.488,4.92,7.182,7.182,0,0,0,.672,1.272,13.745,13.745,0,0,0,4.752,5.328c3.878,2.274,7.292-2.316,8.736-4.728a8.7,8.7,0,0,0,1.1-2.184C44.387,34.025,42.69,31.465,40.344,31.488Z"/>
</svg>
