<svg xmlns="http://www.w3.org/2000/svg" width="72" height="72" viewBox="0 0 72 72">
  <defs>
    <style>
      .cls-1 {
        fill-rule: evenodd;
      }
    </style>
  </defs>
  <path id="mobile" class="cls-1" d="M42.336,14.328c3.211-.031,5.246.771,6.552,2.616,1.549,2.187,1.152,6.371,1.152,10.08V49.7a14.741,14.741,0,0,1-.048,2.688,6.207,6.207,0,0,1-4.2,4.92,12.788,12.788,0,0,1-4.656.36l-2.016-.048H30.264a12.867,12.867,0,0,1-4.392-.432A6.18,6.18,0,0,1,22.1,52.848a11.66,11.66,0,0,1-.144-2.64V46.176L21.936,26.808l-0.024-2.3L21.888,22.56c0-2.806.378-5.11,1.9-6.384a7.358,7.358,0,0,1,3.576-1.752l3.336-.048h6.552ZM42.144,17.5l-3.432.024H30.576c-2.005,0-3.37-.125-4.488.768-1.6,1.277-1.032,5.341-1.032,8.136V46.8c0,3.125-.484,6.409,1.752,7.368a9.414,9.414,0,0,0,3.336.312H41.856c1.561,0,3,.065,3.864-0.6,1.053-.81,1.272-2.4,1.272-4.272V48.36a31.244,31.244,0,0,1-.048-4.416V23.88c0-1.9.179-4.061-.624-5.16C45.538,17.649,44.018,17.487,42.144,17.5Zm-6.288,29.28c3.008-.029,2.924,3.879.288,4.368a2.217,2.217,0,0,1-2.256-2.784A2.252,2.252,0,0,1,35.256,46.9Z"/>
</svg>
