<svg width="48" height="48" viewBox="0 0 48 48" fill="none" xmlns="http://www.w3.org/2000/svg">
<path fill-rule="evenodd" clip-rule="evenodd" d="M15.3672 13.8095C15.3672 12.7685 15.3685 11.8644 15.4527 11.0575C15.5367 10.2518 15.6948 9.65137 15.9417 9.20367C16.1699 8.79006 16.4939 8.46789 17.0261 8.22807C17.5923 7.9729 18.4625 7.78196 19.8103 7.78196C21.1581 7.78196 22.0282 7.9729 22.5945 8.22807C23.1267 8.46789 23.4507 8.79006 23.6788 9.20367C23.9258 9.65137 24.0838 10.2518 24.1679 11.0575C24.252 11.8644 24.2534 12.7685 24.2534 13.8095C24.2534 15.5491 23.6224 17.1034 22.7137 18.2018C21.7865 19.3223 20.6964 19.8371 19.8103 19.8371C18.9242 19.8371 17.8341 19.3223 16.9069 18.2018C15.9981 17.1034 15.3672 15.5491 15.3672 13.8095ZM19.8103 5C18.196 5 16.8446 5.22424 15.7447 5.71986C14.6108 6.23085 13.824 6.99511 13.3116 7.92399C12.8181 8.81878 12.6058 9.81692 12.5047 10.7863C12.4051 11.7418 12.4051 12.7747 12.4051 13.7701V13.8095C12.4051 16.1672 13.2552 18.3221 14.568 19.9088C15.8624 21.4732 17.7343 22.6191 19.8103 22.6191C21.8862 22.6191 23.7582 21.4732 25.0526 19.9088C26.3653 18.3221 27.2154 16.1672 27.2154 13.8095V13.7701C27.2154 12.7747 27.2155 11.7418 27.1158 10.7863C27.0147 9.81692 26.8025 8.81878 26.3089 7.92399C25.7966 6.99511 25.0098 6.23085 23.8758 5.71986C22.7759 5.22424 21.4246 5 19.8103 5ZM30.0844 16.6731C29.6151 17.2176 29.1006 17.6003 28.5968 17.8346C27.9809 18.1211 27.4102 18.6698 27.4102 19.3491C27.4102 20.0283 27.9674 20.5914 28.6299 20.4413C30.0485 20.1198 31.3062 19.2643 32.2386 18.1825C33.4478 16.7796 34.2307 14.8741 34.2307 12.7895V12.7546V12.7546C34.2308 11.8745 34.2308 10.9612 34.139 10.1163C34.0459 9.25918 33.8504 8.37661 33.3958 7.58542C32.9239 6.76409 32.1992 6.08833 31.1548 5.63651C30.4345 5.32492 29.5971 5.13464 28.6388 5.05068C27.9621 4.9914 27.4102 5.55065 27.4102 6.22992C27.4102 6.90919 27.9633 7.44534 28.6377 7.52612C29.2174 7.59555 29.6502 7.71393 29.9746 7.8543C30.4648 8.06634 30.7632 8.35121 30.9734 8.71693C31.2008 9.11279 31.3464 9.6437 31.4238 10.3561C31.5013 11.0696 31.5025 11.869 31.5025 12.7895C31.5025 14.3276 30.9214 15.702 30.0844 16.6731ZM22.9283 27.302H16.6923C11.8693 27.302 7.92309 31.2671 7.92309 36.127C7.92309 37.7603 9.25183 39.0789 10.8462 39.0789H28.7744C30.3688 39.0789 31.6975 37.7603 31.6975 36.127C31.6975 31.2671 27.7514 27.302 22.9283 27.302ZM16.6923 24.3809C10.2348 24.3809 5 29.6739 5 36.127C5 39.3535 7.61742 42 10.8462 42H28.7744C32.0032 42 34.6206 39.3535 34.6206 36.127C34.6206 29.6739 29.3858 24.3809 22.9283 24.3809H16.6923ZM30.3333 22.1557C30.3333 21.8226 30.6033 21.5526 30.9365 21.5526C31.3436 21.5526 31.746 21.5699 32.1428 21.6038C38.2389 22.1249 43 26.553 43 31.9385C43 34.8066 40.2995 37.1315 36.9682 37.1315H36.9303C36.285 37.1315 35.7619 36.6084 35.7619 35.9631C35.7619 35.3178 36.285 34.7947 36.9303 34.7947H36.9682C38.8004 34.7947 40.2857 33.516 40.2857 31.9385C40.2857 27.8451 36.7364 24.4653 32.1428 23.9558C31.7479 23.912 31.3452 23.8894 30.9365 23.8894C30.6033 23.8894 30.3333 23.6194 30.3333 23.2862V22.1557Z" fill="url(#paint0_linear_1447_276)" stroke="#5771FF" stroke-width="0.5" stroke-linejoin="round"/>
<defs>
<linearGradient id="paint0_linear_1447_276" x1="43" y1="5.00001" x2="1.51685" y2="9.43737" gradientUnits="userSpaceOnUse">
<stop stop-color="#5771FF"/>
<stop offset="1" stop-color="#465BCC"/>
</linearGradient>
</defs>
</svg>
