<svg width="48" height="48" viewBox="0 0 48 48" fill="none" xmlns="http://www.w3.org/2000/svg">
<g clip-path="url(#clip0_1447_445)">
<path fill-rule="evenodd" clip-rule="evenodd" d="M13.4094 32.1645L16.1681 37.682L17.2806 36.5695L15.9012 32.4314L25.6031 22.7295L33.8793 36.5233L35.4681 34.9345L29.9506 18.382L37.4365 10.8961C38.1983 10.1343 38.1983 8.89917 37.4365 8.13736C36.6747 7.37555 35.4396 7.37555 34.6777 8.13736L27.1918 15.6233L10.6394 10.1059L9.05068 11.6946L22.8445 19.9709L13.1425 29.6726L9.00448 28.2933L7.89198 29.4058L13.4094 32.1645ZM12.3522 26.3248L9.35789 25.3267C8.65693 25.0931 7.88413 25.2755 7.36166 25.798L4.86603 28.2936C3.92453 29.2351 4.18209 30.8223 5.37302 31.4178L11.2284 34.3455L14.1561 40.2009C14.7516 41.3919 16.3388 41.6494 17.2803 40.7079L19.7759 38.2123C20.2984 37.6898 20.4808 36.917 20.2472 36.216L19.2491 33.2217L25.0221 27.4486L32.0129 39.0999C32.6659 40.1882 34.1677 40.373 35.065 39.4756L37.9634 36.5773C38.4858 36.0549 38.6683 35.282 38.4346 34.5811L33.2984 19.1723L39.5056 12.9652C41.4101 11.0606 41.4101 7.97282 39.5056 6.0683C37.601 4.16378 34.5132 4.16378 32.6087 6.0683L26.4015 12.2755L10.9929 7.13931C10.2919 6.90566 9.51908 7.0881 8.99661 7.61056L6.09828 10.5089C5.2009 11.4063 5.38578 12.9081 6.47402 13.561L18.1254 20.5518L12.3522 26.3248Z" fill="url(#paint0_linear_1447_445)"/>
</g>
<defs>
<linearGradient id="paint0_linear_1447_445" x1="53.989" y1="20.5517" x2="19.1256" y2="-7.90394" gradientUnits="userSpaceOnUse">
<stop stop-color="#5771FF"/>
<stop offset="1" stop-color="#465BCC"/>
</linearGradient>
<clipPath id="clip0_1447_445">
<rect width="48" height="48" fill="white"/>
</clipPath>
</defs>
</svg>
