<svg xmlns="http://www.w3.org/2000/svg" width="72" height="72" viewBox="0 0 72 72">
  <defs>
    <style>
      .cls-1 {
        fill-rule: evenodd;
      }
    </style>
  </defs>
  <path id="parking" class="cls-1" d="M50.136,14.64a6.548,6.548,0,0,1,6.96,5.28c0.505,2.059.24,5.242,0.24,7.7V47.448a19.6,19.6,0,0,1-.384,5.256,6.569,6.569,0,0,1-4.992,4.512,12.285,12.285,0,0,1-2.688.12H23.952a18.471,18.471,0,0,1-3.912-.12A7.478,7.478,0,0,1,17.3,55.944a6.827,6.827,0,0,1-2.4-3.528c-0.661-2.249-.24-6.03-0.24-8.76V28.368c0-2.967-.415-6.668.336-9.072a6.818,6.818,0,0,1,4.128-4.248c1.778-.673,5.414-0.384,7.824-0.384H42.984Zm-2.688,4.272-1.464.024a35.8,35.8,0,0,1-4.824.072H21.144a2.922,2.922,0,0,0-1.992,1.536,5.7,5.7,0,0,0-.144,1.944V49.08a5.872,5.872,0,0,0,.024,1.992,2.312,2.312,0,0,0,.7,1.2,6.847,6.847,0,0,0,4.656.768l7.248-.048h10.1a37.66,37.66,0,0,1,5.352.072h1.488c1.858,0,3.6-.1,4.128-1.44,0.74-1.884.288-5.211,0.288-7.632V27.768c0-2.533.511-6.5-.648-7.992C51.59,18.8,49.139,18.905,47.448,18.912ZM33.456,40.752c0.011,1.821.389,6.119-.384,7.2a2.294,2.294,0,0,1-3.336.1c-0.547-.732-0.432-2.09-0.432-3.312V29.208c0-1.31-.206-2.984.312-3.864,0.627-1.065,2.095-.758,3.6-0.984l2.136,0.024L37.7,24.408a12.06,12.06,0,0,1,3.048.72c2.886,1.262,5.453,5.6,4.152,10.008a9.471,9.471,0,0,1-1.3,2.832C41.643,40.741,38.151,40.754,33.456,40.752Zm0-12.1V36.5c2.627,0.023,5.953.38,6.984-1.32a4.838,4.838,0,0,0,.528-1.752,5.218,5.218,0,0,0-.312-2.616C39.553,28.15,36.932,28.639,33.456,28.656Z"/>
</svg>
