<svg xmlns="http://www.w3.org/2000/svg" width="72" height="72" viewBox="0 0 72 72">
  <defs>
    <style>
      .cls-1 {
        fill-rule: evenodd;
      }
    </style>
  </defs>
  <path id="shield" class="cls-1" d="M35.9,14.952a3.168,3.168,0,0,1,1.9.912,15.975,15.975,0,0,0,2.208,1.2,45.938,45.938,0,0,0,9.48,2.784l2.688,0.288,1.656,0.048a1.9,1.9,0,0,1,1.1.792c0.453,0.828.4,3.073,0.216,4.176l-0.1,2.64c-0.339,2.092-.316,4.3-0.744,6.24-0.331,1.5-.422,3.044-0.84,4.44-2.265,7.559-5.647,13.85-12.456,16.848a20.936,20.936,0,0,1-4.848,1.728,4.4,4.4,0,0,1-2.328-.576,32.2,32.2,0,0,1-4.776-2.184c-5.584-3.414-8.43-8.9-10.536-15.816A57,57,0,0,1,17.5,32.856c-0.242-1.256-.261-2.634-0.48-3.96L16.9,27.072l-0.048-2.328a9.057,9.057,0,0,1,.1-3.552,1.856,1.856,0,0,1,.936-0.912,14.372,14.372,0,0,1,1.92-.144l3.024-.336a48.236,48.236,0,0,0,8.688-2.52,17.991,17.991,0,0,0,2.424-1.248l1.248-.912Zm0.024,4.1a12.1,12.1,0,0,1-3.6,1.8,62.676,62.676,0,0,1-7.776,2.352c-0.855.213-1.763,0.249-2.688,0.408l-1.392.144a29.266,29.266,0,0,0,.312,5.088l0.072,1.536,0.672,4.68c1.451,6.577,3.724,12.057,8.424,15.384A17.3,17.3,0,0,0,35.9,53.3a5.117,5.117,0,0,0,2.184-.7,22.051,22.051,0,0,0,4.584-2.616c4.14-3.128,6.139-8.1,7.608-13.92,0.362-1.434.463-2.9,0.744-4.44,0.218-1.2.174-2.531,0.384-3.792l0.048-1.416a11.776,11.776,0,0,0,.048-2.688,15.065,15.065,0,0,1-3.072-.36,40.247,40.247,0,0,1-8.472-2.352l-2.64-1.2A4.769,4.769,0,0,0,35.928,19.056ZM42.48,29.592a1.841,1.841,0,0,1,1.584,2.736l-6.912,8.064c-0.521.679-1.554,2.272-2.88,2.04-1.4-.244-1.974-1.17-2.688-2.088l-1.32-1.536a8.62,8.62,0,0,1-1.44-1.728,2.384,2.384,0,0,1,.312-2.16,1.655,1.655,0,0,1,1.944-.24L34.368,38.5l0.072-.048,2.28-2.64,3.168-3.672,1.944-2.28Z"/>
</svg>
