<svg viewBox="0 0 1920 706" fill="none" xmlns="http://www.w3.org/2000/svg">
<style>
	@keyframes spin {
		from { transform: translate(0); }
		50% { transform: translate(-100%); }
		to { transform: translate(0); }
	}

	@keyframes spin2 {
		from { transform: translate(0); }
		50% { transform: translate(100%); }
		to { transform: translate(0); }
	}

	.wave1 { animation: spin 20s linear infinite; }
	.wave2 { animation: spin2 20s linear infinite; }
</style>
<g clip-path="url(#clip)">
	<path class="wave1" d="M629.898 148C544.564 148 464.389 168.414 394.784 204.245C330.574 237.297 261.591 266 188.089 266C119.948 266 56.8573 242.316 0 207.549V706H3840V0C3681.29 0 3537.89 60.583 3435.42 158.086C3372.51 217.946 3292.28 266 3201.97 266C3132.24 266 3067.46 236.609 3010.24 199.79C2925.46 145.235 2820.72 113 2707.37 113C2633.54 113 2563.35 126.678 2499.96 151.294C2371.54 201.161 2242.94 266 2103.64 266C2000.52 266 1901.99 229.74 1803.29 202.143C1756.51 189.064 1706.62 182 1654.84 182C1611.55 182 1569.59 186.936 1529.66 196.194C1414.4 222.923 1300.72 266 1181.88 266C1037.53 266 902.259 202.023 763.502 165.263C721.067 154.021 676.244 148 629.898 148Z" fill="url(#paint0)"/>
	<path class="wave2" d="M1276.59 324C1361.56 324 1441.4 344.414 1510.71 380.244C1574.65 413.297 1643.34 442 1716.54 442C1790.92 442 1859.26 413.54 1920 373.219V706H-1920V176C-1761.96 176 -1619.17 236.583 -1517.13 334.085C-1454.48 393.946 -1374.58 442 -1284.66 442C-1215.22 442 -1150.71 412.609 -1093.73 375.79C-1009.31 321.235 -905.014 289 -792.141 289C-718.615 289 -648.728 302.678 -585.603 327.294C-562.959 336.124 -540.31 345.424 -517.596 354.75L-517.584 354.755L-517.583 354.756C-412.03 398.094 -305.096 442 -190.952 442C-107.577 442 -27.2158 418.096 52.67 394.334H52.6711L52.6722 394.333C71.1753 388.829 89.6528 383.333 108.136 378.143C154.717 365.064 204.394 358 255.964 358C299.07 358 340.854 362.936 380.612 372.194C412.049 379.515 443.369 388.063 474.708 396.615C557.788 419.289 641.007 442 726.932 442C827.902 442 924.412 410.432 1020.8 378.904C1061.63 365.549 1102.43 352.201 1143.55 341.263C1185.8 330.021 1230.44 324 1276.59 324Z" fill="#4F67E8"/>
</g>
<defs><linearGradient id="paint0" x1="3840" y1="706" x2="-6.74892e-05" y2="706.002" gradientUnits="userSpaceOnUse"><stop stop-color="#5771FF"/><stop offset="1" stop-color="#465BCC"/></linearGradient><clipPath id="clip0_1450_8690"><rect width="1920" height="706" fill="white"/></clipPath></defs>
</svg>
