<svg xmlns="http://www.w3.org/2000/svg" xmlns:xlink="http://www.w3.org/1999/xlink"><symbol id="icon-arr-link" viewBox="0 0 13 12"><path fill-rule="evenodd" clip-rule="evenodd" d="M3.558.038h8.732V8.77h-1.573V2.722l-8.795 8.796L.81 10.406l8.795-8.795H3.558V.038z" fill="#fff"/></symbol><symbol id="icon-aye" viewBox="0 0 18 10"><path d="M17.886 4.695C17.725 4.503 13.893 0 9 0 4.106 0 .275 4.503.114 4.695a.465.465 0 000 .61C.274 5.497 4.106 10 9 10c4.893 0 8.725-4.503 8.886-4.695a.465.465 0 000-.61zM9 8.965C5.395 8.966 2.273 5.978 1.35 5 2.271 4.022 5.387 1.034 9 1.034c3.604 0 6.726 2.989 7.65 3.966-.922.978-4.038 3.966-7.65 3.966z" fill="#fff"/><path d="M9 1.897C7.037 1.897 5.44 3.289 5.44 5c0 1.711 1.597 3.103 3.56 3.103S12.56 6.711 12.56 5c0-1.711-1.597-3.103-3.56-3.103zm0 5.172C7.69 7.069 6.626 6.141 6.626 5c0-1.14 1.065-2.069 2.374-2.069 1.309 0 2.373.928 2.373 2.069 0 1.14-1.064 2.069-2.373 2.069z" fill="#fff"/></symbol><symbol id="icon-close" viewBox="0 0 38 38"><path class="line" fill="#fff" d="M10.5 9l18.385 18.385-1.414 1.414L9.086 10.414z"/><path class="line" fill="#fff" d="M28.8 10.5L10.415 28.885 9.001 27.47 27.386 9.086z"/></symbol><symbol id="icon-menu" viewBox="0 0 30 19"><rect width="30" height="3" rx="1.5" fill="#fff"/><rect y="8" width="30" height="3" rx="1.5" fill="#fff"/><rect y="16" width="30" height="3" rx="1.5" fill="#fff"/></symbol><symbol id="icon-union" viewBox="0 0 15 16"><path fill-rule="evenodd" clip-rule="evenodd" d="M7.86 0a.977.977 0 00-.981.972V3.71C3.623 3.875.993 5.41.488 7.59c-.097.419.264.772.697.772h.4a.409.409 0 00-.048.19v5.523h-.38c-.44 0-.757.252-.757.563 0 .311.316.563.758.563h12.884c.442 0 .758-.252.758-.563 0-.31-.316-.563-.758-.563h-.379V8.552a.409.409 0 00-.047-.191h.134c.434 0 .794-.353.697-.772-.504-2.18-3.135-3.714-6.39-3.88v-.598H9.69a.977.977 0 00.982-.972V.972A.977.977 0 009.69 0h-1.83zm1.635 1.944H8.057v-.777h1.438v.777zm-7.596 5.25h11.137c-.295-.51-.8-.995-1.532-1.4-1.036-.573-2.443-.933-4.036-.933-1.594 0-3.001.36-4.036.933-.732.405-1.238.89-1.533 1.4zm8.978 1.167h1.66a.409.409 0 00-.047.19v5.523h-1.565V8.552a.409.409 0 00-.048-.191zm-2.738 0H9.8a.409.409 0 00-.048.19v5.523H8.187V8.552a.409.409 0 00-.048-.191zm-2.738 0h1.66a.409.409 0 00-.048.19v5.523H5.45V8.552A.409.409 0 005.4 8.36zm-2.738 0h1.66a.409.409 0 00-.048.19v5.523H2.71V8.552a.409.409 0 00-.047-.191z" fill="url(#paint0_linear_1302_554)"/><defs><linearGradient id="paint0_linear_1302_554" x1="14.8" y1="0" x2="-0.946" y2="1.554" gradientUnits="userSpaceOnUse"><stop stop-color="#5771FF"/><stop offset="1" stop-color="#465BCC"/></linearGradient></defs></symbol> <view id="icon-arr-link-view" viewBox="0 0 13 12"/><view id="icon-aye-view" viewBox="0 22 18 10"/><view id="icon-close-view" viewBox="0 42 38 38"/><view id="icon-menu-view" viewBox="0 90 30 19"/><view id="icon-union-view" viewBox="0 119 15 16"/> <use xlink:href="#icon-arr-link" x="0" y="0" width="13" height="12"/><use xlink:href="#icon-aye" x="0" y="22" width="18" height="10"/><use xlink:href="#icon-close" x="0" y="42" width="38" height="38"/><use xlink:href="#icon-menu" x="0" y="90" width="30" height="19"/><use xlink:href="#icon-union" x="0" y="119" width="15" height="16"/></svg>