<svg xmlns="http://www.w3.org/2000/svg" xmlns:xlink="http://www.w3.org/1999/xlink"><symbol id="icon-arr-link" viewBox="0 0 13 12"><path fill-rule="evenodd" clip-rule="evenodd" d="M3.558.038h8.732V8.77h-1.573V2.722l-8.795 8.796L.81 10.406l8.795-8.795H3.558V.038z"/></symbol><symbol id="icon-arr-right" viewBox="0 0 39 24"><path d="M26.523 23.893l-2.488-2.475 7.45-7.437H.25v-3.598h31.235l-7.45-7.45L26.523.47l11.711 11.712-11.711 11.711z"/></symbol><symbol id="icon-aye" viewBox="0 0 18 10"><path d="M17.886 4.695C17.725 4.503 13.893 0 9 0 4.106 0 .275 4.503.114 4.695a.465.465 0 000 .61C.274 5.497 4.106 10 9 10c4.893 0 8.725-4.503 8.886-4.695a.465.465 0 000-.61zM9 8.965C5.395 8.966 2.273 5.978 1.35 5 2.271 4.022 5.387 1.034 9 1.034c3.604 0 6.726 2.989 7.65 3.966-.922.978-4.038 3.966-7.65 3.966z"/><path d="M9 1.897C7.037 1.897 5.44 3.289 5.44 5c0 1.711 1.597 3.103 3.56 3.103S12.56 6.711 12.56 5c0-1.711-1.597-3.103-3.56-3.103zm0 5.172C7.69 7.069 6.626 6.141 6.626 5c0-1.14 1.065-2.069 2.374-2.069 1.309 0 2.373.928 2.373 2.069 0 1.14-1.064 2.069-2.373 2.069z"/></symbol><symbol id="icon-bag" viewBox="0 0 48 48"><path fill-rule="evenodd" clip-rule="evenodd" d="M34.06 17.893H13.94a.966.966 0 00-.962.861L10.906 38.04a.965.965 0 00.962 1.067h24.264a.965.965 0 00.962-1.067l-2.072-19.286a.966.966 0 00-.962-.861zM13.94 15a3.864 3.864 0 00-3.846 3.446L8.022 37.732A3.861 3.861 0 0011.868 42h24.264a3.861 3.861 0 003.846-4.268l-2.072-19.286A3.864 3.864 0 0034.06 15H13.94z"/><path fill-rule="evenodd" clip-rule="evenodd" d="M24 8.813c-2.96 0-4.2 2.182-4.2 3.28v7.5c0 .777-.627 1.407-1.4 1.407-.773 0-1.4-.63-1.4-1.406v-7.5C17 9.442 19.494 6 24 6s7 3.442 7 6.094v7.5C31 20.37 30.373 21 29.6 21c-.773 0-1.4-.63-1.4-1.406v-7.5c0-1.099-1.24-3.281-4.2-3.281z"/><defs><linearGradient id="paint0_linear_1447_484" x1="40" y1="15" x2="5.197" y2="19.296" gradientUnits="userSpaceOnUse"><stop stop-color="#5771FF"/><stop offset="1" stop-color="#465BCC"/></linearGradient><linearGradient id="paint1_linear_1447_484" x1="31" y1="6" x2="15.687" y2="7.489" gradientUnits="userSpaceOnUse"><stop stop-color="#5771FF"/><stop offset="1" stop-color="#465BCC"/></linearGradient></defs></symbol><symbol id="icon-car" viewBox="0 0 48 48"><path d="M14 28a2 2 0 11-4 0 2 2 0 014 0z"/><path d="M36 30a2 2 0 100-4 2 2 0 000 4z"/><path fill-rule="evenodd" clip-rule="evenodd" d="M41 19l-4.895-9.789A4 4 0 0032.528 7H15.472a4 4 0 00-3.578 2.211L7 19 5.96 20.558A3.998 3.998 0 004 24v7c0 .345.044.68.126 1H4l.186.21a4.009 4.009 0 001.527 2.072A4.001 4.001 0 016 35.77V37a4 4 0 004 4h2a4 4 0 004-4v-1.23c0-.26.025-.518.075-.77h15.85c.05.252.075.51.075.77V37a4 4 0 004 4h2a4 4 0 004-4v-1.23c0-.26.025-.518.075-.77.094-.48.442-.853.784-1.202.433-.443.764-.985.955-1.589l.06-.209A4.01 4.01 0 0044 31v-7c0-.793-.23-1.531-.628-2.153C42.708 20.81 41.683 20.025 41 19zm-1 13a1 1 0 001-1v-7a1 1 0 00-1-1H8a1 1 0 00-1 1v7a1 1 0 001 1h32zm-5.042 3c.028.255.042.512.042.77V37a1 1 0 001 1h2a1 1 0 001-1v-1.23c0-.258.014-.515.042-.77h-4.084zm-26 0h4.085a6.984 6.984 0 00-.043.77V37a1 1 0 01-1 1h-2a1 1 0 01-1-1v-1.23a7 7 0 00-.043-.77zm.896-15l4.724-9.447a1 1 0 01.894-.553h17.056a1 1 0 01.894.553L38.146 20H9.854z"/><path fill-rule="evenodd" clip-rule="evenodd" d="M14 28a2 2 0 11-4 0 2 2 0 014 0zm22 2a2 2 0 100-4 2 2 0 000 4z"/><path d="M34 28a2 2 0 104 0 2 2 0 00-4 0z"/><path d="M12 30a2 2 0 110-4 2 2 0 010 4z"/><path fill-rule="evenodd" clip-rule="evenodd" d="M7 19l4.894-9.789A4 4 0 0115.472 7h17.056a4 4 0 013.577 2.211L41 19l1.038 1.558A3.998 3.998 0 0144 24v7c0 .345-.044.68-.126 1H44l-.186.21a4.009 4.009 0 01-1.526 2.072A3.999 3.999 0 0042 35.77V37a4 4 0 01-4 4h-2a4 4 0 01-4-4v-1.23c0-.26-.025-.518-.075-.77h-15.85c-.05.252-.075.51-.075.77V37a4 4 0 01-4 4h-2a4 4 0 01-4-4v-1.23c0-.26-.025-.518-.075-.77-.094-.48-.442-.853-.784-1.202a3.998 3.998 0 01-.955-1.589L4.126 32A4.007 4.007 0 014 31v-7c0-.793.23-1.531.628-2.153C5.292 20.81 6.316 20.025 7 19zm1 13a1 1 0 01-1-1v-7a1 1 0 011-1h32a1 1 0 011 1v7a1 1 0 01-1 1H8zm5.043 3a6.984 6.984 0 00-.043.77V37a1 1 0 01-1 1h-2a1 1 0 01-1-1v-1.23a7 7 0 00-.043-.77h4.086zm26 0h-4.085c.028.255.042.512.042.77V37a1 1 0 001 1h2a1 1 0 001-1v-1.23c0-.258.014-.515.042-.77zm-.897-15l-4.724-9.447a1 1 0 00-.894-.553H15.472a1 1 0 00-.894.553L9.854 20h28.292z"/><path fill-rule="evenodd" clip-rule="evenodd" d="M34 28a2 2 0 104 0 2 2 0 00-4 0zm-22 2a2 2 0 110-4 2 2 0 010 4z"/><defs><linearGradient id="paint0_linear_1447_449" x1="44" y1="7" x2="0.487" y2="12.332" gradientUnits="userSpaceOnUse"><stop stop-color="#5771FF"/><stop offset="1" stop-color="#465BCC"/></linearGradient><linearGradient id="paint1_linear_1447_449" x1="44" y1="7" x2="0.487" y2="12.332" gradientUnits="userSpaceOnUse"><stop stop-color="#5771FF"/><stop offset="1" stop-color="#465BCC"/></linearGradient><linearGradient id="paint2_linear_1447_449" x1="44" y1="7" x2="0.487" y2="12.332" gradientUnits="userSpaceOnUse"><stop stop-color="#5771FF"/><stop offset="1" stop-color="#465BCC"/></linearGradient><linearGradient id="paint3_linear_1447_449" x1="44" y1="7" x2="0.487" y2="12.332" gradientUnits="userSpaceOnUse"><stop stop-color="#5771FF"/><stop offset="1" stop-color="#465BCC"/></linearGradient><linearGradient id="paint4_linear_1447_449" x1="44" y1="7" x2="0.487" y2="12.332" gradientUnits="userSpaceOnUse"><stop stop-color="#5771FF"/><stop offset="1" stop-color="#465BCC"/></linearGradient><linearGradient id="paint5_linear_1447_449" x1="44" y1="7" x2="0.487" y2="12.332" gradientUnits="userSpaceOnUse"><stop stop-color="#5771FF"/><stop offset="1" stop-color="#465BCC"/></linearGradient><linearGradient id="paint6_linear_1447_449" x1="44" y1="7" x2="0.487" y2="12.332" gradientUnits="userSpaceOnUse"><stop stop-color="#5771FF"/><stop offset="1" stop-color="#465BCC"/></linearGradient><linearGradient id="paint7_linear_1447_449" x1="44" y1="7" x2="0.487" y2="12.332" gradientUnits="userSpaceOnUse"><stop stop-color="#5771FF"/><stop offset="1" stop-color="#465BCC"/></linearGradient></defs></symbol><symbol id="icon-close" viewBox="0 0 38 38"><path class="line" d="M10.5 9l18.385 18.385-1.414 1.414L9.086 10.414z"/><path class="line" d="M28.8 10.5L10.415 28.885 9.001 27.47 27.386 9.086z"/></symbol><symbol id="icon-crew" viewBox="0 0 48 48"><path fill-rule="evenodd" clip-rule="evenodd" d="M15.367 13.81c0-1.042.001-1.946.086-2.753.084-.805.242-1.406.489-1.853.228-.414.552-.736 1.084-.976.566-.255 1.436-.446 2.784-.446 1.348 0 2.218.19 2.785.446.532.24.856.562 1.084.976.247.447.405 1.048.489 1.853.084.807.085 1.711.085 2.752 0 1.74-.63 3.294-1.54 4.393-.927 1.12-2.017 1.635-2.903 1.635-.886 0-1.976-.515-2.903-1.635-.909-1.099-1.54-2.653-1.54-4.393zM19.81 5c-1.614 0-2.965.224-4.065.72-1.134.51-1.921 1.275-2.433 2.204-.494.895-.706 1.893-.807 2.862-.1.956-.1 1.989-.1 2.984v.04c0 2.357.85 4.512 2.163 6.099 1.294 1.564 3.166 2.71 5.242 2.71s3.948-1.146 5.243-2.71c1.312-1.587 2.162-3.742 2.162-6.1v-.039c0-.995 0-2.028-.1-2.984-.1-.97-.313-1.967-.806-2.862-.512-.929-1.3-1.693-2.433-2.204-1.1-.496-2.451-.72-4.066-.72zm10.274 11.673c-.469.545-.983.927-1.487 1.162-.616.286-1.187.835-1.187 1.514 0 .68.557 1.242 1.22 1.092 1.419-.321 2.676-1.177 3.609-2.258a8.29 8.29 0 001.992-5.393v-.035 0c0-.88 0-1.794-.092-2.639-.093-.857-.289-1.74-.743-2.53-.472-.822-1.197-1.498-2.241-1.95-.72-.311-1.558-.501-2.516-.585-.677-.06-1.229.5-1.229 1.179 0 .68.553 1.215 1.228 1.296.58.07 1.012.188 1.337.328.49.212.788.497.998.863.228.396.373.927.45 1.64.078.713.08 1.512.08 2.433a5.983 5.983 0 01-1.419 3.883zm-7.156 10.629h-6.236c-4.823 0-8.769 3.965-8.769 8.825 0 1.633 1.329 2.952 2.923 2.952h17.928c1.595 0 2.924-1.319 2.924-2.952 0-4.86-3.947-8.825-8.77-8.825zm-6.236-2.921C10.235 24.38 5 29.674 5 36.127 5 39.353 7.617 42 10.846 42h17.928c3.23 0 5.847-2.647 5.847-5.873 0-6.453-5.235-11.746-11.693-11.746h-6.236zm13.641-2.225c0-.333.27-.603.604-.603.407 0 .809.017 1.206.05C38.239 22.126 43 26.554 43 31.939c0 2.869-2.7 5.194-6.032 5.194h-.038a1.168 1.168 0 110-2.337h.038c1.832 0 3.318-1.279 3.318-2.857 0-4.093-3.55-7.473-8.143-7.982a10.943 10.943 0 00-1.207-.067.603.603 0 01-.603-.603v-1.13z" stroke-width="0.5" stroke-linejoin="round"/><defs><linearGradient id="paint0_linear_1447_276" x1="43" y1="5" x2="1.517" y2="9.437" gradientUnits="userSpaceOnUse"><stop stop-color="#5771FF"/><stop offset="1" stop-color="#465BCC"/></linearGradient></defs></symbol><symbol id="icon-faucet" viewBox="0 0 48 48"><path fill-rule="evenodd" clip-rule="evenodd" d="M18.667 7.438c0-.794.653-1.438 1.458-1.438h7.778c.805 0 1.458.644 1.458 1.438 0 .793-.653 1.437-1.458 1.437h-2.43v1.917h5.346c6.175 0 11.181 4.934 11.181 11.02v5.75c0 .794-.653 1.438-1.458 1.438h-8.75a1.448 1.448 0 01-1.459-1.438v-4.791c0-.794-.653-1.438-1.458-1.438H8.458A1.448 1.448 0 017 19.896v-7.667c0-.794.653-1.437 1.458-1.437h14.098V8.875h-2.431a1.448 1.448 0 01-1.458-1.438zm-8.75 6.229v4.791h18.958c2.416 0 4.375 1.931 4.375 4.313v3.354h5.833v-4.313c0-4.498-3.7-8.145-8.264-8.145H9.917z"/><path fill-rule="evenodd" clip-rule="evenodd" d="M36 40a2 2 0 002-2c0-.214-.073-.696-.327-1.41-.24-.678-.589-1.41-.99-2.074a9.314 9.314 0 00-.683-.99c-.214.268-.447.6-.682.99-.402.665-.75 1.396-.991 2.074-.254.714-.327 1.196-.327 1.41a2 2 0 002 2zm.674-7.153s-.013.01-.038.023a.154.154 0 01.038-.023zm-1.31.023a.178.178 0 01-.038-.023c0-.002.012.005.038.023zM36 43a5 5 0 005-5c0-2.761-3-8-5-8s-5 5.239-5 8a5 5 0 005 5z"/><defs><linearGradient id="paint0_linear_1447_361" x1="42" y1="6" x2="4.302" y2="11.975" gradientUnits="userSpaceOnUse"><stop stop-color="#5771FF"/><stop offset="1" stop-color="#465BCC"/></linearGradient><linearGradient id="paint1_linear_1447_361" x1="41" y1="30" x2="30.029" y2="30.879" gradientUnits="userSpaceOnUse"><stop stop-color="#5771FF"/><stop offset="1" stop-color="#465BCC"/></linearGradient></defs></symbol><symbol id="icon-game" viewBox="0 0 200 200"><path data-name="1" d="M106 41.6h21.5c5.066 0 10.232-.236 14.5.7 21.162 4.643 35.011 17.64 40.2 38.2 2.371 9.394 1.2 23.783 1.2 35.1v26.1c0 5.778.247 11.778-1.1 16.2a29.561 29.561 0 01-17 19.1 36.341 36.341 0 01-7.4 2c-16.274 3.084-26.521-10.021-33.7-17.2-2.941-2.941-5.31-6.736-10.3-7.6H93.5c-3.3 0-7.479-.4-9.9.6-3.089 1.278-5.358 4.658-7.6 6.9-7.761 7.762-18.588 21.331-36.2 16.9a32.427 32.427 0 01-8.7-3.4 30.644 30.644 0 01-9.2-8.5 31.336 31.336 0 01-4.8-11.3c-.806-3.619-.5-8.31-.5-12.6v-45c0-5.159-.254-10.453.7-14.8 4.768-21.734 18.164-35.457 39.6-40.5 4.58-1.078 10.13-.9 15.7-.9H94c-.115-11.692 3.208-18.128 11.3-21.4 3.508-1.418 8.611-1.2 13.6-1.2h23.2c2.135 0 7.744.51 9.1-.3 1.446-.864 1.123-3.881 2-5.3 2.3-3.725 8.816-3.285 10.6.6 2.349 5.116-2 11.576-4.6 13.6a15.509 15.509 0 01-6 3.1c-2.73.675-6.6.3-9.8.3h-20.3c-4.826 0-12.077-.878-14.9 1.3-2.319 1.789-2.233 5.1-2.2 9.3zM65.1 54.2l-6.3.8a40.925 40.925 0 00-11.9 4.8 37.685 37.685 0 00-16.7 23.1c-1.24 4.844-1 11.127-1 17.2v43.6c0 3.3-.29 7.063.4 9.8a17.054 17.054 0 005.4 9c5.214 4.156 13.5 5.739 20.1 1.6a34.289 34.289 0 005.7-5.2l7.9-7.8c2.994-2.994 5.7-6.092 9.9-7.9a30.134 30.134 0 017-1.6H97c10.2 0 21.1-.775 27.3 3.1 2.525 1.578 4.445 3.845 6.5 5.9l8.8 8.7a30.447 30.447 0 005.8 5.1c3.48 2.061 9.854 2.991 14.4 1.2a20.6 20.6 0 005.2-3.1 17.066 17.066 0 005.4-9c.93-3.68.4-8.98.4-13.3V96.7c0-3.672.235-7.521-.4-10.7a41.319 41.319 0 00-5.2-14.1 37.684 37.684 0 00-23.1-16.7c-7.376-1.888-18.01-1-26.9-1H65.1zM68.5 94c6.952-.1 17.993-1.34 16.7 6.5-1.164 7.053-8.74 5.6-16.7 5.5.1 6.952 1.34 17.993-6.5 16.7-7.05-1.163-5.6-8.743-5.5-16.7-6.952.1-17.993 1.34-16.7-6.5 1.163-7.05 8.743-5.6 16.7-5.5-.1-6.95-1.338-17.993 6.5-16.7 7.053 1.164 5.6 8.741 5.5 16.7zm68.3-14.9c8.706-.219 9.154 11.18 1.7 12.6a6.286 6.286 0 01-7.1-8.1c.872-2.866 2.716-3.381 5.4-4.5zm-14.7 14.6c8.908-.235 9.3 11.166 1.7 12.6-4.625.873-8.3-3.669-7-8.1.82-2.8 2.7-3.413 5.3-4.5zm29.1 0c9.005-.237 9.4 11.221 1.7 12.6a6.284 6.284 0 01-6.9-8.2c.857-2.726 2.685-3.28 5.2-4.4zm-14.7 14.6c9.2-.243 9.538 11.215 1.7 12.6-4.446.785-8.136-3.725-6.8-8.1.84-2.749 2.585-3.379 5.1-4.5z" fill-rule="evenodd"/></symbol><symbol id="icon-graf" viewBox="0 0 46 46"><path d="M45 2.404c0-.372-.144-.73-.4-.993A1.347 1.347 0 0043.634 1h-3.641c-.754 0-1.366.629-1.366 1.404 0 .776.612 1.405 1.366 1.405h.345L26.64 17.894l-6.317-6.496a1.34 1.34 0 00-1.931 0L1.4 28.873a1.433 1.433 0 000 1.986 1.34 1.34 0 001.931 0l16.027-16.483 6.318 6.497a1.339 1.339 0 001.93 0L42.27 5.794v.355c0 .776.611 1.404 1.366 1.404.754 0 1.365-.628 1.365-1.404V2.404z"/><path d="M42.572 14.886c0-.776-.611-1.404-1.365-1.404s-1.366.628-1.366 1.404v28.71c0 .775.612 1.404 1.366 1.404.754 0 1.365-.629 1.365-1.404v-28.71z"/><path d="M20.724 22.375c0-.775-.611-1.404-1.366-1.404-.754 0-1.365.629-1.365 1.404v21.22c0 .776.611 1.405 1.365 1.405.755 0 1.366-.629 1.366-1.404v-21.22z"/><path d="M35.29 22.375c0-.775-.612-1.404-1.366-1.404-.754 0-1.366.629-1.366 1.404v21.22c0 .776.612 1.405 1.366 1.405.754 0 1.365-.629 1.365-1.404v-21.22z"/><path d="M28.007 27.369c0-.776-.612-1.405-1.366-1.405-.754 0-1.365.629-1.365 1.405v16.227c0 .775.611 1.404 1.365 1.404s1.366-.629 1.366-1.404V27.369z"/><path d="M13.441 28.617c0-.776-.611-1.405-1.366-1.405-.754 0-1.365.63-1.365 1.405v14.979c0 .775.611 1.404 1.365 1.404.755 0 1.366-.629 1.366-1.404v-14.98z"/><path d="M6.159 36.106c0-.775-.612-1.404-1.366-1.404-.754 0-1.365.629-1.365 1.404v7.49c0 .775.611 1.404 1.365 1.404s1.366-.629 1.366-1.404v-7.49z"/><path d="M45 2.404c0-.372-.144-.73-.4-.993A1.347 1.347 0 0043.634 1h-3.641c-.754 0-1.366.629-1.366 1.404 0 .776.612 1.405 1.366 1.405h.345L26.64 17.894l-6.317-6.496a1.34 1.34 0 00-1.931 0L1.4 28.873a1.433 1.433 0 000 1.986 1.34 1.34 0 001.931 0l16.027-16.483 6.318 6.497a1.339 1.339 0 001.93 0L42.27 5.794v.355c0 .776.611 1.404 1.366 1.404.754 0 1.365-.628 1.365-1.404V2.404z" stroke-linecap="round" stroke-linejoin="round"/><path d="M42.572 14.886c0-.776-.611-1.404-1.365-1.404s-1.366.628-1.366 1.404v28.71c0 .775.612 1.404 1.366 1.404.754 0 1.365-.629 1.365-1.404v-28.71z" stroke-linecap="round" stroke-linejoin="round"/><path d="M20.724 22.375c0-.775-.611-1.404-1.366-1.404-.754 0-1.365.629-1.365 1.404v21.22c0 .776.611 1.405 1.365 1.405.755 0 1.366-.629 1.366-1.404v-21.22z" stroke-linecap="round" stroke-linejoin="round"/><path d="M35.29 22.375c0-.775-.612-1.404-1.366-1.404-.754 0-1.366.629-1.366 1.404v21.22c0 .776.612 1.405 1.366 1.405.754 0 1.365-.629 1.365-1.404v-21.22z" stroke-linecap="round" stroke-linejoin="round"/><path d="M28.007 27.369c0-.776-.612-1.405-1.366-1.405-.754 0-1.365.629-1.365 1.405v16.227c0 .775.611 1.404 1.365 1.404s1.366-.629 1.366-1.404V27.369z" stroke-linecap="round" stroke-linejoin="round"/><path d="M13.441 28.617c0-.776-.611-1.405-1.366-1.405-.754 0-1.365.63-1.365 1.405v14.979c0 .775.611 1.404 1.365 1.404.755 0 1.366-.629 1.366-1.404v-14.98z" stroke-linecap="round" stroke-linejoin="round"/><path d="M6.159 36.106c0-.775-.612-1.404-1.366-1.404-.754 0-1.365.629-1.365 1.404v7.49c0 .775.611 1.404 1.365 1.404s1.366-.629 1.366-1.404v-7.49z" stroke-linecap="round" stroke-linejoin="round"/><defs><linearGradient id="paint0_linear_1484_8938" x1="45" y1="1" x2="-3.061" y2="6.006" gradientUnits="userSpaceOnUse"><stop stop-color="#5771FF"/><stop offset="1" stop-color="#465BCC"/></linearGradient><linearGradient id="paint1_linear_1484_8938" x1="45" y1="1" x2="-3.061" y2="6.006" gradientUnits="userSpaceOnUse"><stop stop-color="#5771FF"/><stop offset="1" stop-color="#465BCC"/></linearGradient><linearGradient id="paint2_linear_1484_8938" x1="45" y1="1" x2="-3.061" y2="6.006" gradientUnits="userSpaceOnUse"><stop stop-color="#5771FF"/><stop offset="1" stop-color="#465BCC"/></linearGradient><linearGradient id="paint3_linear_1484_8938" x1="45" y1="1" x2="-3.061" y2="6.006" gradientUnits="userSpaceOnUse"><stop stop-color="#5771FF"/><stop offset="1" stop-color="#465BCC"/></linearGradient><linearGradient id="paint4_linear_1484_8938" x1="45" y1="1" x2="-3.061" y2="6.006" gradientUnits="userSpaceOnUse"><stop stop-color="#5771FF"/><stop offset="1" stop-color="#465BCC"/></linearGradient><linearGradient id="paint5_linear_1484_8938" x1="45" y1="1" x2="-3.061" y2="6.006" gradientUnits="userSpaceOnUse"><stop stop-color="#5771FF"/><stop offset="1" stop-color="#465BCC"/></linearGradient><linearGradient id="paint6_linear_1484_8938" x1="45" y1="1" x2="-3.061" y2="6.006" gradientUnits="userSpaceOnUse"><stop stop-color="#5771FF"/><stop offset="1" stop-color="#465BCC"/></linearGradient><linearGradient id="paint7_linear_1484_8938" x1="45" y1="1" x2="-3.061" y2="6.006" gradientUnits="userSpaceOnUse"><stop stop-color="#5771FF"/><stop offset="1" stop-color="#465BCC"/></linearGradient><linearGradient id="paint8_linear_1484_8938" x1="45" y1="1" x2="-3.061" y2="6.006" gradientUnits="userSpaceOnUse"><stop stop-color="#5771FF"/><stop offset="1" stop-color="#465BCC"/></linearGradient><linearGradient id="paint9_linear_1484_8938" x1="45" y1="1" x2="-3.061" y2="6.006" gradientUnits="userSpaceOnUse"><stop stop-color="#5771FF"/><stop offset="1" stop-color="#465BCC"/></linearGradient><linearGradient id="paint10_linear_1484_8938" x1="45" y1="1" x2="-3.061" y2="6.006" gradientUnits="userSpaceOnUse"><stop stop-color="#5771FF"/><stop offset="1" stop-color="#465BCC"/></linearGradient><linearGradient id="paint11_linear_1484_8938" x1="45" y1="1" x2="-3.061" y2="6.006" gradientUnits="userSpaceOnUse"><stop stop-color="#5771FF"/><stop offset="1" stop-color="#465BCC"/></linearGradient><linearGradient id="paint12_linear_1484_8938" x1="45" y1="1" x2="-3.061" y2="6.006" gradientUnits="userSpaceOnUse"><stop stop-color="#5771FF"/><stop offset="1" stop-color="#465BCC"/></linearGradient><linearGradient id="paint13_linear_1484_8938" x1="45" y1="1" x2="-3.061" y2="6.006" gradientUnits="userSpaceOnUse"><stop stop-color="#5771FF"/><stop offset="1" stop-color="#465BCC"/></linearGradient></defs></symbol><symbol id="icon-headphone" viewBox="0 0 46 46"><path fill-rule="evenodd" clip-rule="evenodd" d="M23 4.063c-10.455 0-18.93 8.456-18.93 18.887 0 2.078.336 4.075.955 5.942l4.755-2.738a1.538 1.538 0 012.096.56l7.163 12.378a1.53 1.53 0 01-.562 2.092l-5.317 3.063a5.635 5.635 0 01-7.688-2.055l-3.07-5.305a5.602 5.602 0 01.141-5.847A21.851 21.851 0 011 22.95C1 10.827 10.85 1 23 1s22 9.827 22 21.95c0 2.854-.547 5.585-1.543 8.09a5.602 5.602 0 01.14 5.847l-3.07 5.305a5.635 5.635 0 01-7.687 2.055l-5.317-3.063a1.53 1.53 0 01-.562-2.092l7.163-12.378a1.537 1.537 0 012.096-.56l4.755 2.738c.62-1.867.955-3.864.955-5.942 0-10.431-8.475-18.887-18.93-18.887zM9.985 29.572l-3.987 2.297a2.55 2.55 0 00-.936 3.486L8.13 40.66a2.561 2.561 0 003.495.934l3.987-2.297-5.628-9.725zm26.03 0l-5.628 9.725 3.987 2.297a2.561 2.561 0 003.495-.934l3.07-5.305a2.55 2.55 0 00-.937-3.486l-3.987-2.297z" stroke-linecap="round" stroke-linejoin="round"/><defs><linearGradient id="paint0_linear_1484_8937" x1="45" y1="1" x2="-3.061" y2="6.006" gradientUnits="userSpaceOnUse"><stop stop-color="#5771FF"/><stop offset="1" stop-color="#465BCC"/></linearGradient><linearGradient id="paint1_linear_1484_8937" x1="45" y1="1" x2="-3.061" y2="6.006" gradientUnits="userSpaceOnUse"><stop stop-color="#5771FF"/><stop offset="1" stop-color="#465BCC"/></linearGradient></defs></symbol><symbol id="icon-inst" viewBox="0 0 32 32"><rect width="32" height="32" rx="16"/><path d="M21.232 10.33a.438.438 0 10.001.876.438.438 0 000-.875zM16 12.126A3.878 3.878 0 0012.126 16 3.878 3.878 0 0016 19.874 3.878 3.878 0 0019.874 16 3.879 3.879 0 0016 12.126z"/><path d="M20.066 7h-8.132A4.94 4.94 0 007 11.934v8.132A4.94 4.94 0 0011.934 25h8.132A4.94 4.94 0 0025 20.066v-8.131A4.94 4.94 0 0020.066 7zM16 20.937A4.943 4.943 0 0111.063 16 4.943 4.943 0 0116 11.063 4.943 4.943 0 0120.937 16 4.943 4.943 0 0116 20.937zm5.232-8.67c-.827 0-1.5-.672-1.5-1.5 0-.826.673-1.5 1.5-1.5s1.5.674 1.5 1.5c0 .828-.673 1.5-1.5 1.5z"/><defs><linearGradient id="paint0_linear_881_21531" x1="32" y1="0" x2="-2.954" y2="3.641" gradientUnits="userSpaceOnUse"><stop stop-color="#5771FF"/><stop offset="1" stop-color="#465BCC"/></linearGradient></defs></symbol><symbol id="icon-list-down" viewBox="0 0 12 7"><path fill-rule="evenodd" clip-rule="evenodd" d="M0 1.299L1.367 0 6 4.402 10.633 0 12 1.299 6 7 0 1.299z"/></symbol><symbol id="icon-list-up" viewBox="0 0 12 7"><path fill-rule="evenodd" clip-rule="evenodd" d="M12 5.701L10.633 7 6 2.598 1.367 7 0 5.701 6 0l6 5.701z"/></symbol><symbol id="icon-location" viewBox="0 0 44 44"><path d="M21.459 1.758A12.2 12.2 0 0133.37 9.442a12.264 12.264 0 01.875 6.766A35.632 35.632 0 0128.994 28.7c-1.332 2.114-3.936 5.946-6.745 6.4a2.876 2.876 0 01-1.921-.512 12.216 12.216 0 01-3.436-3.223 39.012 39.012 0 01-6.468-12.337 14.689 14.689 0 01-.534-7.364 12.511 12.511 0 017.535-9.029 14.485 14.485 0 012.6-.726zm.171 3.586l-.576.043-1.366.256A8.521 8.521 0 0015.525 8.2a10.83 10.83 0 00-2.092 3.842 9.667 9.667 0 00.067 4.828 31.019 31.019 0 003.071 7.53c.77 1.316 1.486 2.591 2.348 3.8.463.649 1.023 1.223 1.515 1.836a6.113 6.113 0 001.579 1.387 5.012 5.012 0 001.281-1.11 22.973 22.973 0 003.116-4.184 30.687 30.687 0 004.354-10.566 8.586 8.586 0 00-.683-4.8 8.609 8.609 0 00-8.451-5.419zm.064 2.412a5.42 5.42 0 015.464 3.629 6.154 6.154 0 01.085 3.927 5.646 5.646 0 01-4.781 3.778 4.7 4.7 0 01-2.519-.406 5.708 5.708 0 01.064-10.566l1.11-.3zm.171 3.586l-.534.107a2.125 2.125 0 00-1.281 1.366 2.09 2.09 0 101.815-1.473zM7.713 24.64a1.805 1.805 0 011.814 2.583 3.628 3.628 0 01-1.3 1.174c-.963.727-2.51 2.295-1.921 4.12.888 2.75 4.953 4.3 7.855 5.165 5.978 1.785 15.288 1.03 19.723-1.558 1.525-.89 3.215-1.8 3.8-3.607.589-1.826-.958-3.392-1.921-4.12l-.854-.6a1.879 1.879 0 01-.149-2.6c1.055-1.306 2.556-.07 3.33.534 1.724 1.344 4.062 4.192 3.052 7.578-1.339 4.491-6.2 6.752-10.865 7.962-1.4.362-2.869.5-4.4.768l-2.327.149a9.089 9.089 0 01-2.476.021l-1.089-.021c-1.141-.188-2.285-.128-3.371-.344l-2.988-.6a21.724 21.724 0 01-8.239-4.013 7.763 7.763 0 01-2.092-2.711 8.951 8.951 0 01-.534-1.58 6.4 6.4 0 01.277-3.415 8.61 8.61 0 014.675-4.885z" fill-rule="evenodd"/></symbol><symbol id="icon-love" viewBox="0 0 44 44"><path d="M31.767 43H12.233a7.2 7.2 0 01-5.178-2.23 7.759 7.759 0 01-2.148-5.373V13.665c0-.403.154-.79.43-1.075a1.438 1.438 0 011.035-.445c.389 0 .761.16 1.036.445.275.285.43.672.43 1.075v21.733a4.655 4.655 0 001.288 3.225 4.32 4.32 0 003.107 1.337h19.534a4.32 4.32 0 003.107-1.337 4.655 4.655 0 001.289-3.224V13.663c0-.403.154-.79.429-1.075a1.438 1.438 0 011.036-.445c.389 0 .761.16 1.036.445.275.285.429.672.429 1.075v21.733a7.758 7.758 0 01-2.148 5.374A7.2 7.2 0 0131.767 43z"/><path d="M41.535 18.226a1.43 1.43 0 01-.88-.304l-17.19-13.38A2.397 2.397 0 0022 4.037c-.528 0-1.042.176-1.465.503l-17.19 13.38c-.312.243-.702.347-1.087.29a1.456 1.456 0 01-.965-.593 1.564 1.564 0 01-.278-1.128c.055-.399.26-.76.571-1.001l17.19-13.38A5.269 5.269 0 0122 1c1.161 0 2.292.389 3.223 1.108L42.414 15.49c.246.191.428.458.52.763.091.305.088.631-.01.934a1.518 1.518 0 01-.532.753 1.43 1.43 0 01-.857.287z"/><path d="M22 34.445c-.934 0-5.792-.377-9.783-7.818a7.777 7.777 0 01-1.198-4.928 7.68 7.68 0 012.08-4.6 5.96 5.96 0 012.457-1.53 5.787 5.787 0 012.86-.173 6.189 6.189 0 013.563 2.218c.832-1.12 2-1.92 3.32-2.271a5.686 5.686 0 012.704.028 5.82 5.82 0 012.407 1.278 7.56 7.56 0 012.544 4.714 7.709 7.709 0 01-1.177 5.264c-3.981 7.44-8.841 7.818-9.777 7.818zm-4.679-16.118a3.07 3.07 0 00-2.172.943 4.768 4.768 0 00-1.19 2.871 4.808 4.808 0 00.819 3.008c2.647 4.937 5.786 6.255 7.222 6.255 1.436 0 4.577-1.318 7.228-6.257.635-.928.92-2.066.8-3.197a4.702 4.702 0 00-1.453-2.94 2.975 2.975 0 00-1.209-.668 2.901 2.901 0 00-1.37-.043 4.283 4.283 0 00-1.642 1.093 4.494 4.494 0 00-1.008 1.735c-.131.25-.325.459-.561.604a1.487 1.487 0 01-1.56 0 1.561 1.561 0 01-.561-.604 4.254 4.254 0 00-1.069-1.737 4.042 4.042 0 00-1.732-1.008 2.885 2.885 0 00-.542-.055z"/><path d="M31.767 43H12.233a7.2 7.2 0 01-5.178-2.23 7.759 7.759 0 01-2.148-5.373V13.665c0-.403.154-.79.43-1.075a1.438 1.438 0 011.035-.445c.389 0 .761.16 1.036.445.275.285.43.672.43 1.075v21.733a4.655 4.655 0 001.288 3.225 4.32 4.32 0 003.107 1.337h19.534a4.32 4.32 0 003.107-1.337 4.655 4.655 0 001.289-3.224V13.663c0-.403.154-.79.429-1.075a1.438 1.438 0 011.036-.445c.389 0 .761.16 1.036.445.275.285.429.672.429 1.075v21.733a7.758 7.758 0 01-2.148 5.374A7.2 7.2 0 0131.767 43z" stroke-width="0.5"/><path d="M41.535 18.226a1.43 1.43 0 01-.88-.304l-17.19-13.38A2.397 2.397 0 0022 4.037c-.528 0-1.042.176-1.465.503l-17.19 13.38c-.312.243-.702.347-1.087.29a1.456 1.456 0 01-.965-.593 1.564 1.564 0 01-.278-1.128c.055-.399.26-.76.571-1.001l17.19-13.38A5.269 5.269 0 0122 1c1.161 0 2.292.389 3.223 1.108L42.414 15.49c.246.191.428.458.52.763.091.305.088.631-.01.934a1.518 1.518 0 01-.532.753 1.43 1.43 0 01-.857.287z" stroke-width="0.5"/><path d="M22 34.445c-.934 0-5.792-.377-9.783-7.818a7.777 7.777 0 01-1.198-4.928 7.68 7.68 0 012.08-4.6 5.96 5.96 0 012.457-1.53 5.787 5.787 0 012.86-.173 6.189 6.189 0 013.563 2.218c.832-1.12 2-1.92 3.32-2.271a5.686 5.686 0 012.704.028 5.82 5.82 0 012.407 1.278 7.56 7.56 0 012.544 4.714 7.709 7.709 0 01-1.177 5.264c-3.981 7.44-8.841 7.818-9.777 7.818zm-4.679-16.118a3.07 3.07 0 00-2.172.943 4.768 4.768 0 00-1.19 2.871 4.808 4.808 0 00.819 3.008c2.647 4.937 5.786 6.255 7.222 6.255 1.436 0 4.577-1.318 7.228-6.257.635-.928.92-2.066.8-3.197a4.702 4.702 0 00-1.453-2.94 2.975 2.975 0 00-1.209-.668 2.901 2.901 0 00-1.37-.043 4.283 4.283 0 00-1.642 1.093 4.494 4.494 0 00-1.008 1.735c-.131.25-.325.459-.561.604a1.487 1.487 0 01-1.56 0 1.561 1.561 0 01-.561-.604 4.254 4.254 0 00-1.069-1.737 4.042 4.042 0 00-1.732-1.008 2.885 2.885 0 00-.542-.055z" stroke-width="0.5"/></symbol><symbol id="icon-menu" viewBox="0 0 30 19"><rect width="30" height="3" rx="1.5"/><rect y="8" width="30" height="3" rx="1.5"/><rect y="16" width="30" height="3" rx="1.5"/></symbol><symbol id="icon-mobile" viewBox="0 0 200 200"><path data-name="1" d="M69.5 16.6H114c7.771 0 17.266-.809 23.4 1.1a23.815 23.815 0 0114.7 13c2.227 5.108 2.1 12.229 2.1 19.8v103.3c0 3.656.239 7.588-.5 10.6-2.049 8.354-7.221 14.289-14.6 17.3-7.4 3.02-21.869 1.7-32 1.7H79.3c-5.519 0-11.674.381-16-.9A23.949 23.949 0 0146.7 166c-1.1-3.641-.9-8.554-.9-13.3V66.1c0-12.135-1.633-29.236 2.9-37a24.458 24.458 0 0113.9-11.4l4.1-.9zm-1.1 12.1l-2.9.7a12.465 12.465 0 00-6.8 6.6c-1.846 4.3-.9 13.9-.9 19.8v91.9c0 9.173-.917 16.784 4.3 20.9 3.917 3.091 8.8 2.7 15.8 2.7H124c3.928 0 8.266.276 11-.9 9.545-4.105 7.2-17.479 7.2-30.7V49.2c0-5.412.4-11.228-1.6-14.6-4.143-7-11.648-5.9-22.5-5.9H68.4zm31.2 112.9c11.187.013 11.613 15.256.8 16.8-5.578.8-10.371-5.868-8.3-11.3a8.745 8.745 0 015-5z" fill-rule="evenodd"/></symbol><symbol id="icon-parking" viewBox="0 0 200 200"><path data-name="1" d="M48.5 27.1h96.1c3.079 0 6.554-.267 9.2.3a25.315 25.315 0 0110.1 4.5c10.377 7.837 9 18.646 9 36.3v64.9c0 16.68 1.143 27.1-8.5 34.6a25.486 25.486 0 01-9.6 4.7c-3.027.75-7.1.5-10.8.5H55.6c-3.587 0-7.477.226-10.4-.5a23.44 23.44 0 01-16.7-14.6c-2.578-6.609-1.4-19.4-1.4-28.3v-59c0-10.562-1.358-24.171 2.6-31a24.507 24.507 0 0112.5-11c1.894-.739 4.226-.572 6.3-1.4zm.9 14.8c-3.335 1.39-5.506 1.952-6.9 5.2-.819 1.909-.6 4.985-.6 7.7v88.8c0 2.716-.4 6.277.3 8.5 2.6 8.225 14.537 6 25 6h63.3c7.728 0 20.455 1.35 24.8-2.1s2.8-17.348 2.8-25.2v-64c0-8.292 1.521-19.576-3.3-23.2-3.948-2.968-21.634-1.7-29-1.7H49.4zm41.9 74.3c.053 5.872.978 21.134-1.2 24.4-2.424 3.635-8.687 4.143-11.5.5-1.837-2.379-1.5-6.722-1.5-11V74.8c0-5.1-.524-10.34 2.3-12.6 3.727-2.984 17.665-1.8 24.6-1.8a28.845 28.845 0 0111.8 2.3c10.908 4.759 19.124 19.471 14.2 35.7a28.309 28.309 0 01-3.9 8.1c-7.15 10.057-17.873 9.725-34.8 9.7zm0-41.3v26.8c9.414.087 20.346 1.267 23.9-4.6a14.084 14.084 0 001.7-5.5c1.008-8.8-2.433-14.815-9.3-16.4-4.367-1.008-11.321-.33-16.3-.3z" fill-rule="evenodd"/></symbol><symbol id="icon-percent" viewBox="0 0 200 200"><path data-name="1" d="M49.7 29.2a34.469 34.469 0 018.6.6c13.573 3.433 26.256 18.932 19 36.6-3.886 9.462-11.3 14.942-22.8 16.9-4.513.768-9.349-.651-12.4-1.9-10.584-4.332-21.02-17.06-16-33.1a27.055 27.055 0 0115.2-17l5.5-1.7zm103.4 8.3c6.177-.1 11.467 4.87 8.9 11.4-.824 2.1-2.512 3.207-3.8 4.8l-10 11-71.3 76.8-13.7 14.8-8.3 8.9a9.361 9.361 0 01-10.2-.3 9.008 9.008 0 01-1.8-11.1l21-22.9 60-64.6 15-16.2 6.3-6.8a20.153 20.153 0 014.8-4.8zM50.7 45.9l-2.6.7a10.66 10.66 0 00-6 6.6c-2.156 7.081 3.987 14.717 11.4 13.4 12.541-2.229 11.954-20.9-2.8-20.7zm100 74.9c18.979-.3 34.738 18.018 26.5 37.5-4.048 9.573-11.413 14.722-23.2 16.7-5.046.847-9.859-1.022-13-2.4-10.579-4.643-20.434-18.787-14.3-34.4a27.539 27.539 0 0116.3-15.9l5.5-1.3zm.6 16.7l-2.5.5a10.88 10.88 0 00-6.4 6c-2.885 7.053 3.246 15.581 10.8 14.3 12.8-2.17 12.133-20.968-1.9-20.8z" fill-rule="evenodd"/></symbol><symbol id="icon-phone" viewBox="0 0 48 48"><path fill-rule="evenodd" clip-rule="evenodd" d="M11.626 8.002c-.456.228-1.105.736-2.105 1.736-1.88 1.879-4.351 9.858 6.766 20.975s19.096 8.645 20.975 6.766c1-1 1.508-1.65 1.736-2.105.179-.358.14-.49.083-.63-.116-.282-.42-.687-1.134-1.4-.305-.306-.652-.636-1.053-1.018l-.14-.134a87.034 87.034 0 01-1.522-1.479c-.547-.547-1.511-1.224-2.547-1.483-.95-.238-1.928-.132-2.866.806-.795.796-1.662 1.366-2.64 1.582-1.003.22-1.94.03-2.787-.365-.82-.383-1.596-.974-2.34-1.63-.743-.654-1.53-1.442-2.359-2.27l-.046-.046c-.828-.828-1.616-1.616-2.27-2.359-.656-.744-1.247-1.52-1.63-2.34-.395-.846-.586-1.784-.365-2.787.216-.978.786-1.845 1.582-2.64.938-.938 1.044-1.916.806-2.866-.259-1.035-.936-2-1.483-2.547a87.431 87.431 0 01-1.613-1.662 63.273 63.273 0 00-1.017-1.053c-.714-.714-1.12-1.018-1.401-1.134-.14-.058-.272-.096-.63.083zm5.26.263c.432.453.902.944 1.43 1.473.807.806 1.821 2.21 2.24 3.88.438 1.757.206 3.824-1.563 5.592-.557.558-.748.96-.807 1.23-.054.244-.034.533.163.955.21.45.59.984 1.183 1.656.587.667 1.313 1.394 2.168 2.25.855.854 1.582 1.58 2.249 2.168.672.591 1.207.972 1.656 1.182.422.197.71.217.956.163.269-.059.67-.25 1.229-.807 1.768-1.769 3.835-2.001 5.591-1.562 1.672.418 3.075 1.432 3.881 2.238a84.155 84.155 0 001.615 1.567c.396.377.77.733 1.1 1.064.707.707 1.401 1.469 1.759 2.337.416 1.01.327 2.012-.17 3.007-.45.898-1.244 1.822-2.274 2.851-3.534 3.534-13.418 4.851-25.035-6.766S3.957 11.242 7.491 7.708c1.03-1.03 1.953-1.825 2.851-2.273.995-.498 1.997-.587 3.007-.17.868.357 1.63 1.05 2.338 1.758.33.33.687.705 1.063 1.1l.136.142z"/><defs><linearGradient id="paint0_linear_1447_480" x1="42" y1="5" x2="1.585" y2="9.209" gradientUnits="userSpaceOnUse"><stop stop-color="#5771FF"/><stop offset="1" stop-color="#465BCC"/></linearGradient></defs></symbol><symbol id="icon-plane" viewBox="0 0 48 48"><g clip-path="url(#clip0_1447_445)"><path fill-rule="evenodd" clip-rule="evenodd" d="M13.41 32.164l2.758 5.518 1.113-1.113-1.38-4.138 9.702-9.701 8.276 13.793 1.59-1.589-5.518-16.552 7.486-7.486a1.95 1.95 0 10-2.76-2.759l-7.485 7.486-16.553-5.517-1.588 1.589 13.793 8.276-9.702 9.702-4.138-1.38-1.112 1.113 5.517 2.758zm-1.058-5.84l-2.994-.997a1.95 1.95 0 00-1.996.471l-2.496 2.496a1.95 1.95 0 00.507 3.124l5.855 2.928 2.928 5.855a1.95 1.95 0 003.124.507l2.496-2.496a1.95 1.95 0 00.471-1.996l-.998-2.994 5.773-5.773 6.99 11.65a1.95 1.95 0 003.053.377l2.898-2.899a1.95 1.95 0 00.472-1.996l-5.137-15.409 6.208-6.207a4.877 4.877 0 00-6.897-6.897L26.4 12.275 10.993 7.14a1.95 1.95 0 00-1.996.472l-2.899 2.898a1.95 1.95 0 00.376 3.052l11.651 6.99-5.773 5.774z"/></g><defs><linearGradient id="paint0_linear_1447_445" x1="53.989" y1="20.552" x2="19.126" y2="-7.904" gradientUnits="userSpaceOnUse"><stop stop-color="#5771FF"/><stop offset="1" stop-color="#465BCC"/></linearGradient><clipPath id="clip0_1447_445"><path d="M0 0h48v48H0z"/></clipPath></defs></symbol><symbol id="icon-shield" viewBox="0 0 44 44"><path d="M21.958 2a3.062 3.062 0 011.71.834A17.341 17.341 0 0026 4.089a42.166 42.166 0 008.841 2.565l2.544.271 1.543.063a1.844 1.844 0 011.063.771 8.732 8.732 0 01.229 3.482l-.12 2.794-.125 1.689c-.225 1.356-.244 2.763-.5 4.045-.34 1.7-.515 3.323-.98 4.879-1.928 6.456-4.535 11.363-9.675 14.6a22.753 22.753 0 01-4.712 2.189 9.33 9.33 0 01-2.066.563 6.152 6.152 0 01-2.085-.542 23.237 23.237 0 01-4.775-2.21C10.041 36 7.436 31.11 5.507 24.648c-.516-1.727-.7-3.54-1.063-5.442a56.2 56.2 0 01-.644-7.881 10.68 10.68 0 01.083-3.315 1.8 1.8 0 01.938-.938 9.736 9.736 0 011.772-.146c.965-.157 1.92-.126 2.834-.314a40.362 40.362 0 008.194-2.356A18.783 18.783 0 0020.1 2.984l1.147-.813c.216-.094.471-.071.711-.171zm0 3.9A14.638 14.638 0 0118.5 7.634a45.049 45.049 0 01-7.923 2.314c-1.064.234-2.171.267-3.315.417a23.346 23.346 0 00.167 3.878c.178 1.072.111 2.145.292 3.148.295 1.631.374 3.183.751 4.691 1.343 5.377 3.188 10.086 6.943 13.031a18.338 18.338 0 004.816 2.752 8.467 8.467 0 001.793.584 8.631 8.631 0 002.022-.688 18.5 18.5 0 004.545-2.648c5.71-4.484 8.151-14.493 8.153-24.749A36 36 0 0125.9 7.822l-2.628-1.189a5.817 5.817 0 00-1.314-.733zm6.234 10.008a1.749 1.749 0 011.4 2.69l-6.443 7.527c-.541.68-1.523 2.185-2.877 1.96-1.258-.209-1.852-1.163-2.5-1.981L16.391 24.5a7.2 7.2 0 01-1.188-1.46 2.139 2.139 0 01.292-2.064 1.456 1.456 0 011.835-.209l3.128 3.607 5.254-6.088 1.814-2.106a3.292 3.292 0 01.667-.268z" fill-rule="evenodd"/></symbol><symbol id="icon-soc-fb" viewBox="0 0 14 24"><path d="M14 4.482h-2.538c-1.99 0-2.375.948-2.375 2.338v3.064h4.745l-.001 4.8H9.087V27h-4.95V14.684H0v-4.8h4.138v-3.54C4.138 2.238 6.643 0 10.302 0L14 .006v4.476z"/></symbol><symbol id="icon-soc-inst" viewBox="0 0 18 18"><path d="M14.232 3.33a.438.438 0 10.001.876.438.438 0 000-.875zM9 5.126A3.878 3.878 0 005.126 9 3.878 3.878 0 009 12.874 3.878 3.878 0 0012.874 9 3.879 3.879 0 009 5.126z"/><path d="M13.066 0H4.934A4.94 4.94 0 000 4.934v8.132A4.94 4.94 0 004.934 18h8.132A4.94 4.94 0 0018 13.066V4.934A4.94 4.94 0 0013.066 0zM9 13.937A4.943 4.943 0 014.063 9 4.943 4.943 0 019 4.063 4.943 4.943 0 0113.937 9 4.943 4.943 0 019 13.937zm5.232-8.67c-.827 0-1.5-.672-1.5-1.5 0-.826.673-1.5 1.5-1.5s1.5.674 1.5 1.5c0 .828-.673 1.5-1.5 1.5z"/></symbol><symbol id="icon-soc-twt" viewBox="0 0 20 17"><path d="M19.977 2.025a.096.096 0 00-.117-.028 7.755 7.755 0 01-1.875.593A4.34 4.34 0 0019.45.445a.106.106 0 00-.033-.112.096.096 0 00-.113-.009 7.821 7.821 0 01-2.495 1.005 4.098 4.098 0 00-3-1.329c-2.294 0-4.161 1.948-4.161 4.343 0 .29.027.576.08.855C6.548 4.993 3.576 3.4 1.555.814A.095.095 0 001.47.776a.099.099 0 00-.078.051A4.486 4.486 0 00.83 3.011c0 1.331.58 2.576 1.566 3.398a3.863 3.863 0 01-1.452-.49.095.095 0 00-.097 0 .105.105 0 00-.05.088v.056c0 1.912 1.207 3.59 2.925 4.148a3.833 3.833 0 01-1.384-.02.098.098 0 00-.093.032.107.107 0 00-.02.1c.515 1.678 1.947 2.855 3.613 3.002A7.778 7.778 0 01.11 14.889a.1.1 0 00-.105.068.106.106 0 00.04.122A11.263 11.263 0 006.326 17c7.298 0 11.659-6.186 11.659-12.166 0-.166-.003-.332-.01-.497a8.513 8.513 0 002.008-2.188.107.107 0 00-.006-.124z"/></symbol><symbol id="icon-star" viewBox="0 0 42 40"><path d="M31.505 35.8h0c-.263.187-.976.585-1.849.131l1.849-.131zm0 0c.262-.19.865-.738.698-1.7L31.12 27.86a6.274 6.274 0 011.843-5.598l-.07-.072.07.072 4.59-4.419-.069-.072.07.072c.706-.68.545-1.475.444-1.78h0c-.1-.306-.443-1.041-1.418-1.182l-.014.1.014-.1-6.344-.91a6.398 6.398 0 01-4.822-3.461h0L22.575 4.83c-.437-.873-1.25-.967-1.575-.967-.324 0-1.139.093-1.575.967l-2.837 5.679a6.399 6.399 0 01-4.823 3.46h0l-6.344.91c-.976.14-1.317.877-1.418 1.182-.1.305-.262 1.1.445 1.78l4.592 4.42a6.277 6.277 0 011.842 5.598L9.798 34.1c-.167.962.437 1.511.7 1.7h0c.261.187.976.584 1.847.131l-.046-.088.046.088 5.675-2.947a6.471 6.471 0 015.961 0l5.675 2.947 1.849-.131zm-.72-25.555h0l6.344.91c2.114.305 3.835 1.74 4.495 3.744a5.418 5.418 0 01-1.41 5.636l-4.592 4.42.07.072-.07-.072a2.544 2.544 0 00-.746 2.269h0l1.084 6.241.099-.017-.099.017c.361 2.078-.487 4.138-2.214 5.378a5.597 5.597 0 01-3.27 1.056h0c-.885.001-1.774-.21-2.596-.637l-.046.089.046-.089-5.675-2.947h0a2.623 2.623 0 00-2.412 0h0l-5.674 2.947a5.59 5.59 0 01-5.865-.419h0c-1.728-1.24-2.576-3.3-2.215-5.378l1.084-6.241s0 0 0 0a2.543 2.543 0 00-.746-2.27h0l-4.59-4.419h0A5.415 5.415 0 01.376 14.9c.66-2.005 2.381-3.44 4.495-3.743l6.344-.91h0a2.592 2.592 0 001.953-1.401h0l2.837-5.679C16.951 1.276 18.864.1 21 .1c2.137 0 4.049 1.175 4.994 3.065l2.838 5.68s0 0 0 0a2.59 2.59 0 001.952 1.4z" stroke-width="0.2"/></symbol><symbol id="icon-tv" viewBox="0 0 48 48"><path fill-rule="evenodd" clip-rule="evenodd" d="M14.036 3h20.928c1.626 0 2.937 0 3.999.087 1.093.089 2.053.278 2.942.73a7.5 7.5 0 013.277 3.278c.453.889.642 1.849.731 2.942C46 11.1 46 12.41 46 14.036v10.028c0 1.626 0 2.937-.087 3.999-.09 1.093-.278 2.053-.73 2.942a7.5 7.5 0 01-3.278 3.277c-.889.453-1.849.642-2.942.731-1.062.087-2.373.087-3.999.087H14.036c-1.626 0-2.937 0-3.999-.087-1.093-.089-2.053-.278-2.942-.73a7.5 7.5 0 01-3.278-3.278c-.452-.889-.641-1.849-.73-2.942C3 27 3 25.69 3 24.064V14.036c0-1.626 0-2.937.087-3.999.089-1.093.278-2.053.73-2.942a7.5 7.5 0 013.278-3.278c.889-.452 1.849-.641 2.942-.73C11.1 3 12.41 3 14.036 3zM10.28 6.077c-.907.074-1.429.212-1.824.413A4.5 4.5 0 006.49 8.457c-.2.395-.34.917-.413 1.824C6 11.207 6 12.395 6 14.1V24c0 1.705.001 2.893.077 3.819.074.907.212 1.429.413 1.824a4.5 4.5 0 001.967 1.966c.395.202.917.34 1.824.414.926.076 2.114.077 3.819.077h20.8c1.705 0 2.893-.001 3.819-.077.907-.074 1.429-.212 1.824-.414a4.5 4.5 0 001.967-1.966c.2-.395.34-.917.413-1.824C43 26.893 43 25.705 43 24v-9.9c0-1.705-.001-2.893-.077-3.819-.074-.907-.212-1.429-.413-1.824a4.5 4.5 0 00-1.967-1.967c-.395-.2-.917-.34-1.824-.413C37.793 6 36.605 6 34.9 6H14.1c-1.705 0-2.893.001-3.819.077z"/><path d="M23 35.1V40h-3.5a1.5 1.5 0 000 3h10a1.5 1.5 0 000-3H26v-4.9h-3z"/><defs><linearGradient id="paint0_linear_1457_8568" x1="46" y1="3" x2="-0.891" y2="8.25" gradientUnits="userSpaceOnUse"><stop stop-color="#5771FF"/><stop offset="1" stop-color="#465BCC"/></linearGradient><linearGradient id="paint1_linear_1457_8568" x1="46" y1="3" x2="-0.891" y2="8.25" gradientUnits="userSpaceOnUse"><stop stop-color="#5771FF"/><stop offset="1" stop-color="#465BCC"/></linearGradient></defs></symbol><symbol id="icon-union" viewBox="0 0 15 16"><path fill-rule="evenodd" clip-rule="evenodd" d="M7.86 0a.977.977 0 00-.981.972V3.71C3.623 3.875.993 5.41.488 7.59c-.097.419.264.772.697.772h.4a.409.409 0 00-.048.19v5.523h-.38c-.44 0-.757.252-.757.563 0 .311.316.563.758.563h12.884c.442 0 .758-.252.758-.563 0-.31-.316-.563-.758-.563h-.379V8.552a.409.409 0 00-.047-.191h.134c.434 0 .794-.353.697-.772-.504-2.18-3.135-3.714-6.39-3.88v-.598H9.69a.977.977 0 00.982-.972V.972A.977.977 0 009.69 0h-1.83zm1.635 1.944H8.057v-.777h1.438v.777zm-7.596 5.25h11.137c-.295-.51-.8-.995-1.532-1.4-1.036-.573-2.443-.933-4.036-.933-1.594 0-3.001.36-4.036.933-.732.405-1.238.89-1.533 1.4zm8.978 1.167h1.66a.409.409 0 00-.047.19v5.523h-1.565V8.552a.409.409 0 00-.048-.191zm-2.738 0H9.8a.409.409 0 00-.048.19v5.523H8.187V8.552a.409.409 0 00-.048-.191zm-2.738 0h1.66a.409.409 0 00-.048.19v5.523H5.45V8.552A.409.409 0 005.4 8.36zm-2.738 0h1.66a.409.409 0 00-.048.19v5.523H2.71V8.552a.409.409 0 00-.047-.191z"/><defs><linearGradient id="paint0_linear" x1="14.8" y1="0" x2="-0.946" y2="1.554" gradientUnits="userSpaceOnUse"><stop stop-color="#5771FF"/><stop offset="1" stop-color="#465BCC"/></linearGradient></defs></symbol><symbol id="icon-wallet" viewBox="0 0 48 48"><path fill-rule="evenodd" clip-rule="evenodd" d="M34.778 13.107H10.11c-.568 0-1.028.464-1.028 1.036v.13c.329-.085.673-.13 1.028-.13h25.695c0-.572-.46-1.036-1.028-1.036zM9.083 30.714V18.286c0-.572.46-1.036 1.028-1.036H38.89c.567 0 1.028.464 1.028 1.036v16.571c0 .572-.46 1.036-1.028 1.036H10.11a1.032 1.032 0 01-1.028-1.036v-4.143zM6 18.286v16.571C6 37.145 7.84 39 10.111 39H38.89C41.159 39 43 37.145 43 34.857V18.286c0-2.288-1.84-4.143-4.111-4.143 0-2.288-1.84-4.143-4.111-4.143H10.11C7.841 10 6 11.855 6 14.143v4.143z"/><circle cx="35" cy="26" r="2"/><defs><linearGradient id="paint0_linear_1447_440" x1="43" y1="10" x2="2.855" y2="15.335" gradientUnits="userSpaceOnUse"><stop stop-color="#5771FF"/><stop offset="1" stop-color="#465BCC"/></linearGradient><linearGradient id="paint1_linear_1447_440" x1="37" y1="24" x2="32.631" y2="24.455" gradientUnits="userSpaceOnUse"><stop stop-color="#5771FF"/><stop offset="1" stop-color="#465BCC"/></linearGradient></defs></symbol><symbol id="icon-wifi" viewBox="0 0 48 48"><path d="M24.003 13c-6.443 0-12.3 2.51-16.669 6.62a1.97 1.97 0 01-2.802-.1 2.012 2.012 0 01.099-2.827C9.705 11.922 16.518 9 24.003 9c7.482 0 14.292 2.92 19.366 7.688.801.753.845 2.018.099 2.827a1.97 1.97 0 01-2.802.1C36.298 15.509 30.443 13 24.003 13z"/><path d="M12.916 25.31A16.374 16.374 0 0124.003 21c4.265 0 8.148 1.628 11.08 4.304a1.97 1.97 0 002.8-.14 2.012 2.012 0 00-.14-2.826A20.32 20.32 0 0024.004 17a20.32 20.32 0 00-13.75 5.345 2.012 2.012 0 00-.138 2.825 1.97 1.97 0 002.8.14z"/><path d="M18.497 31.013A8.503 8.503 0 0124.003 29c2.1 0 4.02.758 5.513 2.02.84.71 2.09.598 2.793-.249a2.012 2.012 0 00-.247-2.817A12.448 12.448 0 0024.002 25c-3.06 0-5.87 1.107-8.048 2.944a2.012 2.012 0 00-.25 2.818 1.97 1.97 0 002.793.251z"/><path d="M26.646 36.333c0 1.473-1.184 2.667-2.643 2.667-1.46 0-2.644-1.194-2.644-2.667 0-1.472 1.184-2.666 2.644-2.666 1.46 0 2.643 1.194 2.643 2.666z"/><defs><linearGradient id="paint0_linear_1447_489" x1="44" y1="9" x2="0.67" y2="15.017" gradientUnits="userSpaceOnUse"><stop stop-color="#5771FF"/><stop offset="1" stop-color="#465BCC"/></linearGradient><linearGradient id="paint1_linear_1447_489" x1="44" y1="9" x2="0.67" y2="15.017" gradientUnits="userSpaceOnUse"><stop stop-color="#5771FF"/><stop offset="1" stop-color="#465BCC"/></linearGradient><linearGradient id="paint2_linear_1447_489" x1="44" y1="9" x2="0.67" y2="15.017" gradientUnits="userSpaceOnUse"><stop stop-color="#5771FF"/><stop offset="1" stop-color="#465BCC"/></linearGradient><linearGradient id="paint3_linear_1447_489" x1="44" y1="9" x2="0.67" y2="15.017" gradientUnits="userSpaceOnUse"><stop stop-color="#5771FF"/><stop offset="1" stop-color="#465BCC"/></linearGradient></defs></symbol> <view id="icon-arr-link-view-dark" viewBox="0 0 13 12"/><view id="icon-arr-link-view-white" viewBox="0 22 13 12"/><view id="icon-arr-link-view-accent" viewBox="0 44 13 12"/><view id="icon-arr-right-view-dark" viewBox="0 66 39 24"/><view id="icon-arr-right-view-white" viewBox="0 100 39 24"/><view id="icon-arr-right-view-accent" viewBox="0 134 39 24"/><view id="icon-aye-view-dark" viewBox="0 168 18 10"/><view id="icon-aye-view-white" viewBox="0 188 18 10"/><view id="icon-aye-view-accent" viewBox="0 208 18 10"/><view id="icon-bag-view-dark" viewBox="0 228 48 48"/><view id="icon-bag-view-white" viewBox="0 286 48 48"/><view id="icon-bag-view-accent" viewBox="0 344 48 48"/><view id="icon-car-view-dark" viewBox="0 402 48 48"/><view id="icon-car-view-white" viewBox="0 460 48 48"/><view id="icon-car-view-accent" viewBox="0 518 48 48"/><view id="icon-close-view-dark" viewBox="0 576 38 38"/><view id="icon-close-view-white" viewBox="0 624 38 38"/><view id="icon-close-view-accent" viewBox="0 672 38 38"/><view id="icon-crew-view-dark" viewBox="0 720 48 48"/><view id="icon-crew-view-white" viewBox="0 778 48 48"/><view id="icon-crew-view-accent" viewBox="0 836 48 48"/><view id="icon-faucet-view-dark" viewBox="0 894 48 48"/><view id="icon-faucet-view-white" viewBox="0 952 48 48"/><view id="icon-faucet-view-accent" viewBox="0 1010 48 48"/><view id="icon-game-view-dark" viewBox="0 1068 200 200"/><view id="icon-game-view-white" viewBox="0 1278 200 200"/><view id="icon-game-view-accent" viewBox="0 1488 200 200"/><view id="icon-graf-view-dark" viewBox="0 1698 46 46"/><view id="icon-graf-view-white" viewBox="0 1754 46 46"/><view id="icon-graf-view-accent" viewBox="0 1810 46 46"/><view id="icon-headphone-view-dark" viewBox="0 1866 46 46"/><view id="icon-headphone-view-white" viewBox="0 1922 46 46"/><view id="icon-headphone-view-accent" viewBox="0 1978 46 46"/><view id="icon-inst-view-dark" viewBox="0 2034 32 32"/><view id="icon-inst-view-white" viewBox="0 2076 32 32"/><view id="icon-inst-view-accent" viewBox="0 2118 32 32"/><view id="icon-list-down-view-dark" viewBox="0 2160 12 7"/><view id="icon-list-down-view-white" viewBox="0 2177 12 7"/><view id="icon-list-down-view-accent" viewBox="0 2194 12 7"/><view id="icon-list-up-view-dark" viewBox="0 2211 12 7"/><view id="icon-list-up-view-white" viewBox="0 2228 12 7"/><view id="icon-list-up-view-accent" viewBox="0 2245 12 7"/><view id="icon-location-view-dark" viewBox="0 2262 44 44"/><view id="icon-location-view-white" viewBox="0 2316 44 44"/><view id="icon-location-view-accent" viewBox="0 2370 44 44"/><view id="icon-love-view-dark" viewBox="0 2424 44 44"/><view id="icon-love-view-white" viewBox="0 2478 44 44"/><view id="icon-love-view-accent" viewBox="0 2532 44 44"/><view id="icon-menu-view-dark" viewBox="0 2586 30 19"/><view id="icon-menu-view-white" viewBox="0 2615 30 19"/><view id="icon-menu-view-accent" viewBox="0 2644 30 19"/><view id="icon-mobile-view-dark" viewBox="0 2673 200 200"/><view id="icon-mobile-view-white" viewBox="0 2883 200 200"/><view id="icon-mobile-view-accent" viewBox="0 3093 200 200"/><view id="icon-parking-view-dark" viewBox="0 3303 200 200"/><view id="icon-parking-view-white" viewBox="0 3513 200 200"/><view id="icon-parking-view-accent" viewBox="0 3723 200 200"/><view id="icon-percent-view-dark" viewBox="0 3933 200 200"/><view id="icon-percent-view-white" viewBox="0 4143 200 200"/><view id="icon-percent-view-accent" viewBox="0 4353 200 200"/><view id="icon-phone-view-dark" viewBox="0 4563 48 48"/><view id="icon-phone-view-white" viewBox="0 4621 48 48"/><view id="icon-phone-view-accent" viewBox="0 4679 48 48"/><view id="icon-plane-view-dark" viewBox="0 4737 48 48"/><view id="icon-plane-view-white" viewBox="0 4795 48 48"/><view id="icon-plane-view-accent" viewBox="0 4853 48 48"/><view id="icon-shield-view-dark" viewBox="0 4911 44 44"/><view id="icon-shield-view-white" viewBox="0 4965 44 44"/><view id="icon-shield-view-accent" viewBox="0 5019 44 44"/><view id="icon-soc-fb-view-dark" viewBox="0 5073 14 24"/><view id="icon-soc-fb-view-white" viewBox="0 5107 14 24"/><view id="icon-soc-fb-view-accent" viewBox="0 5141 14 24"/><view id="icon-soc-inst-view-dark" viewBox="0 5175 18 18"/><view id="icon-soc-inst-view-white" viewBox="0 5203 18 18"/><view id="icon-soc-inst-view-accent" viewBox="0 5231 18 18"/><view id="icon-soc-twt-view-dark" viewBox="0 5259 20 17"/><view id="icon-soc-twt-view-white" viewBox="0 5286 20 17"/><view id="icon-soc-twt-view-accent" viewBox="0 5313 20 17"/><view id="icon-star-view-dark" viewBox="0 5340 42 40"/><view id="icon-star-view-white" viewBox="0 5390 42 40"/><view id="icon-star-view-accent" viewBox="0 5440 42 40"/><view id="icon-tv-view-dark" viewBox="0 5490 48 48"/><view id="icon-tv-view-white" viewBox="0 5548 48 48"/><view id="icon-tv-view-accent" viewBox="0 5606 48 48"/><view id="icon-union-view-dark" viewBox="0 5664 15 16"/><view id="icon-union-view-white" viewBox="0 5690 15 16"/><view id="icon-union-view-accent" viewBox="0 5716 15 16"/><view id="icon-wallet-view-dark" viewBox="0 5742 48 48"/><view id="icon-wallet-view-white" viewBox="0 5800 48 48"/><view id="icon-wallet-view-accent" viewBox="0 5858 48 48"/><view id="icon-wifi-view-dark" viewBox="0 5916 48 48"/><view id="icon-wifi-view-white" viewBox="0 5974 48 48"/><view id="icon-wifi-view-accent" viewBox="0 6032 48 48"/> <use xlink:href="#icon-arr-link" x="0" y="0" width="13" height="12" style="fill:#0b0e21"/><use xlink:href="#icon-arr-link" x="0" y="22" width="13" height="12" style="fill:#ffffff"/><use xlink:href="#icon-arr-link" x="0" y="44" width="13" height="12" style="fill:#465BCC"/><use xlink:href="#icon-arr-right" x="0" y="66" width="39" height="24" style="fill:#0b0e21"/><use xlink:href="#icon-arr-right" x="0" y="100" width="39" height="24" style="fill:#ffffff"/><use xlink:href="#icon-arr-right" x="0" y="134" width="39" height="24" style="fill:#465BCC"/><use xlink:href="#icon-aye" x="0" y="168" width="18" height="10" style="fill:#0b0e21"/><use xlink:href="#icon-aye" x="0" y="188" width="18" height="10" style="fill:#ffffff"/><use xlink:href="#icon-aye" x="0" y="208" width="18" height="10" style="fill:#465BCC"/><use xlink:href="#icon-bag" x="0" y="228" width="48" height="48" style="fill:#0b0e21"/><use xlink:href="#icon-bag" x="0" y="286" width="48" height="48" style="fill:#ffffff"/><use xlink:href="#icon-bag" x="0" y="344" width="48" height="48" style="fill:#465BCC"/><use xlink:href="#icon-car" x="0" y="402" width="48" height="48" style="fill:#0b0e21"/><use xlink:href="#icon-car" x="0" y="460" width="48" height="48" style="fill:#ffffff"/><use xlink:href="#icon-car" x="0" y="518" width="48" height="48" style="fill:#465BCC"/><use xlink:href="#icon-close" x="0" y="576" width="38" height="38" style="fill:#0b0e21"/><use xlink:href="#icon-close" x="0" y="624" width="38" height="38" style="fill:#ffffff"/><use xlink:href="#icon-close" x="0" y="672" width="38" height="38" style="fill:#465BCC"/><use xlink:href="#icon-crew" x="0" y="720" width="48" height="48" style="fill:#0b0e21"/><use xlink:href="#icon-crew" x="0" y="778" width="48" height="48" style="fill:#ffffff"/><use xlink:href="#icon-crew" x="0" y="836" width="48" height="48" style="fill:#465BCC"/><use xlink:href="#icon-faucet" x="0" y="894" width="48" height="48" style="fill:#0b0e21"/><use xlink:href="#icon-faucet" x="0" y="952" width="48" height="48" style="fill:#ffffff"/><use xlink:href="#icon-faucet" x="0" y="1010" width="48" height="48" style="fill:#465BCC"/><use xlink:href="#icon-game" x="0" y="1068" width="200" height="200" style="fill:#0b0e21"/><use xlink:href="#icon-game" x="0" y="1278" width="200" height="200" style="fill:#ffffff"/><use xlink:href="#icon-game" x="0" y="1488" width="200" height="200" style="fill:#465BCC"/><use xlink:href="#icon-graf" x="0" y="1698" width="46" height="46" style="fill:#0b0e21"/><use xlink:href="#icon-graf" x="0" y="1754" width="46" height="46" style="fill:#ffffff"/><use xlink:href="#icon-graf" x="0" y="1810" width="46" height="46" style="fill:#465BCC"/><use xlink:href="#icon-headphone" x="0" y="1866" width="46" height="46" style="fill:#0b0e21"/><use xlink:href="#icon-headphone" x="0" y="1922" width="46" height="46" style="fill:#ffffff"/><use xlink:href="#icon-headphone" x="0" y="1978" width="46" height="46" style="fill:#465BCC"/><use xlink:href="#icon-inst" x="0" y="2034" width="32" height="32" style="fill:#0b0e21"/><use xlink:href="#icon-inst" x="0" y="2076" width="32" height="32" style="fill:#ffffff"/><use xlink:href="#icon-inst" x="0" y="2118" width="32" height="32" style="fill:#465BCC"/><use xlink:href="#icon-list-down" x="0" y="2160" width="12" height="7" style="fill:#0b0e21"/><use xlink:href="#icon-list-down" x="0" y="2177" width="12" height="7" style="fill:#ffffff"/><use xlink:href="#icon-list-down" x="0" y="2194" width="12" height="7" style="fill:#465BCC"/><use xlink:href="#icon-list-up" x="0" y="2211" width="12" height="7" style="fill:#0b0e21"/><use xlink:href="#icon-list-up" x="0" y="2228" width="12" height="7" style="fill:#ffffff"/><use xlink:href="#icon-list-up" x="0" y="2245" width="12" height="7" style="fill:#465BCC"/><use xlink:href="#icon-location" x="0" y="2262" width="44" height="44" style="fill:#0b0e21"/><use xlink:href="#icon-location" x="0" y="2316" width="44" height="44" style="fill:#ffffff"/><use xlink:href="#icon-location" x="0" y="2370" width="44" height="44" style="fill:#465BCC"/><use xlink:href="#icon-love" x="0" y="2424" width="44" height="44" style="fill:#0b0e21"/><use xlink:href="#icon-love" x="0" y="2478" width="44" height="44" style="fill:#ffffff"/><use xlink:href="#icon-love" x="0" y="2532" width="44" height="44" style="fill:#465BCC"/><use xlink:href="#icon-menu" x="0" y="2586" width="30" height="19" style="fill:#0b0e21"/><use xlink:href="#icon-menu" x="0" y="2615" width="30" height="19" style="fill:#ffffff"/><use xlink:href="#icon-menu" x="0" y="2644" width="30" height="19" style="fill:#465BCC"/><use xlink:href="#icon-mobile" x="0" y="2673" width="200" height="200" style="fill:#0b0e21"/><use xlink:href="#icon-mobile" x="0" y="2883" width="200" height="200" style="fill:#ffffff"/><use xlink:href="#icon-mobile" x="0" y="3093" width="200" height="200" style="fill:#465BCC"/><use xlink:href="#icon-parking" x="0" y="3303" width="200" height="200" style="fill:#0b0e21"/><use xlink:href="#icon-parking" x="0" y="3513" width="200" height="200" style="fill:#ffffff"/><use xlink:href="#icon-parking" x="0" y="3723" width="200" height="200" style="fill:#465BCC"/><use xlink:href="#icon-percent" x="0" y="3933" width="200" height="200" style="fill:#0b0e21"/><use xlink:href="#icon-percent" x="0" y="4143" width="200" height="200" style="fill:#ffffff"/><use xlink:href="#icon-percent" x="0" y="4353" width="200" height="200" style="fill:#465BCC"/><use xlink:href="#icon-phone" x="0" y="4563" width="48" height="48" style="fill:#0b0e21"/><use xlink:href="#icon-phone" x="0" y="4621" width="48" height="48" style="fill:#ffffff"/><use xlink:href="#icon-phone" x="0" y="4679" width="48" height="48" style="fill:#465BCC"/><use xlink:href="#icon-plane" x="0" y="4737" width="48" height="48" style="fill:#0b0e21"/><use xlink:href="#icon-plane" x="0" y="4795" width="48" height="48" style="fill:#ffffff"/><use xlink:href="#icon-plane" x="0" y="4853" width="48" height="48" style="fill:#465BCC"/><use xlink:href="#icon-shield" x="0" y="4911" width="44" height="44" style="fill:#0b0e21"/><use xlink:href="#icon-shield" x="0" y="4965" width="44" height="44" style="fill:#ffffff"/><use xlink:href="#icon-shield" x="0" y="5019" width="44" height="44" style="fill:#465BCC"/><use xlink:href="#icon-soc-fb" x="0" y="5073" width="14" height="24" style="fill:#0b0e21"/><use xlink:href="#icon-soc-fb" x="0" y="5107" width="14" height="24" style="fill:#ffffff"/><use xlink:href="#icon-soc-fb" x="0" y="5141" width="14" height="24" style="fill:#465BCC"/><use xlink:href="#icon-soc-inst" x="0" y="5175" width="18" height="18" style="fill:#0b0e21"/><use xlink:href="#icon-soc-inst" x="0" y="5203" width="18" height="18" style="fill:#ffffff"/><use xlink:href="#icon-soc-inst" x="0" y="5231" width="18" height="18" style="fill:#465BCC"/><use xlink:href="#icon-soc-twt" x="0" y="5259" width="20" height="17" style="fill:#0b0e21"/><use xlink:href="#icon-soc-twt" x="0" y="5286" width="20" height="17" style="fill:#ffffff"/><use xlink:href="#icon-soc-twt" x="0" y="5313" width="20" height="17" style="fill:#465BCC"/><use xlink:href="#icon-star" x="0" y="5340" width="42" height="40" style="fill:#0b0e21"/><use xlink:href="#icon-star" x="0" y="5390" width="42" height="40" style="fill:#ffffff"/><use xlink:href="#icon-star" x="0" y="5440" width="42" height="40" style="fill:#465BCC"/><use xlink:href="#icon-tv" x="0" y="5490" width="48" height="48" style="fill:#0b0e21"/><use xlink:href="#icon-tv" x="0" y="5548" width="48" height="48" style="fill:#ffffff"/><use xlink:href="#icon-tv" x="0" y="5606" width="48" height="48" style="fill:#465BCC"/><use xlink:href="#icon-union" x="0" y="5664" width="15" height="16" style="fill:#0b0e21"/><use xlink:href="#icon-union" x="0" y="5690" width="15" height="16" style="fill:#ffffff"/><use xlink:href="#icon-union" x="0" y="5716" width="15" height="16" style="fill:#465BCC"/><use xlink:href="#icon-wallet" x="0" y="5742" width="48" height="48" style="fill:#0b0e21"/><use xlink:href="#icon-wallet" x="0" y="5800" width="48" height="48" style="fill:#ffffff"/><use xlink:href="#icon-wallet" x="0" y="5858" width="48" height="48" style="fill:#465BCC"/><use xlink:href="#icon-wifi" x="0" y="5916" width="48" height="48" style="fill:#0b0e21"/><use xlink:href="#icon-wifi" x="0" y="5974" width="48" height="48" style="fill:#ffffff"/><use xlink:href="#icon-wifi" x="0" y="6032" width="48" height="48" style="fill:#465BCC"/></svg>