<svg width="121" height="29" viewBox="0 0 121 29" fill="none" xmlns="http://www.w3.org/2000/svg">
<path fill-rule="evenodd" clip-rule="evenodd" d="M26.3218 3.71042C26.9347 2.39739 26.3509 0.843573 25.018 0.239879C23.685 -0.363814 22.1076 0.211219 21.4948 1.52425L13.2827 19.1186L5.07058 1.52425C4.45773 0.21122 2.88034 -0.363814 1.54738 0.239879C0.214425 0.843573 -0.369335 2.39739 0.243519 3.71042L10.8692 26.4757C11.3026 27.4043 12.2451 27.9994 13.2827 27.9994C14.3202 27.9994 15.2628 27.4043 15.6962 26.4757L20.1456 16.943L24.6908 26.4934C25.1297 27.4156 26.0719 28.0031 27.1059 27.9993C28.1398 27.9956 29.0776 27.4011 29.5095 26.4757L40.1352 3.71042C40.748 2.39739 40.1643 0.843573 38.8313 0.239879C37.4983 -0.363814 35.921 0.21122 35.3081 1.52425L27.0726 19.1688L23.0509 10.7184L26.3218 3.71042Z" fill="white"/>
<path d="M51.4249 1.52423C50.9915 0.595645 50.0489 0.000610352 49.0114 0.000610352C47.9738 0.000610352 47.0312 0.595645 46.5978 1.52423L35.9722 24.2896C35.3593 25.6026 35.9431 27.1564 37.2761 27.7601C38.609 28.3638 40.1864 27.7888 40.7993 26.4757L49.0114 8.88137L57.2235 26.4757C57.8363 27.7888 59.4137 28.3638 60.7467 27.7601C62.0796 27.1564 62.6634 25.6026 62.0505 24.2896L51.4249 1.52423Z" fill="white"/>
<path d="M46.4878 22.7659C45.0207 22.7659 43.8314 23.9375 43.8314 25.3826C43.8314 26.8278 45.0207 27.9993 46.4878 27.9993H51.5349C53.002 27.9993 54.1913 26.8278 54.1913 25.3826C54.1913 23.9375 53.002 22.7659 51.5349 22.7659H46.4878Z" fill="white"/>
<path d="M63.1131 1.52425C62.5002 0.21122 60.9228 -0.363814 59.5899 0.239879C58.2569 0.843573 57.6732 2.39739 58.286 3.71042L68.9117 26.4757C69.3451 27.4043 70.2877 27.9994 71.3252 27.9994C72.3627 27.9994 73.3053 27.4043 73.7387 26.4757L78.1881 16.943L82.7333 26.4934C83.1722 27.4156 84.1144 28.0031 85.1484 27.9993C86.1823 27.9956 87.1201 27.4011 87.552 26.4757L98.1777 3.71042C98.7905 2.39739 98.2068 0.843573 96.8738 0.239879C95.5409 -0.363814 93.9635 0.21122 93.3506 1.52425L85.1151 19.1688L81.0934 10.7184L84.3643 3.71042C84.9772 2.39739 84.3934 0.843573 83.0605 0.239879C81.7275 -0.363814 80.1501 0.21122 79.5373 1.52425L71.3252 19.1186L63.1131 1.52425Z" fill="white"/>
<path d="M104.132 11.3833C102.665 11.3833 101.475 12.5548 101.475 14V25.3826C101.475 26.8278 102.665 27.9993 104.132 27.9993H118.344C119.811 27.9993 121 26.8278 121 25.3826C121 23.9375 119.811 22.7659 118.344 22.7659H106.788V16.6167H118.344C119.811 16.6167 121 15.4451 121 14C121 12.5548 119.811 11.3833 118.344 11.3833H104.132Z" fill="white"/>
<path d="M104.132 0.000610352C102.665 0.000610352 101.475 1.17215 101.475 2.61731C101.475 4.06248 102.665 5.23402 104.132 5.23402H118.344C119.811 5.23402 121 4.06248 121 2.61731C121 1.17215 119.811 0.000610352 118.344 0.000610352H104.132Z" fill="white"/>
</svg>