<svg width="3840" height="1060" viewBox="0 0 3840 1060" fill="none" xmlns="http://www.w3.org/2000/svg">
<path d="M629.898 148C544.564 148 464.389 168.414 394.784 204.245C330.574 237.297 261.591 266 188.089 266C119.948 266 56.8573 242.316 0 207.549V1060H3840V0C3681.29 0 3537.89 60.5831 3435.42 158.086C3372.51 217.946 3292.28 266 3201.97 266C3132.24 266 3067.46 236.609 3010.24 199.79C2925.46 145.235 2820.72 113 2707.37 113C2633.54 113 2563.35 126.678 2499.96 151.294C2371.54 201.161 2242.94 266 2103.64 266C2000.52 266 1901.99 229.74 1803.29 202.143C1756.51 189.064 1706.62 182 1654.84 182C1611.55 182 1569.59 186.936 1529.66 196.194C1414.4 222.923 1300.72 266 1181.88 266C1037.53 266 902.259 202.023 763.502 165.263C721.067 154.021 676.244 148 629.898 148Z" fill="url(#paint0_linear_1403_9156)"/>
<defs>
<linearGradient id="paint0_linear_1403_9156" x1="-123.5" y1="1108.5" x2="3810.59" y2="-438.813" gradientUnits="userSpaceOnUse">
<stop stop-opacity="0"/>
<stop offset="0.502155" stop-opacity="0.09"/>
<stop offset="1" stop-opacity="0.02"/>
</linearGradient>
</defs>
</svg>
