<svg width="3840" height="1060" viewBox="0 0 3840 1060" fill="none" xmlns="http://www.w3.org/2000/svg">
<path d="M3196.59 148C3281.56 148 3361.4 168.414 3430.71 204.244C3494.65 237.297 3563.34 266 3636.54 266C3710.92 266 3779.26 237.54 3840 197.219V1060H0V0C158.042 0 300.834 60.5831 402.872 158.085C465.517 217.946 545.419 266 635.344 266C704.777 266 769.29 236.609 826.267 199.79C910.69 145.235 1014.99 113 1127.86 113C1201.39 113 1271.27 126.678 1334.4 151.294C1357.04 160.124 1379.69 169.424 1402.4 178.75L1402.42 178.755L1402.42 178.756C1507.97 222.094 1614.9 266 1729.05 266C1812.42 266 1892.78 242.096 1972.67 218.334L1972.67 218.334L1972.67 218.333C1991.18 212.829 2009.65 207.333 2028.14 202.143C2074.72 189.064 2124.39 182 2175.96 182C2219.07 182 2260.85 186.936 2300.61 196.194C2332.05 203.515 2363.37 212.063 2394.71 220.615C2477.79 243.289 2561.01 266 2646.93 266C2747.9 266 2844.41 234.432 2940.8 202.904C2981.63 189.549 3022.43 176.201 3063.55 165.263C3105.8 154.021 3150.44 148 3196.59 148Z" fill="url(#paint0_linear_1447_8013)"/>
<defs>
<linearGradient id="paint0_linear_1447_8013" x1="4296.96" y1="5.49331e-05" x2="638.028" y2="1409.46" gradientUnits="userSpaceOnUse">
<stop stop-color="#465BCC"/>
<stop offset="1" stop-color="#5771FF"/>
</linearGradient>
</defs>
</svg>
